<mxfile host="app.diagrams.net" modified="2023-06-16T15:00:40.468Z" agent="Mozilla/5.0 (Windows NT 10.0; Win64; x64) AppleWebKit/537.36 (KHTML, like Gecko) Chrome/114.0.0.0 Safari/537.36" etag="8ybgGWLquwtkEIWyqfJN" version="21.4.0" type="device">
  <diagram name="Pagina-1" id="mK0VrLMWDu7a4_ix9v7z">
    <mxGraphModel dx="2593" dy="1324" grid="1" gridSize="10" guides="1" tooltips="1" connect="1" arrows="1" fold="1" page="1" pageScale="1" pageWidth="827" pageHeight="1169" math="0" shadow="0">
      <root>
        <mxCell id="0" />
        <mxCell id="1" parent="0" />
        <mxCell id="Hs2CcvfQEq0QWHd-Z1g5-35" value="" style="endArrow=none;html=1;rounded=0;exitX=1;exitY=0.5;exitDx=0;exitDy=0;strokeWidth=5;strokeColor=#C81919;" edge="1" parent="1" source="Hs2CcvfQEq0QWHd-Z1g5-19">
          <mxGeometry width="50" height="50" relative="1" as="geometry">
            <mxPoint x="800" y="140" as="sourcePoint" />
            <mxPoint x="880" y="190" as="targetPoint" />
            <Array as="points">
              <mxPoint x="880" y="100" />
            </Array>
          </mxGeometry>
        </mxCell>
        <mxCell id="Hs2CcvfQEq0QWHd-Z1g5-2" value="" style="shape=actor;whiteSpace=wrap;html=1;strokeWidth=5;" vertex="1" parent="1">
          <mxGeometry x="70" y="110" width="70" height="100" as="geometry" />
        </mxCell>
        <mxCell id="Hs2CcvfQEq0QWHd-Z1g5-3" value="Ovarian cancer patient" style="text;html=1;strokeColor=none;fillColor=none;align=center;verticalAlign=middle;whiteSpace=wrap;rounded=0;fontSize=20;" vertex="1" parent="1">
          <mxGeometry x="75" y="240" width="60" height="30" as="geometry" />
        </mxCell>
        <mxCell id="Hs2CcvfQEq0QWHd-Z1g5-4" value="" style="endArrow=classic;html=1;rounded=0;exitX=1;exitY=0.75;exitDx=0;exitDy=0;entryX=0;entryY=0.5;entryDx=0;entryDy=0;strokeWidth=5;" edge="1" parent="1" source="Hs2CcvfQEq0QWHd-Z1g5-2" target="Hs2CcvfQEq0QWHd-Z1g5-5">
          <mxGeometry width="50" height="50" relative="1" as="geometry">
            <mxPoint x="160" y="200" as="sourcePoint" />
            <mxPoint x="220" y="185" as="targetPoint" />
            <Array as="points">
              <mxPoint x="210" y="185" />
              <mxPoint x="210" y="100" />
            </Array>
          </mxGeometry>
        </mxCell>
        <mxCell id="Hs2CcvfQEq0QWHd-Z1g5-5" value="" style="shape=image;verticalLabelPosition=bottom;labelBackgroundColor=default;verticalAlign=top;aspect=fixed;imageAspect=0;image=data:image/png,iVBORw0KGgoAAAANSUhEUgAAAT8AAAE9CAYAAAB9bmWgAAAAAXNSR0IArs4c6QAAAARnQU1BAACxjwv8YQUAAAAJcEhZcwAAFxEAABcRAcom8z8AAPKfSURBVHhe7P1pz61ZdeZ7bqLviIaegAACgggIwDQGg42xDe6NO4wTBxAQEfRgjLHB4BYMNu4weTJPNsoqVdZRqV6kzqkXJR2pVNL5BvWmvkR+kFX3b639jz32jPUE2M5UKXnuLV2ac4455pjdGNc97+ZZ+8r273CZcdNNNx1+8id/8vBbv/Vbh49+9KOHj3zkI4ff+I3fOPziL/7i4ed//ucPv/ALv/B0Xloefu7nfu6In/3Zn70uH973vvc9nV912a0Ofuqnfurw7ne/+/ATP/EThx//8R+/Dure8IY3HO68887DDTfccHjOc55zhPxaXuvCjTfe+HRqznfcccfhgQceOLz97W8/vPe97z2OVT8//dM//fS4G696cunP/MzPPAPVaSe1RtbQmv6rf/WvDo899thxXT/84Q8fPvQ7jx1+57GPHj78kY8fPvr4k4ePP/Hk4Yknnjji4x//+OHxxx8/6sMHP/jBw6/92q8dfvVXf/XwS7/0S8fx6GNCf7NvaWvamgf19rp5vva1rz3ceuutx3WxZvlEaximv0w8W11I57bbbjs8+uijx77f9a53HWGvleeYoblNzLmVNq9k9oI9qXX/5je/efjqV796XMP3vOc9Gz58eNObvrPt/z3PGOdlwnOf+9zDf/2v/1V+EzxnI4HnbrjryuGGW0/l59x8Nb/VP+emK4cb79zKt1wz8MOCm2+++UgwguuXf/mXj2nElOPlZJP4VgIMOWXOyGnJVmg7iZXTCoZJfgUJx33HO95xeP7zn38Mpklqlad8El15QHp33XXX4RWveMXhbW9729FuwReRNY/mZ6zqzWMNQGVtpqw5a/uBD3zgSHoC8Xd+53cOH/rQhw6/86EPHh7/8G8cnnr81w+f+NhvHD76kU22EeKxbtMBF6Hf/u3fPq4Nu42nsdXXRONTV5t0Z5kOAjR3FxuE5EKwrmuIvP450Lb2L3jBC457qO/2Vf/Wq/G15o17zo+seUqrryy1l+bFr1xIvvKVrxwvJtYR2b/73e85vPSlr9zGdMMzxnqZcB35Ib7XfO3K4WWPXTm8+P0n0rvvndfy9/7Yqe5Fv3Te2P/IiPwiIunqfDnn/z/J753vfOfhRS960TOCtPKUnyM/87z99tsPz3ve844nHvaMbz3RNY/mZ6wFV4E2ZdpM2ZzzSn6//oGPHP72K+8+/B///tWH/9e/fe3h//0/v+bwJ1/8hcMHPviRZ5CfU6P+61N+rjHZRONTB1N3lulEftb8LW95y+Hee+89Xhhav4nI658DbWv/kpe85Ljm/1TyKyVrnlNeWTrJ78knnzye+qwlmyfy+4ltHC/8F83phwHXkd+N24nv5R+5crjrkSuH+z90lfDesW3Yb1w53PLCjfR++crh9gdO5WnkhwGcniPmcByFM0UGwHFyuBlgq7NKy0N2arvWQzb0EekhwAJEXpBw7EceeeTpW9+V4EJBPMs22y2uW2cByBboEwTMDMLQ+JtzZW0KuubWRWO2dbs1ye9Xf/Njh//Lt956+P/855ce/uarP3n49h/+9OGzT/7q4YP/6nSb67YYnPrYa3zA5tpHaC0n1r2ZZXMwf3nzcAp+1atedVynW2655bhukR9EYskrT0z9dKR8zC3v61//+mOf7XH7jAzzkdbUBRG6E2kO61xbf+3WtXrqqacOf/mXf3kkQbr6vkZ+52PhsuD6k9/dVw4P/fFGgB87nQDd9t5y33by+9Urh1tffDoB3vL8Lb0k5CflUMAxc86Q42lTQJWfZXor1rrKMzDm6S/yQ1CC1AlCgBZkkVxEF/mB2zknPYHthNPJo1NPcxMwzQeaxzrnuSZScqk281SsTF/wOsEhto997GOHD/3O44fPP/VLh//TN950+P/+Ly84/O//+qHD44+9//Drv/HBI0HScVL5zd/8zaOd+tMP+8ivsTTWc2ht0yttbGyYc3Oxxtb2Na95zXF9nZBXAoRJfqUXkV9QZw9+9Ed/9Lju7Wt7az+MxTjsiTH++q//+vGZqXWwhnM+K9qDiA/IPUP91re+dfjUpz51tEn+nve89/Dylz+8jenGs7FwWXD9ye/O04nvztdup7tfPykgRLe5SO8FP7vVvWYr/8ozDf2PjpX8Jgo8qfIMvDUIOZjgLMCqm2VY64GtGRiCIgIsL0ikThD33Xff8UG9sa/kV9CpF8gPPfTQ04EXOkk2P5hjNQ9YxxhZRhql6p1Qai8N73//+4+3tJ5B/fpvPXH4P3/zzYf/7e8eOvztH77t8P/87oOHLzzx04df+uXfON4iIz4nPy842GnNjOVXfuVXjqk+24/GtsJYm1s2yBsfRDYQabg4OB2/+MUvPkuAsyy/El/1U8+eeMZqzbvlXcnPGKR0zNOFwOkXkF971DyaEzTX5tC+Wu9vf/vbh89+9rPbheN0iv6Zn/nY4c1v/tttTPsLj6fJz20u0oM7Hz4pkN2xEZ78zfeeToF3PHi9kR8GcE5On2NxpoJcWcDlcNJ0Ci4pVD/1IoDy52SgDRsCQFAIgpX8oBOgN7RIzYmi27QZeG6N1bPH6SO9bJCDfs1vjolswhyDNZlBNoOtEwodKXtsg1MbQnv/r/3W4UuffN/hu1/7scPff/Xthy9/8qc22QeOp0OnHTYaR3i67Uai7OoP9GNM6xgrty9sIGY22G9M2U9PmxNB/MxxjV73utcd7r777uP68hHPTKUQqbXu6/oHbT2ntV/GzO6KLkb22p54VID0nPzW9TC3MOda3jzMQdltr5PfZz7zmePa/cIv2I9PbncA39vGvpPf0+R3hDe8N1yvNPFsdf8jgxPPkx/HKRiUp/PJr8GZfm1qd06fvLrapi8VIJPoIr/SAsZ43aY9/PDDhxe+8IXHZ0qCU7AJ2N7mRhQh0gPl5tcYG19jbFzND5BDc00m78SijeAjy0Z2BOBv//YHDx/84G8fye4DH/jNLcB/c8ufbnnd4iGp2jUudiNGtpFFxDf7L6/9BFs9P5tEH7QN1oRtqdPygw8++PRtcC+MykeESG5NyzuhO6nbu0huor2oTMdYEeAcb+vRekLza+7ljV+7T3ziE4c///M/P5Kftf3VX33/hs9vfvFvt7HdezYWLgueSX6XFJw08puBkDMVQJyPY4J8jkmnwAPOp426ixw22xFJMmVEB4Ih4ov8JhEKGidWJzxB5hMWxPeyl73s+HwvgoNOaFDA6csYGqN8MJbG25wa62zXPMgFqzaR05xX9UjOLfAHPvDBI/H95nar65RDdo78rLETmzrrHoGw15jrK9R+Yu5F+SnLjnWxVqAfFxDkdc899xwfIzhpg2epLjguNoiwC0+g6/TtJRPfsu7ssS8N7UVl8zP+fMzYzhE2tLatf2XzsNbI7+tf//qR/E630S4yX9zm9BcbOT/3bCxcFuzkdxUr+XGeNaA4oKuxWxHByDlzyumA2kU2ZGyuoF9aP5W1i+QKikl4M1+dAHWL5hQIP/IjP/L0iw32Zn/KAswY9UtmDuqNd0XzN05tg7qCsLYCTlm/2Q/qrZf1E4hOfj3Q9yFzt3h02Mt26+7kpxx5N4a5V6Xk5jXR/KuffSTXnm3rE8nyi7e+9a2Hl770pcdvLK0zvPKVrzw+F3TR8ZkMcowY6bkAvfrVrz7uhf1iF9qzUFnaus0xTxjrvPCS0TOf5pzMKdtb3j/6oz86PvPzIslt8Kc//eltTG863p6fi4XLgp38rgL5IYuCKXIQYIKCQwlApxOBK1Dnw/2ctfbaBu1zyqk79aE6bWZgXBQss77AIpPWXwEtH1nr07zI5dU1D+XGVdsJ7axN/bQ+yeuz8bSGsy/rhvCs4fpGc44nGLeLjVtf9fphW9qYwuzPOJqH1LwaK9RX807O9lx3/SBAnxg5YSOyCNHH0QgO3B57U0ynC9CP/diPPW1Hu+zKryBv/HPM7Ye09bCPkeCsbz7k1hb5/cEf/MHhC1/4wuFzn/vc4Utf+tLha1/7o8Pb3/6jO/nt5HcC8uOogoYTFricULA6mbhy+l5NvpNfAZrTBY6orcDJqdeAVAfqIAeWF1wgKAROwROUC6TqBY0xeWPqi35v+nxXh7TNAQoc/RuP/laYj7EEdhuj/pwyvQ11K/jGN77x8KY3velIAoJdHVKwli4mxjXXMlgj40FoTiidGPXf+p2DMVuzyK+Ufan+WrfW3fi1a93l0yerv+YZ+bHFjvLsh97se6btiXz7oty+TbvVJ2cDGmvjah9Ambz1s59TZm+to/Xkp253v/jFLx6BBP/kT/7k8O1vf2vbm7dt5Ld/5LyT34ZOfoKDA3JyziY4PY/y+QXik0d8HC9HC5yPM06nFCgFRUHCuZMnkxZYdAvggmTmV1SnT99z+aL/D//wD49Xeak/b0Lc5jLHVZBJyxdIU25ckYI3lm75fDPopNNpSN5fjMg7BXXyMY/mmB1968eadYKRFsCt5RxD4wW2Kk+78vozRujURTf9yFdZGzJjaU2StyfWt5TM3jr5u6i4yBijejhHbOHc/kV4bOiXDX0bX/vQ2FoLaTL1rV1pa+rUx2fd7jrxSfnDn/3Znx3+8i+/s63PLx2e85ybzsbCZcFOflcxya9A4Ujd6vYH9uuzvhXqnGQQjUDhpBy6wIA1WGYwJC9YwjzNrIGmDozNlf173/ve8Q2fZz1//dd/ffh3/+7fHa/6xiVg5hzlSwuqZAJTH9YFkTjRIb6Xv/zlx2ddnmm5zVP2NvT+++8/yv39qk87vG12IvS3rHN++p5B3NoZG5RvnMahrTRiqp0yneTG6VSKlPVtzMZvfYwhcqn/8tC82Zs2jZncM0oXF7eQTlK/+7u/e/weUbt1P6SVpeUDfdCWn+h/HVvrId/4qpeSa2tfe3TAB/gsgnbL6/me1LO+L3zh8xv5/enh61//N9ua/Pvt5Hf32Vi4LNjJ7yrmM7+cLAcUZPPqGvHlnBPknNGVFyIcji0ACgwoKOXVFRB0BdwaPFCATHvAllsdV/a///u/Pwanq71vvP7zf/7PxxQhayeQzXMGkbwUyPSvbycoJBLJRW4+rVF20pMq99Df22Zvnb3pVHYSNK9Iuz7n+sI6DjBWbcy19ojJXAV5ZJVd64CEvXAwVm9aESFC9Pabnj66SNnLbMw+k5Uivr/7u787/If/8B+Op2nE5+NhFxfE0xih/W1vyKqvThmxGkfPOtc1yKcal3pz1M6YlO2pE2hE5y86nPKV5btbQdKf+cynD3/8x1/ffMPJ798cbrxxJ7+d/DZEfpyMg00H5GST9EohB51OyqE5peDi2Oo4a4QSzpEfHbocvIBJXp2xCUry2V6/SO8b3/jGMUB///d///AXf/EXh3/4h384fPnLXz6eEgrs5mhs2jkxCGJzQpBOUMiiB/pOcd52IjnEggAjPydAZW89kR2nAgSoTM8JzDiNub7XIE82YaxdDMA8pfTtQ0TQmr75zW8+kh4iNiYnUm9lzQEJGof29gYxIA52Goe0NWI3IL+/+Zu/OZLf1772tePafuc73znCRc64QmOxN+bLFrvmUV3zMEf9WhM60NwrNy77ZH8an3HzM2Ob5Od5b8+n3Z6rd/fy1FN+5OArG3H/zXYa/w8b+e0fOe/ktwH5cdaCMKebBDedkTwSrE47Dh5BqQP5HFawFiAr+YF6gUC3wJNng7wgYVedNvWnzlg4v1teQfr5z3/+6PjGOscNyBDhORXQ82yIbQTiGZ5bVyTCSaQBySGWbnuRIpKL/JCeNp0AfQ/HlmeAkYGxNjewbnPupWDcUmvlhQo4kSLnvmXsY2TEp199Onn2QbI8uXF4Hok0rI/nYB5pdMvYowpojMam3qMEjxRcXHw7hwydqLWLzCCCMx/rrK3bUORFrz2X5gPa6Uuf7aU5y7d3+ulOAthzcUXgSM9J3+1tL+WQstMxyJ9egHx62+s/2y4CX9lue+88GwuXBTv5XcUkv5wfcrQpSz6Jr/Ikv6AsEApwBJDzFwiRnyDg+NP5C4hskZOx10nKGNQbhwCZHw13e9cYnQScCEDQOC06IcojqL5nQ3QRGMgjN8SHZJwGEY7TFTn9yC8gHUCMXoiYY/OzFmBO1sFp05yai3mqT9epzRtmp1G3sUjMaQ4RqkPGxlCf+keCyE8+EkeACL7fuvvkJz/59CkJSSEK69XaA6JxUXHi80JJO89RkQ3d9sX4I0HrjbCQE5vsrPstX9le5j/tcb4FiFlf9nBexBC5/fY80h42h0ivlC+o/8IXPnd43eseOuy/6rKT3xEr+UU28rNcQFRXmTMKkOqmnYJCABcYOX8BwPFDTl8fs3+BEbLHfvV0lQsgKXvZFAiCXsD7+t/De6cfKV1EFnl0epNHIggEeXQ7ifw8U+t5Xx/7alfbCFAZOSEq45prIu022x6oM16pevDSBPEh0FJ9s9l3dcYxx6vP8tLGIkWA+kR43ooiMesxPw+yn629sdhjREbfbWWnOXWtv3GbD/ABJzPkhKTI7G8+IG//zRnkzdU+sKUN+5Gc/o0nMpzQDwI3rnnqc7KXL3XKdcp/4xvfcPwxhnOxcFnAP3by2zDJDzhZjl85EuGcgePDdFRXaFCGnJZ+Tr8GwJSxV5/reOT1kb0CTRtjKwgbFzRWY3F68WxIoDsFgCBBJogBIi6nPyc55WT+egHJSREgyNPrrxvoIUHta4twlH0TOMfaHKyB29neDNNRT8/aOJF606w9OHE6oXar3bggAtTnRGMBp0GkaPxumSM1BBKckLsNNg5jMtb2Sb61Vd8ezTVPp/bNadoxP6Sn3v7yF2SGsCKtbne1ZUM/MyWn04neSdCczAGUO/E/9dQT2wXkNfvJb/ODnfw2rOQXYXEs5elkMwg4Nnnkp510kl9yNuhrJ8C73SmQoJNQ/TaWThDAyZXJGwu78sYHaxm67XHqc9JxctGfkxQS4AyIBCI/abLqERsgHDqd+OSldORrD9oqu11tbNaj8RvHXA/jbb3VOaU5NQIS7OVLZNs462slv8aevnppzy7Z1L+1dTryHBQBWjPjbA2N1/ibQ+XmY7/aO/sur672UHvzAjJt+Ux73AsoFyby9rq+pl150J82vd2NCJsPuPg99thT257/4uGGG245GwuXBXxiJ78NyK+3vRGOfGVpTsbpOG2kRUaf89Ht9KccKQIdzqrNPPEpswkRweyXDcHQrUwQJOoLpmxA5RkcbocEtGAQIMbjhUWnJc4QsSEKxECeTH0kApFeoC9VN4lJOaLxFyHNEaxBD/3nhWCOu3UxJ7re3EauxoDcIjPjqxxW8jNGsuYmr86H2wjQujo19SKkcYBxta6tc/unvj2zXy4uyJRuaD7TTv6ijX3VRh6MhU16+mkdpr18kx47xmzsk8SvnWo/vM3tS4e3vvXfHW68cf9Vl538NqzP/NY0BwNOxwELYPmcLx3EMolPHtjh9NpNZ65dAVW/BUfk121QRBgBardiBofxCCpjQTKer3lO5tlX5CSN4JACoog4IhaIRHrWF5BbhIeYJvmpd1pzi2lsSMZLBycut9ygbF2Mu7lLBbSTrnVw8vPpzCRsME4yfU3iA/WTBBsXGFdjNH7PEY3JSdOadeqC9rd1la5rTgc8e/N22EsIuvaZ/uoX5mVf7KU9VtYnHXbotxb5i3xjmDr1zR4/cbFDwOBihxRPfXx62/9/3D912XxhJ78Nk/wijNKgDDkfknJSEbA5P+dcTy85ZgGUrZx11tcH58+p5dfb3vLkdOoLGl9l40R4iEdgrx8lcwIEgDwiDPIIJtKQgjoEgjgjnGRIrzL7ZKVOmZ7peTOL7JAheTacvIzTWjR2BBHpm7dnf/poPI1d2nyawyQ8ec/4QJ/0ZttSesbTrbCLhNOmNbTO7UlrTh7sf3XetPu20uMFcyCzj4itfSM3J6TUG2HyiE+bfMRa5GOgXF/pBHb1M0lVn+Q/93P0P3E8+e2/57eT3xHztnc6VkG4loETCtZu10AeiXYb14uMGRggiHLSrvTKpYKgACGjPwOvMUkjOo5fvWBEyk5YCMMLAoRXgEsBEUiRAVKJ7KROQrWByE8e0XhOSEeZPrCXTalPYqSI0i2vZ35sGoM170c/vXlEOgjaPMxJKniRA/KzFgjUGLQ35kliMMfZWMtrA+mmL81ObYKxOw0atz2dJJcPJFNuP5TBmM2h03oXrvYWMfVCwgnNXNWZ+9z3ubfs6qMxtPfprvrl6Unf+94PHh555Ilt3e84GwuXBfZ3J78NPwj5lY9sOCGCQzBILigLFGkEKECyUfuIbiIynOQ35RxZ+2ywOfNBn30X5xSDpJAL0prBj4gEvjzyg8jRycznLJFHxCBlCykgNfrVsQ/s6le9sj85Q37aeNPqxz4jv1Jj8CbXXFofhNHJiMyp1elNf5P8oHk0xsYEyedYpeYR6ZP1WYy8cau3dtbCydT4rC2CiZzsSWj95dXbw05dtZE3p97KOiV6HudW2TM6BDn3c9qvD3tePt1Zv+bTg5/5mfdsF6779re92x7v5LdBAHrOw0lCzpJzXXOeaw+sI7tIsDQCVJ7PsbRHhG6Ls0PGQQXHJDpYy3To16486AeBOz15noco+ouHyABBdDqL7DgBCHLlyEFbAS8faUQS6nxs7E/HIp1sq0MWwB4CcfL0QbK2fkduotOfX0V2q2mdzMfcnfgQH7Kwnmw3Fv1Bc9MPsjUWOtKJqSsfuRljdcjPGIFstqXvtOu7Qs8n7bH1R2jBmDvZgVOdn5VyCyz1tpXMnBCfFAn252hOf9rnK9aBn8zTpTqIeNv/5OnUXjpB5mK0f+e3k98R8+SX40xnmc40ya9b3QhPPghW5KgdJy2d7QBpcW51kZ0U1pPDOr7GAvp3e4aQBGonGEEtgCsjEBAA5AU8EtBOHhCDk5rAn+QH5J7fITSERzfic2vq1KesLbtIzVta63yO+OSdBum1VuYc+TkBOskit8bXWIzfadJpE8maA5kx6R/oS+nLGxP9CNBYzRHSC8p05FuH5uQiZpwRn/1C1G51neB8NP3d73738F/+y385/Mf/+B+PPzzhG8tu4+kjP58gIUV7DXwgX+nxBV/pDoIv0NEvGeQT2tHhE+TS6k6+8zPbhel5+8lv84Od/DZM8stRwnSeiEb+IvJDeMnU14YjaiNg0kmfXg7MeYGDQ6cKzl5wCBrPi7pF0pdbXKSEgAT1DN4ZuAW7k5nTHhloQxcii25baxvpOFkKSuTXyYmefM8CG4PxIAon0Ygu4uuWV9n/gcFee2DuPfMzV7fNCIvNxqdsjOakb6TbeMmaU+OuLXnkHJpjbdKVsiVfv9qaj9Ov/YuojdVbVoRtzG5p/engf/pP/+n4t8D9LXHEJdUO8dFnp4tcxDd9JX/KL6wTnS6g+dhE/vq+90ldPH9jO73+2rbmt52NhcsCe7mT3wZB6KTWFVNaEF5znhOqyzkjup7zcdZJaNr3FjhHpleb2knVsdnb4vrm6IhAYIVuk9j09rTTSyQVkIIATl6KlJBF5EVeoMtXRjCzjNw8IjA3t8URg7oV5PpAEvSsdae9SX6A/JDqXHPkYN7mH9FGTlK2nXSNif1IV79SMA5jJ6t9421e0NpN4quOTLl2UvrkxuxiZT+QXZ+XIDUnVj844McQ/F2w21sXr/a3ueYnfEpe/SS+Uj5CXjt5vqMuPX5Gnv38+ER+Lq6fOLztbf9+W/vTflxW2MOd/DYIPI6Vo0RwEycHulYnn/NFXuU5YQ5Id5720pnQtvY5sTaCQT9IoO+2nBLcKvkZIzIP4buFE5gFasGMEJTXIEaWyMMJxilwkoRUeza99EiGPPQnQN1iRyQT7LAdibJPl9xaR3ad/jx7krrtRXDm26kF6SEL5OJky2ZzBOMxP3LlSXbS8pWNxdjcFpOZY+tUvrk2l5mf5WDtjLVbV6TXBQr5ebanrr+7NZdIKp+QWtOI7xzSBW0hfyolo5vfrP76sz+L/J48vOUt393Ib//UZSe/Df8U8qteytkisDAdlCNyaESYs06iA049kWw6sSBCeIAABZRbJM/BBN8MTlAukBFj5YI38kAE6p0CnZ56SUEHQdAhkyIYZInIQJtIZPbJZrei6pCn214vNKw1suvWVz74rx4RnPkW8C4eyILMB876R3BsS41LvyDfOMrrf5Jav0Sj7awLUybfnECeTbbrl5zMc07jdLvbC42IcN7iul2dF0yPWkCef4C9p9MaRIpTli9lB5RbM+sVpv+eyG8/+YH928lvQ8/8OHDOcs1hrpWnTMoJp/Nx3BwYkk35SoBknBbRSdXT5fCRn2dJCA8EFAf3AqGAhHnqCcrIbcoFLIKCAlswOxUhBgQzT1MgT+aZIgKJ2PTfGPTPJlKsT3VuS90enyM8SMaet6jmJtDBGnR6thae+yFjY2kOjVN/AYGTNb/mbmzZoFc9Epca72xDRzpl9ZdNcu3N0zi73ZUiQIQ3Sct+t//5gD2foDPXACI2fSjT0TYbbFd/EXzk/L73feDw2tf+1rbu+zO/nfw2rOQ3CS7HWWXSyGo67SS/6dirk3NafUpzXAEur55tZXK3foLJQ3Fyz5kEuOBEOjZSuRNNQUmOIKQzsOk66RXc6rRFWoLYM0REqG3kB+qRZOQ34bSH5BBMRKwtewg1opsE2C2wPTAmb5DNV9BbB3O11k5OSITMKUtf0G07MtRf84igmnPzJ3drrY0xI62Ir3nIk2WrNUqvfshKwVr1Isg+detr3JFXexvxhXN+QjcCDGzwO2t0jvzU8eF5ESfLZ8nf976f3sh/f9tr73by2zDJ7+QgF5PfLHPInDZwQo4pzynDOSfXJygLkEl+ER9020THyUXgF3QFIwI4R35kUijIBSqSKrADXYTS/8LGJhKJBNXre/YT2ENMCLL+EBpCZGeSX5jkh4ybtyC3tuZr7t5ug7y/WOk/SzJWp1Fjah2MEypPwpI6uTr5RXKT1MBcVvKTJ29N5aVT3hp4JGAOnQD500p++cH0i+kz0nPkB/wO1M/2XSjy4emn+S4ilnYxWuPgMsHe7eS3YSW/nKd0OlDg4DkscMLyU5Zz5qjVKXfykyfj0IH9CFB/UsTXyUqwzSBEUCspzQCVFqQFenUFfwSHtBCEvuQjP/rqIdvZ6VTYGNhEaEhUfiW+EPk5IXYBEMidcpCeN75OU07A1pxNhIdU9Wt8jaMxgXEgsvLG4fSnLD/Jz7izo0w/e60LeTLIphTomDOCRjTI2hzsXfOaPpMfnMvTQ3baWZfIL39YbdHLN6ev1r/8ifzeu5/8Nti/nfw2RH4cZCU/zjOdKXC2HA8mySlLp6zyiuTaID2OzlmDvum4XRPsa2CCgJ2EtAal/GxHP5BPO+mztxJf9ubJqjZk9KcNpz63gtZ3kh3M/PqBs7U19z518cyzkxSZHxxAMsa43uI2z4DcylcfJvkZ97QF5aWt77StXWltlBGzE6D9bA+lESASs8/QnpPlS/lLBBjJ0c0Xp36kWJ389NVTuf8h7rc3X/rotu63n42FywJ7tZPfhkl+HCgnugiciRPnfBOc9qJ8hKcvyMnVFxCzb/2o8xYUsfQLxAUrCMwISuAll5/BWqDOdtJslZ7TzUaYZFAf2mQzHYQNkVyw3hDxmZtfcu7ZXrf5EV9vUOXJkIBbbBcDbY1Fn5PMlOf8jUtZ3Tmoo9MclDsJTrBVm/JSY9A2GQL0WZB9tZf5VQQYWbXnUnudj4TpN+rpsYEQ8x+yfCa/Kd+FHPlJf/7nP3n1be/+qctOfhsEooftnCMnhRwo+TyZCMBIjSN2dc4hc+SZD5FfBKgtBy4g9KcvZSeInmkVdAK8gHZacesnLdgFIRTspepmvkAtZU999sv7TCU7oC/EMG3Menmk5DbdLWqnPoj4Ij+fuHgOZx3MGfH5yxWnPITXZyOB3Lp4M+zZlbnPU5m+JwGG5jYvIOS1q77xK7OdvDVVrp08W+lal6nvMQC/Qujtq7F3+uuEK1We/jHTfCpfmb4mjfyuEd01f13lP//zT20nZ9/57b/nt5PfBoHom7kIKOfJYSdy3pXoOGT5WTedlw7STA50OX79BXK3gojPRkGBPANbsHW7NmVTf83TnWQpZVMqiAVtpx4pcoqAofbqpMinvHo23Za6PXXri+Qiv05/4PtKdulZ157vucWdpDdJ0OkPOdoL6+f5mmeTzUP/xoMYOx2qay5I2fibO7l85WknvcqgPnIkl6c37c72Xsj4RtH8kBDkQ/zNXs+TnDlFeuXzqZA/yWuXnXy0/CS9efLbf89vJ7+ngfzWXxKOhK45z0mmnh7H45w5YU458zB1tKttdfICYdqXOjF46TCDscAqSAVepDXlBWmY9VKBGikUyFJlpOHP0RAKuTEgGASo3DgQDOLq1lM+AmBHu3PkNwkQ+SEHAW7+iC+im4Qn7fZX6vSHAH3obT29/W0d9G9Mbrdd0MzD6UwdOVKO2I1zEhaQmZv62k205q1DNiL+9MjosWU9I79OgQjLvss/G/nlI+ph+lbyH4z8Kv/adlH4+W0f9v/DYye/DZFfD58joBxJGTgph52OygEncsyJnJT99eSnzHanHgFN7nZxPZ3BDLDkBTJEApVBvSBkT1ACkkMQ/bpLQU0HQRS8yr75Q2bTrvrIBCJCOvpy6kJ+TpF91zc/d7Hu+kUM1tT8EdtKeJHglFdnveyRlyrG0zyRsPH6eS+nLnOMEI2pucBKWubc/KSV06mcfvnqtWssdMn0h9AicG+uERFfy8f4h33PN2Y6/SsCnMiHVrI7veC4vuxXXe6/36dH52PhssC+7OS3IfLLubolifDkwSmDo9HjlNMxc8rk1ZFXJ9V+6uqrXwUR1E41AtTppOCBGWQrBFs6FwWmIGcTOZAJSA/k+0l5OrO9vj0fk+9UR9bzMnI23SZHfOyTk3lW6fTqExZrjPAmCTr1Icb+v4yLbnUjDB8MV9cHxOAEyEYnVWMCa+KZo6A3T+NwEkSI5mue9DutGrey+fUcj07zVU5G1zqCOsgeGXvK1YEx+NNEP35gXhF36KKYb6zEN30o36kO+Oq0B5HhTBFtF6Q1Di4T7OFOfhsiPw7F6TgTZ0R2yKnbVY4X6J5zzuTVRZbpKGdTGal2u+dE4E/YkF8BVVCeC7xkBZ26dICN8jDtSJ3YnIYEZqe2QKcXHWwrI0NobGzQFewTyMWtsjmyL9C69S3otPVM0xp06ov0ZjrJrvKsR5oC2u2zviM+YxTk7Z035tbV7bv6xr+SH3m3u2wEdfSkEOnPi0E2apsuHadTc+yTHfPxRhspIa78IX+Z5Df9LKyy7lSgfGR3Pfk5+b1w24fzsXBZYI928tswT36TuIBDhnNOGNSfk4M6zo30oNMkmQ93Ed4MCEGLeAqoIDClghAEoFtSgR/5pbditpcWnIjKLXAEV/Cy37MxeXWCOGLIVuRQW+SDYJz6zBPpIL2e88kD0kGQdJA+YkBokeDEJL/S9OWtoRNs69JYzcnjg/amH0Rt7I23tVNuPuTNC9ilVx/G32k4e9Nu7Voj/SK25ugnsOz59Av1xiotP30oKOeLpZ38IrowSfFU99jh0Uc/t+3FnWdj4bLAvuzktyHy41jnCG46Yuk5TOcM7JEJ8sARpQhQIPi1FicCcFsmuASvICqoQEAiJPXkTmuerSE/ulCAqi/wZlBOe/JsTvm0wz5b8slh2gd9ALnbT6c9cxeQCA6RW2PoRQcycBKzFkgAKYRIL0R4E+mpQ55us43THCZJW68ubG6D5wm3+dCxDmStQeSXLtvptQbSaWe2V98aJ3PS7ZRrz534jQsB8oXuCCYZ5kerb03yA+3nKW/F6X9uU+d/b/uft73Y3/bu5LdBUArS6VQTXYk55nTICY5Z/bQhH/khA+CkEaEg9uu+AlkdIitwC5wIDLE4qQmsdJw+BKR6aScSwap+kl8kpgzsdLpLRq/AlgJZ5fogo19b42Hfqc8Jy1oINg/6tbHGSE+KDN1yIz/P+9bT3kqAk/yqmzrID8HpJ+KDCNmpUL1TYARp/M3BGiDFOX9ofsnoOG2TA/vq9ZtefbIprR9ye8cXer7plJ9vIS/7n18gP7qRmzx0OzzBz6y39s9GftL3ve+JbS327/zsyU5+GwTketubU0GOx0mlyacu+UqOs44zc2rEB5wdPLAXCFKnPsQSsYWCTfB5cykAkwuwCChimoFHrl458ssuWYFLjyxdKdSm9mzrY+poZ2y94TVfgSjYrAlCNCd/zQH0vYBwayxYnfwitBCxrahupm57/YWIcSGZ0JysWSdk4yYLrdt6Ipzr0RrSM//a6UOePLvkrVPrUx09fub0Z8yI3/oA34j8+AXZ9CF561q+uvIR6Ingrt3qQoRI/t73PrmN4X/afH4/+e3ktyHyy9H6zmp1sOrLdxWWRnAR5KynX33kl9NzSm97Oa4AFSw2pkCawSPv9CCIBbpyJxkoCFcbBaO66td09jWhrVT7bOgn6IPML8GYu7/QAAEnmM3V7SY7/prDqU/eCwD65u/khsScAEF+xSTASA+coqwfInUybi2aO4LSn9vsPuGZ66OebF5QaqdMNyLN7mwrbY2SKwN9cuumTN8eW5fWplOe/Y/8uoDynTB9cPrflGmX3YgPIj917373z27+8/bDDTfcdDYWLgvs005+G5CfE0uOxqkmklUPkyBzvK7WId1VRxoZcnrO6ns0wWlTBAwUPIK6k4lglBfMUoFFnm6BXZqcPjsIS51g1DYSrU02qpdGdHSldJJrh4wRHhJzgnWqcbpxsgFz9EyOnpcrPny23gUq8prP/SLBSC5CXMmPXH+C2+cuLgzNpXlEWM3NOpgXOTJyIu2TntZKPmhH7yICnOVZP9fRukn1ZY+NtZNehDcvnPnO9KHpS1NnreNf8yIbEZKpe9e7fBa0/7+99mgnvw0ewvfMb5JeyLnO5TniRE450+qmc8tz+oJA/xHRDFxB47atN7KCUJ0ADpFTefVQQLIXYaqPuJCh52DeLsuD4HQKqlwfBTE77EH9eqPruRwCQ3wBqSEmsBbmiASlLh5IMfKnH8lFfmxO8psgQ7bI1RraD/MwzmCM1qC1MP6+a0xOBuZBpk3tlcEaTvLTLtvJQDm92mZPG3XW0qdFxhwxgXXgFyus2wRZflR51uVn7OmjtDbW6SUvefH+nd+2Nzv5bUB+gpIDcY7Q6S7HKp+eNGdLp/rK6tORkgGnnFd+BDIDDgQRGfLzSQvimYEmoARTp7rISiALunTpsUMG6TiJOXF6XtYPmLot8zwO1OsTOWivnT6mLUTpWWVvXXueJUV+AluQO3VYT6cea2cNWhOnEifH9fS3nvwm+msY68gOe06Uxma8xmreERUgR2M1N3J62pizNU7fnCPD2reWXXyqTyZdy6X0qwPrbD2szXxEQJZ/wEU+Zb753FoX1LOX7yV/17veuZGf7/x28tvJb8MNN9xw/DyDo3AiwQmCNaea8pztonzlnDDHqxzxdfUnRzQFx4TAE8hQEBZI0ghp3gYLTCQABbS29EFenRNQP+hgHN4+AlLp1CaAPLNDHPqATkqASMzFs7duednQ1vwQWylb5t9FwDpFfo0BGbCBSJEhu1JAeOttdaca9vrpL+OyDq1BMn9Kp63ng+aB+CNrez3f5IbW37pNEmttEdw58gO3uclrS2afXATMBZG7cEwih4grn4R8KCSr/hyu1Z98993v/uC2Dl/dLvjPPRsLlwX2Yie/DcjPA/h/Lvmt8mTaFZhklQXsJD+6iEigrIiobFbBNdPIT+B24on8pNqv5KesXju3oMaCAOYzNUA8yAFJILmVZMGJFNEhp4ipE58AhnPk1zpFfiESZgvZTeJDiBFf5GfsrbHTu7GZm7G1Bp3kzNUpkr71Np7+YyjE45bfus6/Ypnk11om/+eSn7FYU/PSt2/+zGeSn7W4iPzKz/Qc8sFT+eSjP/mTjx/e/OZ/c9j/97ad/I5AfoL4HIHNfM43HZJ83h6vgc2RZ7kTDsJAEgLYM6ACLAiWAiYUVPIFFQhEEFS1S7bamHVIQcCbu3Eam1OR22AvJMwLiRmj1Bw9M/P8sdOUz1i0RVidoiIm80R8nWJau9L6jBzlrYvTn/ZgjdhGfogLIXcbLI102XCKNR9zNDZj7AULsjNWpOOUby3M07zsjZO3NSG3tq1j5RXJI77S8ivogzwdp+mI3VxcbMw7Amyd8h3I/1ZZ+emDq546+Mmf/Mh2EfjH/VOXbS928tuA/AQI5zjnYIFTClJpOjkVKM+2BXg25RGCgO5k4zTjxGIzZsCVL6Bm4FQOTjgCV5os4sse1C45fXCiQ8BuCxGhZ2CeARoXMkSCAhOpmQOSQSDWzInZ3CIq5GdOzU0bbZGMU9qEtSAHebJIb5bZRBLIDhCFW0WQRx4I0tg8TzN35IfQzAnRmJfxmldEh8jVme+5NWz957qv69malof0paCebWkyJ2nrZezm5kcPrJk5u1jkM/nSOaiP6KZu5evlk/z+fie/bS928tuA/DgjJ8mZVjKTzls4snRmPn1l+emc2gt0Tl7QShFPn1tEWvKwBlWy6gVrt3UFK6w2SkN19LRHCG6dnUCdlpAIYkMQ1gaxOHUZMzJyQvHyABGao3lF6vT8eomAbp6d0JBUQIyzjCQ79VlnfShHfOupr/WrrB3CthbmgaDthedr/rQMnACdDt2+S3tUYB3koXW0PtbcrWprb72rTzbLrS/UTr0xJevWlz9YJxcJt77mgfTJ86v8aYJv5V/z4lp95VV+wk9t+/v6w3Oec/qPoy4r7NtOfhu8+fK2zwlnklV5DobwXJU7wZBFeDlj+fmskA26HJoNQc7hnVoiEw/qC5IZRBGhYJnyIIAEc7eh6snWAJ3BW/BVD/L1Q89J0O0hMkFATkcI2ryN23Mq40biCA0iMmkEOAlKfhLVlFcuD9lGfLNdqP1M6Tuptia9zEF+3a5bU2uF/DrlIX3E2ImwdVE3oS6ibG2rm2tcXZg62faxt9OoCwl/8EMH5sG/JqHB6mOV1fGrqZ9eZajNqfyubX+fv3/nt+3HTn4bkJ+AESQRnnSSnyDqNu1fQn7IwVUeiQhsJOGEIkhmUEm/H/kJRKTtTWzkR4YAp60ZmPJQPZBPPeRn/E4kTl5IxInKHAQo8jP+CMk8BHHkJ4+81pOatpOwslFZSgbZrV02wmxTivysfWvimZ59Q+Rud3seaI0iP2tM38sQzwTnushHXPAvIT8yOtn21y7I2AWGP3z4wx8+zuG/P/n9+LYOL9o/ddn2ZCe/q+DQApyDcCZEJXCkbsEQX+RHPh1qptNJySJQToo0u8URwMiBnttOQWIMBdYMFFgDTiCup7zaqIs46ReYoL72yaovdSJxC4t8jNcamJP5k03CUYZOsc1LPr0VEdzUKU/udjmd3saqm6RXvbz+EZ8xW2ukgujctttTJzoEh/BaF2tHpw+O/XmjEyC5VB079qb1tG5gjdiw9sgwmbL2rXHy1lW5fVJm04VP/170AP+y3vxi9aFQHTldfiWtbvpgetfsvHu70Psx09OvaV9W2Iud/K7CbYgH4k5/iArBcUqOFfFFfjnndMTpmDkeZ8vxtGHPyUgwC2RXfQFaUAioiKwAkgqUZLOOrnStTz5tFXyCEzrBkK3k5wWAcUZsSMVYO9mRRUQrKUVkEVSyWY64al+5uggvpDv7pCuN+IzLGK03skNayMsJUL5PgTrtKXsZYk/My21xFxL6Tr/uBuTJWiuwntJJiq27cvXKrb08++kmd9rkH/wMVv/KF6Wrj5mrOn4pVVa34tQue48d3vjGbxxuuunus3FwWWAfdvK7Cn/f62TQc6KcMcKbKSfjfJxpXmHDReTHHiJxMgJ6+kQ6Bc8MMiQlmAQJzKCpTE9+Bl462VGXjqAX0IiAfnVgHOAiMMfZLazU6cRtrXIktIJ8klbySXDpgfLESn50GgsCLI34kJfbc3tjrZ1crV1EJ+1xAJi/lzgIpTk56bVu6YfWMaxrLK08U2sLdLKpXHtr7UTKD4w9f+sUF7mRR27k0+/I+SUd9dMPgR59eel73vP4dov/vf1t77YnO/ldBfITFJ795HBOBRwr5yLvCjydq2d8lXO06axupXNuYMtpYwaLDYmQBKmH8IioAJOmkywYuwDLXqBXsM22s32kJ0+PLc/JkFynPyThFjjSi7Qitkgt0puyUm2mDIF1mqstqEu3vDE43QFiBnnE18k0AvCNYic+iOgBybnA0UV67YM1t37S1qE1I2+9klkvumxLyWrTmpJNOTSO5Nobb+QHkV9+xHfOERvZvDuR8s+pO8nv3e/+ic1XP7Sd/Pye305+O/ldBYd1GvC2UEBwqpBjcUqOmFPNNAcLypP8OGXODew4oRQgIIgKQidCz4PoCBbjm3rSAg06Jaor0NKZ5QJcOZvVZ1dqLRCgkxXiQz7ztLcSmTQCSzbrQZtJapFfeunSiRT1iYQn4SkbFzKWKiNB+2Rd7aFnfZ7nASLsJOikpd4eec7nAoMQW5vWp3WRWlf5CC3ykjrNtX6hPZFnK31laTKpcXmbnl+40PK/6U/5kfz0O3JtzDsf1dYaRJj536n9u7a+3r/51Z9t5Lf/mOlOflfB6X1ywkk4UASI8CJBDqWe483T3jXnup786FdGfjkoqPe8p2CYqYAQpL61Q0IFmLqpR9apjQzMI72CdgYiW+QFaLYgAiVXdurs9IeEJpGFZJEXTAKUj8witJkCvcrd0koBwTmhWTunO2TXeKBTqXFGfhEEItHWM0wnLPPzHLC319bYydAamLO5Wx96ZK2dtWj91bWGYL1bS6jN3Jf064cOO603v+siu5Lf6lvmlv+Za4Q5fYvPdqHOZxHh6TOglx9uueWuzef3t707+W3w2r/bIc6S8wDS4ozy6xW4IMu5kueo02kn+Un7JCNSCgWgZ3MeutNxCpwBSK9ywVR7bdfneYIwPfJsyEeWyhEEGVJw8kQ2EdR8C6sc6ZVGeskQWmlEF1bySy8gNYTW7axnesqILuKrvTy50x8iKODthT21hubUHF10epNrvq2lvLVO1roo2w8XA0QlbR3B2mYD5nrrd+4HGV3yZG67+US39fL8KR+bfhTIIz/607e6WEeA2nuRZ+z33HP3pf/GD+zBTn4b+vO2rqYTnBBx5UTT+aBywcbGlFfHETlnDuqWUkAJEgEAgkGgdfqwQQIHCaoroAq0WRZM2gl0wV179VAf5OkKfraNQ9BDcuTgOzmkgpgQ20XkB/O0V4rEJlHN/Ep+2amdEx/iK5CRQu1XO/WDMOlZY/vlbW7EZy06jc01g9bI/PmBNVFvvdSTW1PP5viCW2ky9e2BfOsd+Slbb+tp/yK7bEvBCd8J1RzMxe298fOd6Utrno61yafWVJ3x8km31t5e33LLzWdj4LLBuu/kt6EfM+1qm4NBJ7ocLihHeJWlk/xK2chJpRxTfwWejZAWSAgPkpeCoFkDCZxcnSCQqjF4zlXgynt26PmWwPV5jVtBQedkJEC084mIfgWsvHEKRsQWeUVUZPJSoKcM6SJO6NYUJmFNm7WDSMxpz2nOiQ8ZZkN+loEOaIc8nADN1RpERBFfa9pFxp8Wkjnp9lG3tSWzHtYCKfb3zogEsSJE9unWT7aSdTGpL6m9o5O+fTNPc+o/NXe3wXdCvjQvsvOiGtlJe0xArt5YXeBO/4vebYebb75n/85v2/+d/Db0M/Yr+cnnbJXDdMSpv+alkV8OCYKoIIjA5EHQQOXqpOTa1SZwbs8HObqgd3ITuGSC1fMeJNfzJKc6eoIDYRinU1L2EKZxCkQE1VvV9QVIKdl8+UA34lIXYaUfzpXZicSks0/ptFeZDn1jRnzgb48RzzztQXkEBeqlLhD2zO2hMh1r6MRkPazPhDXvQjQJbdonl7an6QV969damV+nX+PnN/Zq+lNl5Cd1+rOnkI9pm6/Zc6SOePn5vfe+fbv4/eVGgPvb3p38NnAKZMCRLiKwFeQrMU7ZlHNAjug2DjimU1jBYiPCDJxZlpJxYgE0gwzI3K45pTiROAkKXCcWxG5uTgQCQ6AgQ6dP5GdM5t/tHghudZNUBFeERo58pEDm1MRW/UjJENhsM4lrzdOhD/oCMvXnyC/Q0TfCMG5rjCBcBLoNtX7Qmk9SREzm7xRm/Vp/JzXr6ARt7elrP9tmV37uSeWpC9q3f1Jrba260DhJW3N7Zj5dlKdPeYYn5W/0wLznRVaeHPk973mRnx95+M5Ofts+7OS3oZMfx8qpVmcrH2Z5Xp3XNhyXI3Jmt3Su7ALarWcB0alAecpmoMwAEpAziNOb9chQnp58t28C22moU4iARxDdHqt30pEiD+NHlAgToQnOblvlu3UtjaAirwi/UxwShPIRXaQX4U1d5MbutD/LEaA+Wv8Iw62qdXHL13pZE/NXlrderbd1QEaRWevERvvgVrX9SN7a14ZNeXrpspM99snU0TNez1TNyZ8/mreLJt/Kv0r5KHT6I9ce0XW6DwjRJz333//S498T33ffO7eT7d9v5Lf/mOlOfhv+e5OfKzFnRhhuaQR6J7+CpeCbMqnAKuiq+37k54RS8AYypCaway8I3bqRS9VBec++nAjdopvjD0p+ELEhsvnsztyhvBSQV20ivnRXslOWD8qgD+tt/Uud5KxL5Ne8ra98t7XmbF3M26MCJAhO0C4Q9NmJzNoPmGvPJt1z5EduH6TGUL06ftdzTyc/a/DPIT+YxAf28YEHXn5cg7vvftN2m/2lzef3n7HfyW/DJD+ExakiL/mgnI70IkwbnFHwu6qD4OXcbjk5fqeAGRAFUijACrJ565uMrfLsZUOabPYjL2VL4HcapBtRRApOOm6dkN8kHoEakOEsR1Ly6RbclbMTsU2ZfDbXtPyENvpz+9gJSOp5p3mZgzmZL8Ijc+Lt/2u2H56BInv7FtGAZ4eey2lnTa2dlL3WHeb6SqeOPEIEdhqD9VaPpPmJeSB+a20OSG2OBaZ/VZbSg0iwdSBzsTUuvr5/6rKT39O4iPzW8pRJJ2YdcFqOB04kjz322JH0EABwxkl+M6BAfhIYXZhEJp++OmltZgCSRZjTbsEqENUXmGTKbpMRBF3k5wSLYJAVICHBWn6SU3VkPcSfn7KU0mtNYLZXH5JFjOWrMwanR+RnzZ14nH566YHQW2/zA48ePBdzu9xJyRyREJDZe6RoLVrPdf1L1U0kb9/aa6m1Zo9cvdvz+VwY+SEvPnWO/GYaIj++10nQWkjNQZ833XTjTn4b7M9OfhsiP44TeU0HW2U52pTleMk4X7cdbt38XpvgdvpzZfdMjdMLhjVQCigokMiSpx+0CdULMASW/fLq2SFThsgO8XUKBAHvROKliVsnxIJgIsAISB4JmV/kFGn1WUxpFwBlWHUisxApktdXaSdLMC63ip2YIj97YvwC31xbQ+sT+dkPcJEyR0CCtXfb7yLQek20B9mdeyQf2dJNpp5MHZl98+lRYzYmRIi0ps9B/mVclavLB6uLBK2H/XP7fuONl/svO4J138lvA/Lr9mee+iBnm/JVh4NxWM67OiWZwPQQuyB2ayUAIrpQuSAqb6NKBZGgKZiqC7PNqt9JA2ZASpFdBJk+MnQ76GSEaKBncaWRYSQUmYUIb5bLtx4QyU3ZrKMvXz+zPzAG5BVpIY4CX+oE6LtG87JG5hjB23v6nqNF9i5Ovn10CrOPTmbWQzto3c+tvz6srzrPDdnrTXpt6EjBvrNv3JGf1LjzsXwqnJNXzgdLrcE73vH2bU4PbCfgezf4Pb/9Z+x38tswyW862DmkIw3fj/yQRycVpwqOfo7oBMQaSAVMKPimrPYFE1n5wPYMWuUCUOrEJ7jlBS4gB7dLbgEjuU5XghPRIAcy9Z0GEVXPOCO7iK38Sn7KUzbTqb/mA12EbH0jD0HfKdAeuei4fXfKQm7Ww3wRlJcc4IUHQpT63k9780SeXn60T6G1nBcWdiM/a9rb9Na/NQ9sRn6d+qTGfM7vzqXlJ/JF83/Xu37s8OCDr9r2+d3bGvzt/qnLtgc7+W1Afk44HCVHcrrrjdp0rBwqXekkvxy2dmQCEoE4mWjvRUJ/CWATpAJgBkeBJK8OWSoLqoKOvDop3QJavjQ7Bdu0HbrdLXCdAsn6wc8+VxGY5uY2Smq+ZObmJBgBzhPfJKjy5MpBedVNv7R260myMnI2RuTcCRB5GX/7Y/19uuNW1q2wZ4G33HLLcT+sg3kjOXNHkObJlpMhUrTWraW1so5StlrL1lBeivis7dy79Co7cRqjtZzkt/rf9DvpxKyHfNUa+EUXJ98XvvAnttv9v97Jb1v/nfw2PBv5Vc6xJqa826wcrjoBWDBK2UR+8+RnI6TngqK63lZWTicCrL3gBXor6IN8tpML3m57yzu1IAAvZ/qzLicnQYQInFY8N3M6FKxIvlNgz/4iqWcjs/IT5whv5rMb+Tllqu/2F1lHgMhE3hiV7ZW9QexOZdbv5ptvfvqCFHmZvxOguXsm7GTYOrdurX3rOpG8i8kkP/n5HDLymwTIn/KvedGF/HL1zfSk5U+k/+PHfXvRi96z7ed39+/8tv3ZyW/D9yO/HGt1tvKlq4Ny3py5W5p5+xRmsECBUmBBJz8gF6DapFM50qq8gnytSwaCkQ15Y3BicQpyeukEo54eOSAF8xVkSAf5uAVFghFgRAaTCCMxZbpTL0Ru2Yn0StX1X2WygQCdQnsGOMkvYlFGgqdv4B44rqETYG+FrYu1RYjmbI4+Ajdvda3Tuk/tDx357EjpWldybTst6m995geT/GD6V764ItKbF2I2/ZAp8rvvvjds83hy83k/a3U+Hi4DrPtOfhuQn9PLOWdCgjmc/HobUj6nS8b5kEGOXOAhP4QhIAoaGwGRD/ISHIIi0iOHgktaXluBVCBqr5ztAlaZTkFYHdT3KoOCHMonp+d0aN7IBKl0i98pECGFSO9c6rQoXzmyW6EO6cmvzxXZkKfTbXBrH7nYl0imt8NOsObVCRusvXLfPc41sL5eYiBEa1EbsIatkXzy2rXGUnuiD88hGyfI86H8Szr9a8pXv0wP2DBXdV683Hzz5X7REaz9Tn4bOvnlSDlVDhTIgjInm/lQeT5vAsSA/JBT5BVBgYBxynDCEhyCQgAKHHozpS+YCiCBJtVGnh020p165KBcHtKRpzcxA7+8QFaH/MwX+QlcpOfkBQhofp7S6Q45lQ+RY4jQpqxydatO5Cft9rfb8b7dsy9zb+TtCwKyBj0DbO2sCcibbyTWOlRPvzbVy2dD2YVPXfagk5+xulggbL4yyS9MHwwXkV8+aM7uYhC12/tzMXDZYN138tswyS8HCjlSdVOnuonV8bqKg7y3yoKH80/SAYElMAqQgoucXkFW2wJPwElr3y1qwTfbzv4mMUI68vVbnTxZ4zKHTqjIr5OuoHXLi+gEMvKLAKVICUkhupkvnYjUVtkku1C9fpQRby+aEJ++uw22F538Ts/DTnvm0xa3t+aHkMzbepm7dbFelekka81aPzouPtYn/WyRQWUpG/zCuM3NPBAg/5m+tfpghHfugi1vXi5I5tgPV9x44/kYuGyw7jv5bUB+5z51mY60ojooeJIrQ7e9Ai2cfk332nOfTmgFjqBDMK7SArHPJAqkSVjzlkzZixQvJ/QhL0ChIJMG5RmsUjK2wBiTp2O8wKbxGLuxIr9OfU4vyA+xIT+I+Dr5gXooXxqRRWKRQTqTEKe9ZJFtJz6E1ylUHqmAOvuBtJ2KEF9EYQ3nOplv6zXlyaTJ2gsXMGQTUYK9pd+Fw9pppw0/+eQnP3mcpw/izWUSc/7VKS/kj6teefNDovxbn7fdhnjfcLjhhst9ArRHO/lt+O9Bfj1rcdLwXKlg81ZvBpVAkI9kCg4vRbxphH5tRSqoIsJ5S1zAea7j71A7/bmVY0t9gdlJpHaRcTJgv3zlxitog7KxCTBzddKK/CKi8s9GfmEltspBOVntg3KEaxwRcTInQARYnfEiGHvmxYdPYOyh57/WDLk339bDGk0kUz91tNHe2oa5jkBWGxeOp5566rhOfRCPEP9bkB9Sf+Mb33Ds8/nP93uF+9tee7ST34aV/KScKYeajlaac+V46VbH4TivYCvwObjTHBLi9Jy/AArK5AWd0wMCc1sO8k6D6tMt8OQRY7fNiNAYnGTY9pNGUnV05QVEp8Rph+2J+qFXUCurMx5BhuCdqrrtneRU+Rxxya/EqBxx1i75JMTq6SI4fTvlGYe1p5+t6rsVVt9Fydo6MUudBH0G42LTqXsSYFjXKEKTVy+/rqt9k+cD0Doi4ieffPI4Ji9wvL1G0NY1v1r9MOSLQX1+WHtvet0p3HffOw6PPPJXG/nt3/nt5LdhJT/EJSCk09lyqhwrrFddZW2RnYDjzAKVMzuVdQLj9AVKmMRYisx8jiEYkaFgFEQCC7JBX5AWhE6NghkJqqtfOiDPFnJktzHQBf1Ku13LPttgDOROSU5NAhjp9IwNSTnBRFDWYL6gUI7U6CunHxmWr/1Mk0duSM96d4trHHSBTuSnjo688Ro3wvMNo5O5k58XEIjPnK2ndQLztm5SdaXpzbI8WXs1ZWxkR8pnnnjiieO4rInTn7Hxo/xrptMXI8DyycmQXy87vMi57753bcT+vf3kt635Tn4bkJ/bnpyrZ3WT/FYkpx8qczg23O4K5r4/49iCKzKxAQip29fkoDzrCipp5DWDii3pLAtWpzLkVBDOgNSP1GlyBjrbTqhIkX5jYbN2QFeqHx8Cm3PP2RCNOUdykda5N7iTyNJXnnVk2Qnk0KkOKltrqb5AW2WE2OlUHpwEjd1H3G7hXaCkPY8Fa2Ke5mxNWktQX1596z/3RF2y2tSOzPo1775dNK7ID/hV+fztIqjX1uMIZG78/q+aO+54cPOHD2z5O87GwmWBNd/JbwPy86lDzsVhQHk603S49Qo7dbRDnoIs4uPUghmhrOS3klzBIjjoqStoQFDOQCydmLKI0ulOPrv6k9IhYxMJug22HubIjjbpN+Y5Bzpuq6yBEzMCRC7IxtwjNJjEV766ELnNPN0pn3URXnXK8vVRP2T2BKkg6FIE6EJl71wIzN86WC9rbX4Q4ZWXtnYRGViT1skaVZ986mcD4SJg83DLa6x9gxjhRXr5WGWptZ/1iK+7F0TuxZj/onX/OasT7MNOfhs6+eVQUuBEEVzkNsvnTn+1R36CCvkViFJOHpkJAMExIag4q1vVTmOCCDG5dZmnkQKwcsElmKqTIq/ytdcXuzMA9UFX0HsM4DRCHgGw3TgL7PozZoTZidctPmJBRshHag3COeKrbJ0QWPnkk0zJZ93M11Z5gtyYEOBMwXjtGT+wztahi4x8qXVovcq3/rOsvj1uLyqrK62NW26PSebzSOtoPfPHSXad6iqvqXbmY088vvB9H/Lz37Sei4HLBnuxk98G5OeWJ8LLic4R3sQkP6l2EPlxYLcwAlOwOw0JrJV0IhUBIeCcPpwQEQoCJEOGbpl7NqdNgROpdVrp5DJJT8q+IJZGYvoP9KVuk62HcWjHFsjrNzQO9vSJOJw2PEMTuE6AEVZkVBohgvWZ9Z3cppyMLXlQR1ab2b71Trd67RHeJL+AdHrB4Hmf9bQeYZJf6yU/16QLTfXWRb226ZGBfDa0sd7Iz9qBtVNGYohukh9EfvlccqDbqc9LHPvklnc/+V2D9d/JbwPH8OdN05Emqa1IPm995afzIT/BJBA95wIyJJLjc/pIBSEKCldpz9uMh+P2X1Gy6TRGP9Ip2LzYoC+A6LjaO0momwRX8JFlY6KgRGTssasdMmSvcrayLW/cyE/Qmre0FyCev0VIkdQkpXlSm2VtQuVITT69kK762Vd1yM/YLiI/MGYvbzr92Rvr3AVkQn3zBzpIU10yOmStbbB2ZKDe2rlgrOSH4JBYBJi/yUeM+W0g42tedNgzLzr4ONx220u3Mf3EdgK89WwsXBbYg538NrgiOjH5Cn51snM4R4or+bnycmaB5TbGqY8OR7fwgmYGS2SUDOE4+XmWhogEByIkL+C0o+tW2tj13S0n3exKZ0CSdZqrLBWISIw9BGxNCs5OofoGcu0aCx3E23O0TlIgb/7ICgkho3kym4Q1yUo629TuIgJML1vlkV4vRCJnY5qkl0yKdPyKizfsrV1zrozUIkV1ZNbLKa81spbWjE7rGyrT0w8fsned/uQRGF+K0OTzMbKIsTLke/JO7i6qbnVvuOE5R/K77z6/ZvOv97e92/rv5HcVvoHqoX23E/IcK4KbiOymTDlnZYMTd/XmkNo4USCNGUgFViTEYXsBolwguYojP8FUEAk2xNQ3avoCMm2hE0r9SBGcoEuHHIG5ve6hP5Crb8zaNmbybGrr5IlckF+EH8EgFfneyEZMExFbZAYILVKTpietbhJdNtIh16exgHEE45nlCeRjPZFX+wQRXqfCbofN33pFdGT2S/t5calt66bsVO0Ul7/oW55sklp5yNciP/5H3rO+nteeiO9EftJ7792/8wP7sZPfVXgg3Oml5yWcCpDWSnbKk/RyypxUygk5MXvZ9DyJ00PBJFUWJAHxRTjAkQVawTXlBZ9Ac2JD4sr00pXSZZM+gutkB2QIE/khWu0RdUEqNc5S45gy7QWxOSM/t7oIEPH1AH+eghFSpBZRRVqTyKSRWOQ3UfvaeLzgOeuUIVvjMQbE1mkv8kPYkTR0y26Prac5ml/rH9Z1KB+0IW8fyDoNyrfuTunWLeLrBOgixmekk/zySzJ1+aWydgjQhc0bXqc9pHfjjScS3E9+J9iPnfyugmN4NuLq7RaSI3E86SS58pHfdMScE7Tl0Dky8lPumyskVEBETmsaEQZyqDzbI0uYQZidCXVIz6mELj0yJ0qyCJHMWgh4esaMEKXaSIEe0Os36ZBMp74IL6irHiHBvLWN0KST/JKTrXKEN+srZxeQbeOJ+CbZKTe2ZPbQidqaBGsw103Z3Fsna6cO2p/kUnraaEsm75GG/vXJX6Qr+UWA+VtQn891kXUC5x98+kR8JwL0eOe22162jeG9W/m2s3FwWWBvdvK7ipzD7a8TTOQl5WScSzrJLwdUzgEDZ+XAnSK6snuWxOEngQWBIiDC1EmWbvICMd2CroBLH5CjAO5ZFn06SKwH/I1BvVMKfYEqjyALfrrykaC8E2fkBxFKxIfwIsBkdHohgrDmiW0lOejl0Spb28kjPM/7LiK/ToHSxmqMUjL76NbX2rgQ9NihNTdvcjJp6xesL12EpywPXTCss3X1owrWwBj4Sj7TC42LyC+/60KNOOk5wc9PWyb5nfP9ywjxsJPfVXAOcPrjkAgQwQnmnC8iPEd+5YFD9gynqzg7UqdKtz0RkgAIAqRUXYRWfW3Ialsgkgk+gTb1Zzt5cwNtQN54pNkCwdmJBiI4evUT+dFlw6nWfJFHiORCciQT0Uzd+QIjckNmk9zmSW/qlUd2veRAKqX1EdF18osMQd4ckJ8LFmJC6p6ReiTgYtA6dVEgm+RnrauzThHdXFugh1j148Nm89J/t758CLHle11Yp88pq8u/nCLtS4QXEF9keM7/Lxus/U5+VzGdRMpZ3cYhOc7HQSPCnG+S3sxz2MgvcGYBxZ5AYb+AKA8FVoR1EfnRE2yT/Dg9Epq6taUTUVUv79QieBuHlM0Ir3wBK6ADeeNADOY9SU7aaW899U3yE/ACFxBQhAXIMHKTn2Ukh/CkE9qvfdT/TCO7YH/sk3FIkSBycRuJ2H17aX1bR6k1sBbJ7QGZPUZs6tqj9qK1tAdsmsPHPvaxw8c//vEjaecvfM6adrKL/GCSX8Qn7xmlH7DIj0Pkd873LyOs/U5+V7E6ixMgp/ViwPdSnKvbEQR4EflxwJX8BJVA5tjqBUbEJI3gIij9klVXfWWpYIMCi1wq8Aq0+oCVGKUCUHupNuWl7BgLveRQoEtrJ48gzBWxAGKJaCbplAekRM/6aCvYQd5aIyQ6yKyTXM/xOvVFfuTp1Fek11gqQydBfegr6DsiNhZ76rTu20kvJjrtWh/roGx9rBOZRwoumuDvqtVZo3NrrOyk5q+A/JAB8kPqxtA4Ij0+la8p53Pk9Oh7WWcMbnmnL0MfN99+u0+WfmU7Gd7+jBi4TBADO/ldxbkrpb/86DkZZ0aCAoKzccAILyKcBBj5CWwOzblBwAkKi8/5QT4UFJEczHwQgJGT8kzLs1M5MiMTfOmkp98Cs7K0+qnDjjTbThvma24RXPnIJvmsD524rC07ESAZcqK/nuYiQojI6jP7SK+0012ECvVbX1J9O0lJXeSc1O27D599b2nu1giQvr10Meti5Lmg0xx/6ULBf1r71q89YPcjH/nI8bb+8ccfP97+IuHWA/mtJ7/pc8Zo3G7P9XWO+CDy29/2nsCvd/K7ipX8rjnNSY4E/XkZJ+RsF93+AmcVQPQE4kc/+tGjg3NuROh2qJPaJJFITn6mkF7llRDZqj6yiqQEGvIr7dRGVxs6ULu1/2SlQR17vilDMJN4wiqrPOUFeycuZfayGeFlA4HN/pS1QWbq06VTqg7SA/tTn+UjP0A0iA+8qPIiIeKyXvLIzi2/Z4JIznrQs8d01CPIlfyk1tDJzy83e97HRx577LHjfCb5AX/jV5FfME66iNntLl9efRiQn2/97rvPT3ft/28v393J7yom+Z0jQo7llobDCRQnFPlnIz/B5ITid9rc2iA/Ti4gkGkEM8kkUpOSlSIsAaOu+jBtCTDBKcDckgXtZ7lgnGCDrewqk+t36tQXOPU4vURIEVQkBAhKXYSlLhkSEryRn5TcusG8lXXCk0ZcQbuVMGefwRgjSqjtagvsn33t5Oc0Z67WrgtJa4LsvCBDftZKPT110t4Qtz/yld1KIzxwkZQa6yQ/xLee/ECejnE7fbtT4cvTb/Nl5Hfjjc/ZxvYT+8lvAx/eye8qLjr5gTrPADkYYuNs34/8ckrBi/yQHvLzjEqQRFiTSCIckJ8yARUJSZEXQmNLUDpdIGenEG8noWdPE9X1J2ygHUJmS7B2spnQr/HMsRX4gjCCifiQT+SnXN0kJUQU6UDkR6dbWusXgQIb2lnfCYRY32GOqf4m+elLvzPNHrKJ+HzuYp3cVlrzLiTmbz2QmzUlJwvWyNrRlSq3bpGnPfHM0iMRJ0AXSWM1PuvRya9T3yQ/MFZjtw/e8PLl1XdPeY9xbjzcfrsPrN+6lW95RgxcJti3nfyu4vuRn6/lXf05myBBfp0MzpFfJwrB600e0nNld3pBXBY/FCgr+ZV2GksXEbqtEnBODm6djKO+OykYIyiXV18wgTaeF3mbyZYXPIhUoDfOeRqcMBZjcEqapBNRTeKLhAABdeLTNlhbQW+NPB6wZtkA+tpBpzNt5Mkm0ZWCsUgn+U0SBLYjP+uEZBCfFx3maD06xclLrU9kJr9eJEI60vL2UBsXHn26ODr1mbO5GJN52SNjKV3Jz1jpGuNFJ798+/Tt33n/v2ywLzv5XcU5h5mOgwCcADqhcMJzxEeOXDpJCGTPcjzIdpJBMgVBJyzBMIOmfAQj6ASJWytjEJD6QWqRcYENBX0BL410JglUFjzsIBNjj9SRojeI/srBCcXpx+lQ4CNfqRMk3fqA9aQWEUmT6VufzaGLhbnQZSOCjNjUG2vtI63apte86jN99dLqlYGd1sD8zcczPhc7pNLtLLLq1OekDF0g5r7Jz4uEcnIpvfbdGs7HBlJzMp7IL7/Kx+xPfhf5uWit5JfvSp0K1cuvvn8ZYS928rsKzjE/DI34ciBO7IQlyARsjrgi8uO4nFjgeZPn703J5ptegYMABcQ8NcxAczsjCBFepCpgJ7kU5AVPaVBe60ojhmTZyba+kIJ5CVIvN/rpLKQIPgWhM4lqoj4qy2dTcCNdawMRIXRilRfg69yzRZ5OZNac6psc5BuT8Uae+kEo9tickF4n4B452KuAtOwNYrRvE/YwsguzPOvZsbedfo2lcVmLc+Q38Wwnv+nD6rot3rGT33VYyS/nKfVnbwJeoCGh1Qm7EhfQkQHHFGyClQ5nLwAKlIJiBo7TBYeO9AqKgrjAX9Pys1zQRwTlk0snYUDtq5sBKeAQk7maE1J0i6g8ySr7E+RsaINotDc/gZ9dIOtWr/rIz9jmXMjUtT6Ntf6lczytj3Gyy77xO5Vbc3vUSwtAdi5G8wKl3mmcbnVzT+dehva5/XdBdXp0wjb35hiUI73SCTJrZa5O5Z3sVuLLv9XfeafvDz+yle98RgxcJtiDnfyugsOcI8Dgba9Tj4Ap8C9yyE4zBWGBKeCdFCI6QSMtGJIJCLeZTlSCQtsCPVIqgMOsrzyD/5xe8qlbXfLZptOgvDFFHvN0gkgiMGOHiIxOpNe3cAgHAdZmtq9dskkOxovQIjXjmXmQTy8ZG40J4RlLf72B+LqVRWYIrmdzkWAkFvl52UQeMdJV1wlxEqZ2c6/lnS6tSeMyRuvqAmHO+dhFvkZHG48hpu9O8oPI77773nl49NF/3N/2bmu/k99V5CAXfSTqba/v/KZThtUhBSxHLlC14dCu8MjPFV8A9BDdRhQM6pEsOwVw5APIJ3KaSK+yfGQAyUqrn2VY+5v1k/zoGR8b5hgRmrd1QNzg2ZnbZC9TrJ9nhD0vdFvvxIKAWjdra71at0lW7EaG5OphrpPxznxlOtr0PM+YfBsXgdmLnudFYPYi0lNP3l6pc9uLLCfJzZch2VM/yY9eJ0XkZ0xzLq1l5D/9rDuM0shPn/nqSnzXfPumrV+/57d/52cfdvIb4CQ9G+FE80pKztEjtpwvpywPBScnLojBLWwnP47fCUFZoAhGpxHtBO8kupmfdfJQwEdOE5MMVvmzycoDu17egLK6kE5lcxaU1so6ITeE7qSHMCINxIAIvcSxfta1tYLKkQF79ObaB6c364dk9aWM4OS9KNJ3z/H0bQz6j7Sk9oLMvkDf9XXyk9o3uurJkJ12bKhjW9+IPsKsLtSXfOTXBURavjVsjtPPylsja6MfPhz5rSlfhnvvfefh9a//+/3kt5PfMxHR5SzKIM/hkRNny/kmclJOOx25YI78OL2AEADgqu22iw3kgWgmiUU+ySbhpEMmne1g6qhL71w9ZLt8/Tr1eQPrg2P5VZ/OTNV1inExmCcu6DYTMXXys0YFfuQnv56GrNMkQLaRmf1BOEgLCSEW5Kps3TvJKTtxTj0nQDInU99KAsKUkkvp0O/U2ulO2klO/wgYEeurPQY6ER/wAX3zqXwFzFdq/t+P/LoosJv/hsgP+PTp4u4/oX/1lj+9HLms2MnvDDiIW9+V/IBzC1SBeZEzyhe0gYNO8uukAQJWoAjqSSSRS0SyykNkVjrJJ1l58mTyofow2yA6pz1p6FOW2mavNpXlC2QoUK0R8vIYAJAXufp0ITLs1lp5EqA2LjRsIZEeJyAWhNQtaIQFyNBnIdYcAXdKtK/dpsuD/SIr74UXYusEyX6nO30KKHuqH/WRnDIiVEc3fWVj88xvztuawVyv/GuCnI71M+/8N3+VPxHeTU+T3/6d3wk7+Q3kKKuz5Eh0+tAZoZ1zSmWBKUgLeroFsUByUkB+AqDnXRw48pBGHJNYIp7qk0sRHv3aSBFGSJ6+cvkpry4Z6LPb3fX7vXP6Mx8R0wmNx/pYFxeKbu86MaujVzrbknUistbaANKKlJzSnCjJEIuTFSAJmHsV2Miu+vXWOpn2bNpLZNgtLhJDaJ3qQYApI7lkEPHJI0Y+kL9MWB9j0zfMsTU+OubJN/PjiE/Kj7uIJ5t+f1mxk98AxwgXkZ83vk4MK/nNQOGsBTBcRH5OfG6r2BHYkUTkUb7yf2/ym3XJ2D1HfuQXkd9EunQm1EVkEaB1WMmvsUN9kXX6m6RlD5zKIj7EZD/YB3bbiykrz8Y8Vc49nfs8y4jQydXp0S2xCxqyE1h93Fw+UpRGfvLuBJDXSnxgXD8I+Xlm2o8a5LOl3cXk2/7Mbfr9ZcVOfgOT6CDyC3TIOLlA4ZQ5YUHBOckLYODEyoLWrRPy4/yeLWmnPvKQXpSXTiCV0ohobRN5lE8OiEla/QR76pFd+Ul68tmq/aqjvrJ65dl/RAaREPKRWhPySHDqqmv9I6LWHuTVRYrsgT7aC3bZBLLQfhmHtsBOfUU85ZGfspOgvXWCc3H0LFFwIUMXuUgvYpR28kN+xu1vev2NrzE0XuNoTvnWHAcZPX36GiFf5r8Ir1PfyYdPPn7XXY9udxyf3+qe+7T+ZcROfgOR3CS/ecVMB3lxQEHBATki5KDkBVLBJGidnNx6eUbkFqkPpiOPCAEiiUkY6a0kEtFUN9PqpcZQW5jtZhtyQFyT/NKfbSdqF6ZMfhIhNB9p6wSRVWuYnvGnhxSsc0QgRVQRHL2IMrJLVto45Kc83doai77sbaSjv/rOB5I53Xs00ssRz/rmyQ9c/BAjAnTbq18/ZIoArVHz6CTKrv5h9quOjtMuf82XI7/pv5Hf6W3vP+xve3fyeyZyFs4ElavnuK74go0ThpyfQxaAUuDQ/rxNPfLzjIgjC+wQEQCyUI5YyNhLVtBO3alfWb9IJ/1VR13lVVbb0qlHNu1La1/9qp8eneZZfhJOp64IkE56rWeEFBHIR1QRh/lGZvVRWp1yafJZLw/Goy+EM8kvGX/omWLPF50CvVhx8vN/MHfa4z8uoOSRn7V56qmnjj9s4IcwzpFfiPgiP/CcE+Hlo88kvhP5qbvnnnds5Pyd/Tu/nfyuR47Syc+txJTR8QMHvaTIESO/Tn4CpmD1aQin9uMGAsotCl35AnsFkjhHGKteiGTolM9+5amf3iSuqU82n/Elq70y0OnTl0APagfa1I++QX9QPlKzrqCcHamxsDNJwXrLI4ugPtKa0I/2zbNxVNd4GlPjBjoRoL1GctKJCMmYIiV5zwT9rXBvfyM8F0F5RMi+X/zpJ62MwVw6cUZ8of66ALCB7Pgo9KH+9GvP+qT33PP2w/6flu/kdx0iuYgOEGB5zkXPWzUPuDnnOafnkAKQA0v9NJNbGr/l51dd3BZpO4lhzUcgEcaUV56YsvL6l66BnExKHpLVb+TXre/atzwdUIekpm75tU2p/uqztbIuER+dfsw06EubTn7zVheQSOQlDau88dR3ssYEUwfYiIzs+ySi/ECqPhifNsjSW2EnwT67QX5Of6Ad0kN+LpTWzXwi+fqYiPzYRqrn/Pacf/u/O2655QVb/vr6y4ad/AZyjhXdQnRldRr0NnGSn3SSn+AULBzY77RFfn7Wip7gEtyRwSSJ5JWD8koms24N2AJ6Bns6pefqOsFFZpPE6kc7+U5l5Sf5zbpsZyN5fbNnvawpwiBDdl4A9Lt+4OKhnfWN+GpnrfUD2Wa38dKDZI1Hnrz8RONrvPrpRBfmSUw6CXH1C0TFd7zkcFpDgIjL819zRX7uEKyj+dRf9rWX1oc1cLJ0S82HV/Ljv6uf7zhhJ7+BSXiznENFgG4pvKkVgBw7x+SQOXrkB8iv/5aQc7uaCyzBFFHIQ8G25sNKGudQfcFbOuUT1TWWSAsEobL62k/ySE9d5DdJr5Ru/ZxL2SzYgZ0ID/kFZTbpWmO61lhZus6tsaprT6Zc32TK8tWFZMYJ+on0kJm9Pkd+E5P8pN4KeyHiY2vk54WIT56sW//XixNu66EdG+f64UvuJARyPvts5Heq3wkRdvIbiOymw8w84uNUUs9v5i3JdEiO2q2bAPKig1P7KXuOzaELqEkUEUFBKZ2BRwYzX7k2F5WlkZgxqS9NJ+JKL1l5oBspgLGH2ta++rX9HFt5Ngt2eSc8v4EY6bmAABn76Udc0oituU3QRSJS9emrq09QRwcqSxsveWTWLW2kdM4PSmdeOynCcwJEgG6DjcMFkq+43W8c9VNfsw+E7vmzt8nTZ7tQT3+Wni7iXuJ5M3y5SXAnv4EcJWeZp70J8p7TIDlOGDi1wOCUHFfAID9ODYJX0BVMIXKYwZYsciFTX90sz7R2yrMuIpr2IBmim0gnEihfm2T1R/8cAZbCuXGyWaDL67sTXwQoLY8Y6FnjTnMRWbYDeSkSgWSgTchWY1ltNgd7jojoy9vzyGglQL4AkV/yyMzfOCNALz7c+nru1+cu+of6WG3JG6dnif11R6c96fnnft72vuXwmtf80VZ/ulW+rNjJb2ASH+RAEd4kP89Y3G4IgJxRmpOSF8yC1qnPf1DjdqaAmqQQERSU1SWvXBBO2URtJ7nVhqy62TbSQjoRVzq1lYKxJwv0sjtRH2sKbNSOzQJdnWd9K/lBt8GT/JyWJlGdGy/QQSJzX6B2wJay+vLkjTmwgbjorPsfwUVy+USoXmo88t7+u/WVWnvzM3b9w+xjgsxYvUme/2UlH+an5259kZ/v/F73ur/dv/Pbye88unr2p0HyQZ3PXVy1BQBH5MQ5eIHBMUHAOvV5oF1QFvhrYBVsa90s1/Zc+2wjn8pTNuuqV56kB+TTnjSSqO2sD/UR6Kz5bK22Bbr21mmSX6RHDsghUoiAWmty/WRfWt2qH7mEVTdZcw1sOEFma5LRSlJTNuvyFwTom0CPUTxH5jutRdCPNr3smMSqzhtkfprPRn4gDyefRo4+cvbfcP7N/qnLTn7nkSNxIG93I8Acar70mA4tFRgFEecU4AJ2EgBEFII0+ZoG5fTCufbyIK9+6k9dqSBLTxqqJ88eWfayI52EKb/aKV8fZCuMA9h0Mp7E14mv0x90eg6RUDbYLJ0gg/Zmgo1AJ1sTxh8Z1Q4B2fcJBBVJqY/0qndngOTI5PmLN7Y+fPcyZBIfmBu92k87bLttjuT4pxPf9NkI8eTXV7a7lrccHnroTzcfvucZfn+ZsJPfBfh+5MfB/CLLD0J+AgcxFIQrIahPvqZBOb1wrr08yKuf+lNXKsDTk4bqybNHlr3sSHfy+5eRnzr+0icw/1Tyk/pk5gcnP37tUc7tW/na7fBlxE5+AyfHODnKzEs5VF/NV+8NnQDghJP83MqsDlygzmCMGMoXoGv9OaQzdSOi6gvYSVrpF9DphykP9OfYyz+bjXTTk2YvnUhHyqbxd8sLkZ/USyOQZwMhWFdtkQcykbLXes8xKIN+554oS9khm+OVlg/09G2P7XtEh7za/8hpyidJ0oHayhu/H0egP8k1RHS1lTcGv+biTS9/zEdBPt/tgp2P92dulx07+Q2cHOMaJvlxoKBM3xWXo3Lc6dicsmALMyAFf+m5/Iqpc5EccVxEfrNc29pVp1066anL3kR2szP7nf1PHfL6ADYiodamt7zrSQ/h9amLMjsRRKeiyM/aR4DNhe3y9ZussUD7s8obs3q29dnJDXm19zNf+RwpTpA3/tIIb65PPtYpEozFadHfDU//DPlufnytfN7/Lxt28hvIQa53lOvhisqx6Psyv1PHdMwflPxWQjiHGXyrbJJMb2rZU56Bm57+5QN9ctCuNo2ZTvbo1i6b5dVVn/6sn/L6mP2Acre8vdiIBJHfPAWyFcFFQojDXpRGjmzTm30mb+6NMZ2p29joaGdvI9yV3JQn1EnVl85844745mn22cgP6NPxay7e9PJL/jl9d/pyMrjxxts2/Xs22f7nbTv5DawOM2Unxzn9hQe52w23Kpw2p+TQHHV14BlIEcOEgIaCsYArEGf+XOCeS2e75KvOmq+P2hhT5eaRbvWRaG3qR1355M2RLQQFyvNZH+LzkXPl0k5+9Cf5QWXkZA8ACZKBvWj9m0NzkofG2XzTbR/tc3Yiv0gsQsoHVqKboGec+UxzYJ/tOebWSJvmxYa5qffoZd7mTl8tvYZT3T33/Ojh4Ye/ubXb3/bu5DdwkQOVQo7miusbK47MeXP8nJszc9wCBgRUwVbATRR8U7e62Tbd8lM3+UQ2Zjkiqm7WJ5+nw+YwddiI5CqXz+YsV8+OdQF13oZ3suv0N8tQnr51ZaO1j5ik1h8QRHsgTUcZuWgvtXYTkU/t6BlzbcrXt1RfkdgkwJX8yOmzo80kv+RBH/onn+SXDe19H9gFOT8957Mn+cm/909dTtjJb2B1HE4lXzrlgAT7VeecfhIgOSct2CCSKhVIK2YgpjPbRCCzXr72ZN9PDhFb9qRreZ7qQFCWz3b62VRWV3+1l6anjIisCXnkB932TvKbdcagrRQ5tM4RW2RiD6TpKEcaEWF2yhtPpJcdY/VYQQrmB/Vfv9mOqJBdt76RIP+gbw2kjTN/0X9rLGUznWwCXWWPXvjlSn4h2fRz/2n5/mOmO/k9A6vjnEPP/cDfZXLCnBE4OGfltAUlR4YIIFIokCKFWScAVv1VR177ylC7MPUrryDPziyXh4J/YtqAyG/aqW0y9crWBcj9VQeiAyQ3T3sRX+RX24jK2ltnZXJlpATtA8yLk5SstukoS7VLx5iNr7lJ3abL688YIr/a6WOSHtSvNtpGnvqoL3YuIr/sArmPo/2lEV/1aQvfvMh3yfLxu+9+0+HBB39/8+P9Z+x38juD6UTTmRCfqyziI7eAPlDljDk5J+WsQD6v5ispCAIgW5FOmPJs1T4d8upmfzM/7ZRXnywkn/bO5bMB63yqr01l64EEgNwzvn64YBLgJD5AQmzUdpIfO9YaWVQ/SQxptEfzJAbJI5dk2unPya/5IT9l+dm/NBvSTn1sTbvG1Z5FcNWzoT4iVxf5TQIk95mLN738cPpk/toFeiW/mb/M2MnvWRDZ5TwQ+eVArrj+JtMVnGMGjsqRyTk4cGgB+mzEIJ156Uoos+3a/vvJpp0CcOonTy/ZrC+fvdWmFEFA9oOydUAaEZQ2iA3pzRMfdAtMJqXbWkYMUuuc3WQQaUzikF/JrlNa9ZGlvH1U1l6qn/qnw05kqlw/lWc9e8Y41yUCTN9c6EhD48k+fX8R4rkzgps+CfIrGZbfv/M7YSe/C5DDTAeS75ZXmZ68zw04aAFW8EzyQxalkwzCOZJINgkm+WonMqrNWp75sMrW+ilLF6ZtBDf1wFgn+VUn1bbAjgDpdbKL/FYyVEZ+bHQysr7WW8qW9VWnDPYhRBrtT4SUTDnyqU267WW62a/d/KQlG1B+ytkyxrle1sR8GtdcG5Cf5EcP+fk/ipEf4gP+mu/mv/npzO84YSe/gZzmHDjPSnzJ/Sy5YOCgAkIKHLSg5OBSTh+ZwSSGWTfLK8FII6AZQIG8vlaon/2B8uwzm2Hqzj6ksx3UZp1HMK6CuwB3Cxm5dcqbZFjeLW8EBxGUdVZGIFL22w+IVCIObSIr+Vnf/pVXlw2y2kiBnZX8ViKcebaMsTVqvayleaRjnu27eTWm6s3PRddPWUV+8y5lJbuZv+mmu7Z2L9tkp+9VLyt28rsA03mkHAvkYTqZb61yyAJGPuLLweUjnxWRQ3kp50cMHq7LC5bSc22m/dJ0IqPZv3J108ZKttrIS+ujOmmYdmYeaiuQrUspmF+nvIgu4oP+usNaaMcOAomoWmd12UWAdBAKPaQhLV+5/CSoCDJEfGHW1S48GxFmy/haF2vUOpkDv9GHt99+As28rWW+BeZsXsivFx0uyvNj5/w4Hz3566l8+t/b/KTV/qnLTn5ncHKWH4z8/AfVF5Efp468EADk8BMzGEo5fQT4TyE/+fqZee1m/8rqS9Od9qXT5uwjnTDbzTxog5gQknWJpJQF+iS/mUZ+6s19kl/rLE8G9fEvIT97uRJgeqBcfW1qP8lP+k8hP2vU6c8LoP4nN+tjPo0l8vOrQpEf35w/ZjB995q/XiO/Rx756538dvK7Htcc5eQ0ZDkXxwqzzv/FwBnn1VleMLqN48CCWPCSTcePJIIAiFxmcEzMNvKVa1v7ZPqU1qZ21dOd9fVd3bSFXFZbU698durHGAS9dZoEJhXok/TmrS/SA7e89Q/d2maj/uWzrT86yCLSgklEEVogr12y9MO80FWXXkB6EWGorfE33tawvLEbl//oym9A+m8P/G9u6mf/xtiPmPJFxHfu4pyfnmQn+X33vWtr+92N/Pbv/HbyG7jYcU4EGAlKk73iFa84BiOn5JycV3BwZoHr5IIAe2aV46/OD7M+kolAkpc/VzdR/VpGwp0gqytPZ6J6MDbznGNc9SYRQuPTJkKK/Mqv5LfmraHTjzb0O9FZb/nWSX906qs9gU5qK5lNgpNGLmvdWm9/p82pB5P0ktXWHFqXuX5SczE3t7z+0yunP/+nB33tQb/Wrv+7gx/OE99FiPzuuuuRwwMPPLX57rX/9+MyYie/BavDTHmkJ/WAWeqK662bQCsIOCcnd7vqCi6AXb2lAjNnD7M8yaOgrl551s+6i8orqSG9bqNhyrOdrLagTsAVvOmc05s2QoQEK/m5KEzCQ3bys+zRQcTXqc86K699sz11pJPQIqL2a+KcPDKTpsNu+akXVvKjVzvz6OKzrpPxm1Mnv8iPvrb1hyDZ7S88vh/xTUx/v8zYye8CrE6S4+RoEaGPTB999NFjIOf4nBSQDNITxJzYCfAc+UHOLyAiE8E8gyK9NV/Qz7aVpfpMjyzyq/1sl63kydhAIALPXGebwN4cy2wLkddKfj3zi/QQXm9+yaRs04VOfcAeW/oJdObJjJ78SlYT6ZZGWO3pRG3ka1M5rMRnPMGYzaf1b+2COVgHt7z5DZ3Wn019Wgcv2/LHCJC/yk/fLb/jGnbyG5hOsuZzrKAM/V8eTho5PsfkqBzZFdwtr6u3oObYOf10+LCSylqmI2UnWfls1Ee6pVOHTXpTd9Wb/SIqQSz4BJ12sz7MsUgjvRD5ATvKTn5Ibp7+eu4nRY5szXaRn3Un06++2COL8CKJxi4tH5Gs8pm2p+lO/VJ9VA5T11isX2i8rdO69uACFflbH23YyXY2PW9GfCv5lU6ck11m7OQ3ELGtDhTRTedJzzMXf2a0kp8rPAfnvAjQCdCzren0EdsMgG6HVp0ZGGxkp/KsRwKzXB9Tpkxv6jYG9uq7MgIp8MxNu+pqX568sqCN8LSZKTsCuNvegPSCNTOObNUuYuskxSadiA8QknSSX+3aq1B9+UlmZKXVs1F9Ns+1U55jhNZjrtdcs2DeiF9qnea4zYsd/5VCz59XH12Rz95yy/M2v3100z/9NNtlxU5+AznHxCqvnLNZwLe85S3HAOOUBYMg5LCeVfn5dYFcEOfsyskKAuVZ7wQgLTCkIb0pg/qoXH7qSyOh9KauPhGxvCCLcMxPXtt017alBfoMfP1ZF2CnNVqJrzxiZEu77EVsrTUb5tw41UdGMz8RiURUZOXXcnpTP9BjP9Rupnyj8c81aV2sV2tGb5WT8adsGoc8Pd/6Ib/pl9Nfry+fdLztffTRf9zf9u7kdw3XnOR6nKvvVsOvavhPZzi4ZzzT4YETC2BkIh85TJBNAgzIZz6bC9Wv+lMH2JyEScc4IkfjaUzVZ6c0kopwQFlApj/7AH2QF7SRU/2RWRs25Z1uIrxIT+q2z/y1YYsNtowhAmitEQFbKxFJ2xOQD9mYsuTnylNevj7AfJJll9yYjR/mGkTM1jPCo6uu+ZKTmWP91je9hx566PjyLb/sojxJr3J+fO+9+3d+sJPfBZjOA6vc1Rbuueee4685c87pmJyacwIHLvgjh4giApno1BWJTHn5te2qq7/ZZ/2qSyad7eqzdsZuHgW4eYGgFZB0g/aNSVm+oG3+EQCQt0YuDgjPI4L57M+J0DgiBjbmOhtHYEs6ychYJwlB+5O8fGX1vahINx3l0mT12xjSqb9Ot+YQoVkbdf7T+ze/+c3HT1aU6ViP1oy+FNhpLI2Nnm/9/IlbBDeR364+fO+9Tn7f209+O/mdxznngRwL8Tn5+dTAx6wccQYKZ+b0BTunh0kOE5EHqO/Et8pnuXqoLtQfRHbZiEhAWZoNmORkLisEuiDNXm+P5etHHwV9/RXM0z4dJ79ecHT686yPzfTZAO2MQdtIJ+JpfHMfVkROa1n72pGVn3bKT53a1j95da1TaC2sDx2/ygLIT706aYQ512uSX/3T9bLNFwfTZ0shf575229/1eElL/nA5r+ndpcVO/mdQY4TIrzy8+3a8573vONJYSU/jp/jQmTD8RGNtPIqj4Tkz9Uni7BmXbLIgl7tq5+yWY5kBJ75QEFLJh/RSMn01XNJthpH+o0D1mBmh05vNiNAQIja1H/t5xgm6URKrf9FqL52ytmpfUivsU6dSXKlM0+3sbcWzd1c1Dv1eV6sn+bY/KR0w3ryk9JhQxBPXy0P06enj+/Yye865DAcqHJkl0w6364hv05+BQRnVp7Oy7Eh0pkEJJ3EMfPpVa7+XH7aqd3Um7rJSgWfoBNkYPzaIzW3nwiKrkA2P6CvbafU+pOnx0akFSIAdQhAqg8nvXny05/gNha22NEWaosAjKN0jkv9lEHkoY5OcnlQ1/4Bvfo3Fv1mo7124fOLypVBO/rtufmyAc2BTF17kZ522usrPekcX7fldJ0aPXrJH/lqfgzTj6efl7/M2MlvIIeZjpJD5VTSfjtNudteQZLzCxzOy3FDZDQJaWISUaco5XNtVt3k9MigdrWdJ7NAPoOugCto6SA25Afy5BGLOaeTrfpkT718fQD7EaOApqPtfOnhBGi8kzDYkEIEMV8wTUxiA7qrXjrq5GcbMjBG/cv7tW42GvPUzXbkRMc459wb+znM9TE37aXqaqtP9s25edPxsm3+lUd+mR+XwpUrO+lN7OQ3sDpNMoQ3T3u97FAX+XHYH4T8BDrCENwRV0SknqyTVPLS8lMeqU3bpfWZXjpBUAluQSQ1TnqICNlJg5OZFxNsCcTIQTnyK1DZsh4gsKuLwLSL/NghY0MfiE9/xko+iUG5VNtOQGxMZBcmQSUrr65xTpgfNGYnO29Vfc9pr5W9rOiil936sp6tvfZhrgFYp9Y9KLO5ytlkf5KfNTSW/ge3LtBBOZ+d8ltvffHmtz+xyW99RgxcJlxHfve/4Mrhx99w5fBTP3Ll8O43XjnccvP5Rj/MmE4SOE+ORWeSYbe9HJZDBkFUsEIBgAgio6AcISVLr7Q2UzcyI5v5mZaHGXiCyRgFGXm2kR6SO0d+ZHTMVSBKlSPrCKt6RGDu5K1Bwa1vOkCmvVtdfbE3iaM1nIQg8NlvveuzfpWTqS+dJJV+pBe0U68P6xT5eTkh9VcV/qzsda973VF/khH99r3xr6hu9Q9p6zPnCpGffrrI6k/f/hOtyC8/BXk+es23T/59etv7ry/F294HXnTl8K5HT3z22pdvsXvDtbrryO+hl105/M2nrhy++fErhyd/8crhO1v+phuvN/bDjq6UIcLLoeQ5Vbe+5257QVBM54WcX6DDSmbJks86hFBdspXwlJOtepGScQkkwUWmHukgvMhHHsojPeSnzG6kIvjmOPVDFtnQ00eBDcoFeGRkPHTYYIuduV6gHduRQuVJYDOvrj7sB3njCvqOBLWpHLQ3Np8y+c3GF7/4xRtx3Hv8tMRPSSEdn5r4XT0fGzsNtgeNf86DvHx1rUdl+TnPQM+YJvk1Z2OL9Cb5TZ+duOeetx8eeeSvLsV3fg++5MrhGxuffe/zVw4/+vCzkN+t20nvm09cOfynP7hy+NJvXTn8H/94uU5/HOXZyG/qRH4eNjsZCJRuSSb55dRBWZBHcPIF/ZTJg4Ah63SVTnoTBV71BZvAMR6B07jY6XSH2DrZTfI7R4LsmqtAZFe/jUVf5OYvnSQrLaCNS34STHJorZKxSx8psEUuBe2DeqhfeXOO9FbysxYRiLEklydnkx3P+3zM7u+456/5kCEet50CyX9kZV1bCzDW8tAcy5uD8Taf5tBaTRhTxAeN9WUve9nTj2Gmz05M2WU6+cHvfeDK4dtPXTncedv18uvID9F9/cNXDv/Xr105/NsvXjl85UPXK/+wY3Ua5Ykp42yCQAAgPw6cUwoygcOZZwCUcvpII+KYeYjkqkN+1YXsrOXa6cu4BEmBbwxsRXRSxOZZ2yQ8qB4xKhuT9pGD+emrsarThzVQL4D1D8qCuiCPnNQV6JGC+rlWyulWLz9T8uYc2DXWSYARRnOYKaifZMqGE52/4e6XkqUC5/nPf/7x58weeeSR4286vulNb3p67Y07zDFNWfnWQp/GkO9Yg9ZB2Tiby5wP8jOuc36bbJLirbfev439vZvstqfrf5jx+V+/cvjzx68cbr/1yuFHXn1Kya8jv0ceuHL4f3zryuH/9idXDp9+/5XD//rNK4dffdczjf2wYjpL5WTlwz+V/Fanj6QKlpkPSAWQVSc/bdMrX3m214+gEjCNSYDRmae7i8iv21y3wp0K2WXT3CIi9iI/dfo5R37aKFuTc4Et35wqq1v7VKcMtdWmtTKO1kGdcSCISRYRXaQnLR/5QOTXG9XIzwnwhS984ZF03vCGNxxPhj42pmcsK4wzzHLz1Ye+9G18xtL6zDWi01ygsf9Tye8ywW3v/7Id5v7371w5PPGLVw7/9z+9cnjp809115HfK1505fDxX7hy+NB7Tw8HP/pzVw4/+7ZnGvxhRQ6SkyhXlzxwNrCAnD/ym7e9HJbjcuACYQ1WAQAF7AxeacQX+a1652TsC96CSaAYj/468XWaU0Z8EVyY5JeeuQhAc9Bfc2ge+jT35m9N6EsFuHWQtgaNVxmahzxdedAmQoLIQZ0xaWd9lMsbEzt0I73WonWJPEonoUj1ZewubgjGX1LYc8/9nPTc5tpveukbVzDH8sapDOWbn3pzbKxSY893SiM/69tY9fnAAw88g/xWsstvK18W4LTf2fjMO4z3bwc5+btuP9VdR36XHZP8prOUn/Wczelv/WED4JgFwnRg6PQiOAt2aflZBuQDa32EMyGg2Na3MYBgEVjadKKDCI+svH6QHNKD8vVvHlD/kYy+yQWjwJQ2T2PS3g9y+mFOP88OfqjTz7Q/+eSTx3y/e+hve9mNHKyZtWXTXAJ5YzOGxmFsk/zS1x6pgPUpNc7kdIA86FudC9xrXvOa40uPbnGRojo6kXporcBYzcfYoL2aoMNGY2CjubGhbDz2tAuMeZEhv/nML+SrIdnq95cVO/kN5CTlk+c0M0V+Hn574XHRr7pw6JCDk4NywToxZRxfAEQ+Bc3UnYFU8BQgUn2xE8FJQ0QYkB0yjFQqR0bGrz/2Juo7kpEv6LX18TKC++QnP3nEpz71qSM++9nPHr74xS8ePv/5zx/l/Z8V+mxe7CCoOS/9kBvnSpSNT4owGhNEZlCebfkIUB/SZHTMh219+3M03/vJq2dXyg69iE9au8bXejU3dY0ZtGPLmNX3N850LiI//T8b+a156e23v+Lwohf9yubDtz/t45cRO/kNcAxYZZwG2UHO1MnPAkZ+HJJzckpOzJmBI0cS9NRx6ElyM1+ASAV3J5kIjx2ozJZAExz6hsahf0QmiCbpTfKTRziRXYTbyU86x1C/jbV56dMYmrdxNU52+mFXJz+pX7dGeI8//viR9Jz8BDyb2gv4UOC7wAh4ZMN2pJO+PoNyBDX3JWIrnZh7mL65sd/eTeJhg1xfzVlqTCv5rfvXOMlAO/bZtt7WyIlZu7kGkZ/+6fa2N98M+XBl3/n5T4xOv+d3ed72XoSd/AbOkV/y6VQQ+Tn5uSUSACv5FYyCGalIOTCnJY9IyAsAeUg+y5BepCIvyPSv3wl9qUc8k/CMJeIrH/nNUx9EhJFw45qpuZivuRuHPulOEtV3t77gl62Rnv+k54knnnj61IcAjae+IolOfwW9uZFFTpENWYTYmtA3NpDXJhvS0BzaR9CePHKNhMhAXj/qG+vUVW7Pms8kvsrqIz9jsR/WAwFaC/PRV+Ob5Hf//fc/TX7zAr3677X/t/fyfOf3bNjJb+Ai8pvIkToJegu4fufHQZVzfoHvtIMEcm4OjzwKjIJAgIRJeiF9UGZfX2wWsMYgKPQvcCK4fi0lkiOfiPDUpWcMc1z6jQwbv34KSkSg3ikPkUFE5/nepz/96SOeeuqp462uW97f/d3fPXzhC184fOYznznqzFOgceh3Bj9ESpFWa5Ac5COJCG2SRilkM/uzTC8yMz/Qn1QdIC57QUc+AiRr3axjhFc68+bIFtt+/dvJmN9YA3XmZPz2t3kYXx8555f56PTZa/n99/zCTn4Dkd/3A8dypYX1LzwKGo7KYTk18ut/cRMw6gVHxAIFR6Q2kUyaHpw7DTQG/WgzSa7bW0iOxCDSW8lPXX02njlugeuk1Rj0q42gRWRIDtkhNs/5Pve5zx3JzvM+MuRHhvx+7/d+7/gMkJ6TIBtIFJnqJwKoL+sIXXAg4m8t7E1rEqwZOxFXNiOV7KorRWTmqW0nTvmIMPIrjdDmns366rJpbpEpHfPu5Gf+9NQ1TmjcnfwQnzQfXf02P7/llhdsp7+3bTq3XOf/lw07+Q1MJyl/zokiPy88fPbg5MdxOSIHDRyWoyMZTuxqzunpqSswJiKYc1BfEAkWfRTkBXjBSweBOfGVdnvb7S90uhRg6UIEiQDVs5euvABtXPICUb8CWT2id3JBfsguUnPaiwh7AYIklRHgl770pWPeevXAvz4iP/1EcoDgIq6QDKyLdtYr8prEFenQm3uoLpLr1CefnB1y44rUSiM3Y29vZ317yVbja4zaWD/+Yg3SM1e6zSt9Jz++mE92Clx9d/X3y46d/Aamg6xOM1NOlZNFfpwzAiooBQdnRyQ95Eco9OgXBAXJxJStee04fUFQgENjoBvRSSM+ZCawyAHp0SWP/KSBvGCet7nKU4fMmCILhEDuLS/y+/KXv3w8AXrG51SHGOfzPql6p0B1+tIvWEfoAhO5yeszUiAP88QXURlTJzi2ypNL2WoOkFxqvlJza4729iLyC9pZM2n6yq0jW8aYz4C5Iz1witYuPXOa5GccTn75o7SPsafPlt9xDTv5DeQkK1a9Tn7qfOfnz584IYcs4DhxAcaBewaGENIRNIJgEtssd9KaeW04fQFQMEizq76THMJbMU9+ynTB2GASoLwxFcjmY65SY+q2uNOTOqlxkBkzcnNLi+CsA/L18sPJRho8GkCACLOAz54UJtFNwoC5Bq0PG8YBkV72zMF6SvVXPaivTMf8pdrqq3rQfiICtF4TZOrkW1P6jamxq7fuXQDoVD/3vXl029vJD/ZT3/fHTn4D01kmVj2O5coqbwH9mi4nzCk5sADh1BwXAQh45Ics6IDAmWRXUFQ+R35sFgTZmXl9G8u8jZ3EF6lBZYRnXJMA09Fev4I2gkAoEYIxmyNZwSida+DE65bWiU6f7DvVWBN9dDpFgG556elrJT9lNtkGcuUw16B10c5YpdlojYx7kp98hKbe2EG5+vqa9dqvtib5ncvb52TaGFdj195+0JVXb67Nqf1uHCv5dWG+yIfvuOM1h5e97MObD995nfyyYSe/geks65VzAvFxMG38wXv/b+90zAKsQODsyEUaOWijHLHJVw6RnyBhawaBdCKZfhHMvOUNnfqSR0BILmhrrBGnvABkN5KTGn9lgWhO8pXVaaNPLziQWvbnWEoRotOhZ4CCv/6yM/uRlg9zLSrTmWOSsoWorGewRxFYpCZPt32iU5/ZgQivNERu2Y/MpMkjWmiM7NSfPKgzn+ljdK2Nj5y77e3CzE/l8+Pp56e3vfv/27uT34JJcjnNLHMmxNfJzx+5+09kBMh0TOCw5wKDowsgqSCY5CddyY9cO31ot/ZDllyZ3U5+yCtymc/6Ih1IHiEiqEl+UOBHIJHAHIO0gJRGIux4seHtZbYRYPaloG86n/jEJ455bc+Rg77O9U9GB+gbR23SV+4kFzlNYrJPSC+d5hAZTfuNaRJpdiDba520/CRb4zVGssgRIr/m2z6bkzH4LcF5q1s6cfLjky/v/2/vCTv5ncE1Z7n+iqnMsbrKkvljd3/nyXkjJeiBPEeeTi+lWyAqT5KbxAdkAkEACI5s9zazIICIQEAgmMgsspvkJw90KqcPkREZGF8BuAaifORijJGfMZuz9l5u9MLH2LrNVldZneeA3hA7BdbeGkY0zbX+mnN9Iy3toHaNKdBh17q2vhFVqX2Rj5yUQXs2kxuHsv7o05GXZqfxKNdHUJ5jZa/x1af6dc1bd7p+XdpLjvxTOn23/PwLj9e//u/3k99OfteQ01zkQNX1fIXcr/r6OSNOmFNOUpiBA5w68qOn3TztyU8UgAVuQV/7Ah/qn/2V/MpDxEeOcNRVf5Eee4Kwvuq/+Sobm75BsBbEiMwtL1tOfOaJ7Dr9sQ3y+vLiAwk2f2Bzzp39OXd5MmNEaEFb694a0pGml33jBLKIJ1nkZAwRn3rz02+y9ErVS5Npo685ttk3++YipVsbqblP32rubD/66KOH22+//enHMXx0+m3+XPmWW+7ZLtqv3vInH76s2MlvIEdZya885GCRH6fzh+4r+eWcAq1AKqXLmemoJ1tJDwQIxxdcglYK2hTI9VXfQGeSX6RWOUKLFAHxqCsF9YhLHlEJVOOO5PQT+QQyASk1T/PwhtenPvoxLsTXyY/dZPoGfXr5IR9JsDfXdRJhINOn9dSmdZQ3psbe+O3Hujcr+UVO9qF1j5QmWemXfGIlvtnHJD9QZsP8zHW2kT+31/La8D/PnvntfOEx/Xr6cfLLjp38BjjGJL5AVv058vPMjxNOpwSBwWkFAKcvqAoaugVsAQAC1umILIJhhx4UbNWxM2+F6SKTSCxyi+hW8ot05JFRbdSXR1DGps+IQ1A2hoISOZgvHfXaIrL11NcpNyIs32kQAQK9gn9d2/qUt47K9BrfJBfjtD50zhHgqt9+lVffBcfaG5P2ZNLmm24gk2YP2md59iuz2/is4bSjnznnQO5rA4HMH93+IkC+ml+H/HmVX1bs5DcwT33KOcssq4/8lL3w4Hycn2NOFJST/AqaghUEFAcvEDqx0OXcdKXKwF4Eo04/BUN9Io2Iq7Q8Iiqdpz9APuUjSLrkxlaQRwqNzzz0j2TUC2T12s7TY2QHxhgZRvhIFvSrnXHUb3ONBErJq7OWxqR/sE7GQ95a0131YJJU+ebJBn3tIqb2oAtC8tA6yLOTrfYZksvTbT6rLX2rW0HuP1jyZ5b8cZ78wjlf3rGT33WYxHdOJnXymw7Wj5kKgOmUMzA5dU4vIAqYGcRTBxHIpwfVAxuCg0ydACj4S9lAHE5RiCcglUl+ENl1AuwUGPnJR376NQZ5aWTSvCMBMAb9ZJuNbnFh5tmjn4yutm6Z5REA2xFQ/dW/OcunQwbyrbV6ayatHVRWF9lY49YbzCc9dZEWeXvU3GtPlr650c+e+baGlbWd49QuW2TNmU4wP2k/bsA389nSa/mTD9911+sPr3zl5zYfPp0WLyt28luQs5yTBU7GmcAv+xaEnb4gRwVBwIELIuWCKWeW58gR3ur8BUjBqX2BBgUasEc/Aon0yq8nP3oRYLrg5FUeeQle4wv1WWrexm1cgt1Li/6KA4lJleuf3QhYX3SkM5++uUcerWEEEPlNIlNu/cnpa2fcEWjkl25zqV6+sjTbkyTl00mvtLWgZ9wgP2WRaGtrLNrSAXu/kt/0s/T9ynQvPfLf6bMnfz3l7733nYfXv/4fNqLc3/bu5DeQs6zlwIk69bnK+j9bOaYgyjFzUsg5CxYOXWAIknRm4BZgM2AKlNLsBTbZaywCyQkKyXSKm4QzSS7iS2eth05f7Osn4tBvhGIeEYNbWAQWIkGExvY8YdY3yNd3cmknJXNHBvpprea8obLxWF9l696a145u6dyDWU42yb45tpdstg6V5du/sO7blIO2+tW28UZ+1ZnPJD9ldf7/YMHchXn12xNO/nzPPb7z+87mv/t3fjv5DXSik+colXMgeeSn3pXWZy7TMVeQq8/hC8AII50CrWDj/PRz/oJFkCCBAgdmEGaDTbqIZBLKJBkpoqtcHmY7JIXMjLmxCjwpWUSkbCz6pR+5sYH02HVb61QIkVlzmnmgww5U15roR9/6Ne85d2vRmKwvPW2mjjpzadzNK/m6f/VJh23r3l5C60BHapxzTqE9PJdnR3/TTnvPvr4n6ZU3Pi/d/LAu8osA8+FriPz2HzOFnfwGOEa3DTBJby3T9/+2ChbOV6AUNCFn5twzaEMByrELIg+w3cb438HUC6ICZabsZTPyo18QsdUtbUQUsUWG5StHgFPORoHPbvNU1q9+9CkvUCe5RQCVjTsiL21OzavyWjcJk9zc9QvWuHz6jZmsdTdGskhOPqhjc+qUkiVnrzywm22psa3zD+xPYmwe056x0kkXml9rP0HuTfbznve8Z/joOb/1//XecssLt/K1//HtMmInvwHO8U8hvxe96EVPOz0nPOeYZM9GfhyXXkFF16/E+H8Z/C9h2gukSGCm7GXTGLQvUNmTOmlFfrCSXyezyheRn3GxaTzNsz6ah7xANV4o4BszFMxkpRBRVK5deZh2ybXXb+vWGLJlbYzRmlgjOsaazDzkQ+Ono5696upn5mvfXmoPjbVxNH5oz5Kbh/Ls659Dfk6APyj57ThhJ78BTnLumUllqVte6a233np47Wtfe3RUDssJOWDf2gVBlANz5oIQ5IFOQSWInPo8T/RbgYhwEkCEkE1t/B8i+pXPriAs6JEeElvJL0SAk/zIgv4mURR0ySIKfRlT4xXgSMBta29xSyMyddLqph7SNS5jknb72xqA+Zqr1NpZ42zrn7xxt76t95yTPDmb2rLTGqqXpk/OFsjDJEBt5xgjQfnWJ39oH42TPfabh/Usra6xtgd8rPG5GE9fnT6cj6/ly4yd/AY4zEXkV13k5xOXfs1ldUaozGlzcE6cQwfygqxget3rXnckvpe//OVHWzOQYBIA0vO3nZ49slEAZlMZmSCxSHAS3swjvZX4tGWjwCv4IoJJAObSnLTLfn3ovzSiQ3Azr27CeLwoATrnyM/4JvlN0qVjjMbbGkubQ/MAc2C/dtOuNkBn9gnJQmsQ2GJ3jp08f5DXhh3jYKN6cmlzgHwr1Gb+R0bTf/Pvyjfe6IXd5f7TNtjJb4BjRHQ5SuXAuZBgn7hw2OmUEV8yTsuBQ84+MYOLvpOcU2V/OUKngCmQSn1jaCxOi5GRfmew0kUsEKkhlklMUDk9OtpOe80rGftgDo3RPLX1Qwb9R0RILPsRG9TPOj6o7G1x/5FPJNLaWZ/6B+urHoEhYCRI3p5YI+Oee5ScrUizU2P7pl4/k5DKs0+3cmOr7dyz0NjnmJUbx2wP9rUxS6ELrTZsuFg+O/mdfPzuu9+8+ctXN927r/P/y4ad/H4ATEfiXG55nbZy1pwxh5Ry1oJldeSCo0CgQ1dQshfJsKGP2SYbBZrgKXhnYChrrx704+QUsUQ8ERJ0e9npDxGwwVbIvr6M0zgai/HJGzMCYY8dJIaIgDxiKu3kN+sCed/7yc+5g74in0gw8gNzQGQRXusiNYfWrrmw2S1qeuzWrvXUH/32j0zbiJm88SWPAMuv7egaR20mjKH9bdxzL9jy2ZXHJfnqOV+Ge+/9se3u4u823f07v538vg9yJldUzuWPyPsxA0HBASO9nJETc1iOO0kLBECIMOgKrhWCo6Cmp0/lKQuNpeAoYI2FLiKI/Cbxdbu7ns4EpLbZC82Tff02r+ZpjPqKRCM6pNItKZm0fDrKEReZcSA/QH71IW3t9DfXRX126oPcmM2ntSUr3xpB82GzenNtvaWt/9SVtqdzb1uj5JFfbZOxYRzS5lcbfbX26z7Is7P+tNXqw+V95/e61/3N/qnLTn7nMZ1lkh/n8lZt/o9tiK8/ms8ZBYsAyYELgpx5Bgc7BVTQvkCd9ipDAVtwqdM/3cZCJ5k+I72ZTuJTRjidsrRrjs2tvLoCtblpQyaYsxkJkRkDAkxWPjKUry7yc9vrFEne2oX6A2vRmkSy2bJ2jdk60W9PalcdkDWv6rTRX/r1lR6oBzLjq6626/gjQnrGyCbd2qdDZgxzH6Tl2fZplLsSfjrJL/895a9st71v3YjyTzfyu+dpncuInfzOIGc5B+Tn7yg5XGQD8+QHHLXAgIKiwABBwQaHl3J+bUA+VF+dsv71IV87eTIwhnRKBRBCifgmIipk4zZVwLGbLTBHtqA5FtQz8OW1z+4ktEgNkiNaICufnI3+xE3b1g4ptIaRC1gn0P/sl47xto5zL9SRqaPTequPeMjoTN3Wvr7VTbszrW4SWinQYxPoKkM6+mzd5x7kd9r4XT8/rov4+mTrnE/fcIMf4719k198a3wZsJPfgmsOcu0lx3QcV1Y/G57zc7xz4JwzyELBAAInXUEXiQVl/VQuyOp3nsCCuoJjBVuCCcFFeoAMez6HcJCFfrItDfVT3rjMpeCeQV4/kV6ENp8BKke4ID/JD3l62THJj/3IoT6NQ2qOxqX/yM8pkJ46qH1jLb/uB5k+2Wo/2gd5a01PWv/sNSbQFtZxR3rGJlXHDrtTD+q/PZh7ygfAmPyiuIDuqwT+uvr1Kf9Mv7+M2MlvIAdZEQlyKH9C5BOXyCHnCzmoIOP8qxNLOXeBljNzfDbVk/mZLHA7zY4gc6tNR7nA0zYb2SEvKJNPmYDrdlcakI/+053jg8hDntx8m2cBKx8RID6fqCC5bm8juYjPGBAb0lvJUJ7MG2O3vsqt4UTrETkZk5Su9vrt9EQvG9YW0iWrLVvAtroIqvmpo5te7dqfdNvTyA6ZRngwyU97bZpXa9q42oe5J/mctt7880++2q+7rP59Sq/3+8uKnfwGIruZh8iPQ73gBS84forC4SOAiRxT/XReKMBy9HQRDecWKORIDvH5wLlni33+oo81GEBQT6iHCE++OgEmCCOiIBD1pc20nQ11jZHMWNgt2I1LPj3kh7iQVoGPjCI2acTbiU86y4gr8jO+1jJY09YzGFPrr88IJz1twBzsgbE2fvXmENRVL2V3ri/ZnLM83aDcOME4QP4c+Umb28znb/ncmlePyD2PdpH2eGbe+l7vz7ccP3N5znOuJ8fLhp38BnKU8idHuXb765bXt1ScrcDhfNApggxhnCO/QC5QIpeCSaAoIz2nS1dypKdeWd/KAkegNAap/sjYoV9ZHdmsK2gFXuQAZPSz2/iUtS+wzYEN81VHXnCrpwtIzC0rkivQ5+kvAoROe9KgXhunR+Sn38hkri0Z1G/zbI71K9Uu4tHGOkVabMlP2+y1lmzONdGPdvQbg3zt17xUv63VhLZr3zOvr/wsn4N80NiM6YUvfOHxIj3J7xpOfn3PPW87PPzwN/cXHjv5XY8cpTzSK7VYb3jDG47BIACm80knYQiW6cQTHJ2z0p9kRC7vrZ3PFvzAAaSjH31nVx+TqOiopw/yZPQKTnJtCl4g036dA50Cn54xNh9tjIe88RTI2tB1S4u4EJkTX7egIN/JDuSTBXKkrH3/4bu+9aE/85nlxtl8jCHSnX3PNo25srrm2ZqRSbOtn9YWmi8b+org6huyX1/q2gvytb/GUl4/1ruL7PS9LrrG1Y+aOv0hQfl8GPn5Tb/Td377py47+S14NvLzJ22+7+Psgms64EocHDGnzokDB+f49KUcW/AUYI888sjxFhfxOemxRy5QCkzQB1n9FohsQgFKr8Aq4EBdZe3XOZCzoT1d7ZuPduatvvEU2GR0PctzYvuXkp8ToTe+0vqR6sNYKjdOYzN+ZXXnyG8dczban+xb72StLbutLcj/c8nPOBuLPppTYymvn4ju2cjP3QHCg4vI7777/Jjp/l9X7uR3BpEd5DyupG4pOBlHjCQ4X8gZkUYkNYMpZ1YXAUU+BZC8215v7nr258/c2KUzA4x+AZidAir72kykUz3Qh+aUTKpNQVngyqtnpzkVtFLjQlROa92+dmsd0amXIqXy6ipDZCh1C41I5esTrOtcZ+NtPsZvLNZKOzAGuuSTiMrPMjIxRzb1wf4k2FJQV7v2ByYZVpdMO8SlLVlzaF7S8vlcyOcmGZqTC6fHM/z4IvK7++43Hh588PePz/1W379M2MnvDCb5hZ73RTarE07HLBhy3unEUnUCM11gk/MKNPZ62+u5n+d9CNEpkE7Bkz5oX9AX+KXs06kvIIfk8s0tW7UV8MZdAEcKyZtb8zO+3uL2QgOJBcQ2P7OhK48oIXkkqI2yv/KQGkP9TbS2xm/s5mB+6jr1Ib+IpvlETuSzTMcc2Wg/Iz8grxyZalt7aXs1y/VvDY2R7WTsSJtPc9MHf6EP8pFfPmg8/TeW8+QHJ/K7didzzu8vG3byG8gppqMEH496DsfZOd/qeDmmlKMWLKXToYHjR34FE92CqVNf5Of0B+oEClv0C0BoHCuMS7vIrP6gPtkReECuHX1QZ8yCt0Ak07bgFNylCMwpDYkhwEhwkpxUOaxybeQn+jO3Tm/1Xb+NoTnMsXfyBCQ4xxvUzTJoy15zlbZ20NrTUd8atV72KluT/LSxxvaDrvr2ormVgr7ay3PkJzVfqTsULzzcrezkdzF28juDHCVnAf81IBLihBFeTjdJEHLo6cTTkTk6J+fEdAVo5DODjINHep7/IUR6BYp87QumAkQgyEtnmb62BWRkIDDJp93amnPBrb7ynFPzYg9BedHhttfbXr/uEglGit3ShsbRaQ8BRna97S3Vtv7AOMo3FuOc696pzzwjOTrKQKd8mPbqx7yttTWwRq0/W+mmD9kG+cjP2vInbdf1n+1BWX/2AtpnmD6ozJ5f+HGnMv04v57pZcdOfgumwwDicwX1s1HIJ/JbCW86JB0OW/AViAUBcNJISV6bGURSttzq9smLPjsZ0NdW8NVWOZk0+8nYkwrgoK9OJ7Nv9rLDfmRXXboFZ3m25q0rKEdyPXejN9OIIZKiFxECG1I2Gu/a95QZ65RB/elDmk5EJw2zXXX0I7/Wp7UJdOZ4pi19Ahlda2sdjUs9m6uN5qefc+QH+aO8sfnPjPx/0ud8Wvn05213bPnLTYI7+S3IQcoD8vO8j+NxeI6GCM8RH3DUAjBw8pxaSocum/LsTlKZJ7ne+upLPRQEBWA2Iqvy9CK/xl/w0pPXn0Bjt4Ajzy40fqkAldauNurlkUunucgkEqCTXjKp9tJJbLWbmHVStrQ9N5bZxnjZjlila7v0azNTbelaF/Of69OakLVO2c3GtC9fvZRMO3uzkp882K/2fPU5Zf7YxdGJ0pcJ04/n7e4dd7zq8NKX/tZVArze/y8TdvJbEOFNeH7it9I4OiLhZGES4CQkzhtyYHlOzpHZqU3kxL46uoJAXY4trY6DT2IrCBsfWzB1lMuz0xjIVzJjX/0ck3rydJtPAVw5ouiUNYN96qmrHqqf+VnWLl32Ioapmzz9ZNoYs/4QX+RHTm+Os3RtP+WthXWRKk/MsdRu2lE/deTZsta1X9GeR3Zrmj+y40LpMc306RP5ncr7T1qdsJPfggjPQ2IOQ+a/qPTT8hyLs03yCxGZFGnktDk3CBw26AX6kVBkIwAiv+q1y5ZAoKtenTYFo3x2pOrTkdam9qCdsQlM6WwPER49+YihtHxldpz+wnoCBLJuPyEiKE9HPhKFSKt1iCjmOAJZ46YvZZONxsQmvfqqX2nzmbJZZy3AuivPfulMfXL5WQ7G1X6y15xWqLNv/AHZTZDlh/aNbP5/HpP85O+5x0fOf7t/57eT3zXkKBD5gT8W9+aVk3K0HDCHywGTc+SCJ+eV59jq6EQ8EVPBBIIW0stOgceOeu2gAJTWtqBSXz/6rt9Q0Al+pMBOdkEdWXbrH+ShoE6OWDzzm29ze2YnRUBui6esZ4JgHNKeF/bSwwsTZf3Vd+OZ5QjG/FsbIIt0gR1t6WgDkVRzAmvTPqY/ySqd2pQma3yzjkx7+wLZapx0JuxFPrbCPpY3LvA///nUJQKM/Pj56Wfsv75/57eT3zVM8ov4wP/P67kbB83JENMkvRww8itYcl55js2JI7UIid0CNZKByGfayg7QKWBg5gMdfRRg5Sf5KbMrMI2BXvpsqJt9SWdfxqVt/SEWRDXJD5FNopPvhQiiJAdy7REkeSQ67SGwxtV6SBvTXCey1jKS6/SHnOioo6OuttC8JrFZFxdCa1df6dV2lblAuhU1FjI6rXF7oG72Wx7U0T3na9MHgS3z6Y3v9GN+zc9vueV5GwG+aSvf/IwYuEzYyW9gJT+plx3+XpJjcaqcLKfLEadDcsDpyNOZOf0kv4JS8IVZ5vhrMAR1BT6UT19KFqGxJ50EKC+t3niATLvs1Bes/apPhx35SCuCQ2qRXnlkR6/6EPnVNmRPn/qq/0C2yo3TvFprZfYjP2Mln3tWO0QV2LVv/uzQ7zkitOqaP0wbga6P1Nnotl1/+ZKxGWNryuZsry7/ytfAeEK+JzUfj2k8rpm+fM7nLzN28lsQ+QW3Dpx9OuvqdDljdZyZIwcOXGAgh3Sl7EZ2gmPmpTMo1gCb9qXaSNfgUU6X/YId5I1FgBo3WcQ4+56pfsobT/anbXLE1m2soAdlWG99p6x0kqQU+el3JYvGEuY6NVbrbnzKxqEPKQIkY1P9bBs5mp/2/MDF0JtUnx/Vnm56tWdTmzlG+tYie/pszfXd+Oo/NL7pb/maNOST7PkBDp+78OFOfquvX3bs5LfgHPm9+tWvPjrU6mQ5H2ecDslRZzBORxa06rMlLxAiOgFQYAPHn+3Dap+edmvwVJ8u+xGUVN+NXUoOxsVW7ae9abNgzzZ7IMCRVQQo8EEeVvJThvLqIj+pEx9b+jXu1miO7dyYWr/WVdk4Ij9Qb87GLV/7yI8cmXiJ4DTleZqLhTrzrE3kp9x+yBsHqNef1HissTVvPs0pG/JS8ukz09eSzTJ7/h/n/syt59f59A033Hr1Te/+e347+V3FyTGuf0biuYmPRjlUhMfxofLqfAIpxw2zzPE5MH0px2a/AC1oBEkBqL2AipBKs63N2h6mHqjTV8E+g1BKNm1oq/8Z1LM8oQ178sbtOZ2/7kBayMapJ/KL1DrVqaOjPPXoAFtS42mMc176s15TZqxzHq0F3civU6k680+fTnZ8N4dI+IIfs03PXNmzFpP4GkPrpEy//iuzA9mZ7eTTn3s0fW0iefb8VZD/+N6YnVbzaUR4110PH172sse3/LUPoS8jdvIbWImP7Lbbbjv0M1Y53bORHwelW+CsAQEFmjaTBDsBqNdukl82JtIrWLQNyrNN9tTpJyDBxiFo2MzGbE9egE+k07ygExXSQ37e1iKuSWaA6HqeVz1Sgkl+TpDIT//W1rgjDP22TlLlOS7jSU8K6pFeMFb11oLdOXftvex65StfuRHGy463vsagLv36AO2MY64VeetNH1p7afsFtQns0f9+5Ad8Mv9Dfr71Q36d/m688eTbz3veO/dPXTbs5DcQ6UV84LmJ5zscKuebziadDpnzcVrIgQuM8nQinuzMU8AaBNl5NpuRVsFUneAsr07foaAylnS0nQFdWb+TYOaY0mGfDkJBWo899tjxt/i6vY30ShFkUEZ4CAkBRoh95qIfZGG8xq2vxhLZnCMeOo27eRmfPiI/9WyzG0mxT1+ZD4A3veTqW7f0Gss6DnXsAv36AHtQ29l+5vWVr0xfK50XYzJ2XbCRX7/ofLqon+5s/J7f/p+W7+R3HSbplbdA/aBADrw63eqQnC/nLQCUI5KIgk0BpB2sxFmbaae8gJ122ZsgT1dwBoGkXhtlQWW88nRnP9meaXUrsldgG58fIfjIRz5yJECnO0SG4EKnPiQ5ESnRl/cDCU6PTnfG35rrp3EFOt2ymktpJ+jGqZx9fSmzZx/aZ31pM+1YO3rtNz2yqRfIpJHXJLD2wVggfTYaZ3bmRap+J/rTNnX5EPJz2zu/9esj5+c+902HBx/88v6d305+13CO/HzgzMEiKk6YA86rbTKp4Mhxc2b5HFoKAiDy047ti8hvgs2gnD0QUDDb66cgm0Enb6zJshdqn13l5FMP6LApwJsDIvvwhz98PPlFfuvJL/Jz8iud5Ced5GcckUDEM8dlDufIr3Eqa7OSH7K2DmyGuTZSMDdy9XMM035rVl/aBG1bI3mY5BdqD3T1cxH5TT+c5Ofkd478/N8dd9750Ja/6Wl/v4zYye8CnJzlOccH3J2Ocq7peGQ55HoigdWZZ57TF0Ts1k/tcv5AViArlxdgK9iQClg2C159RlIFHhuhfuqTnUCuT/nq0ydji03Bpy/E1s9ZITVkEwGWdvoDOtJJfkgp8mu+bEcEjR+ZSUPjmuOTz4a0fgK58bOd/fYl8mnd0iM3nuxLrbtxkbce5KH1z3+q1z5M/fqiO32usroJ/folcP+TW+R3jQCvXeAvO3byW5Bz9JDYD0NyTg44HS4or45JN8flyIKqgJNyfsixsyGQQPDMQAjTzrQ1A5LjA/kkv+oiJv0UdNmFyo19ra8ueePQF3uNRVuEhbiQH1JDdggn0pF2ApyIJIGe3wT03E9f+m381luf+p/kN8fc2p2bB2Kd5MeGsc891U/kp675Sduz1lQfER8Z0FVuHK3T9Bm20mnMbJWyQb82K6oLxvLoo49e98LjRH4nAlx9/rJiJ78z4CAcxicCyI8zcdCcLeKbz1mSy3PunH2i4OXMdCInAZQdeYFAL2grKCbpkWnPVgFaoJGDtgUb6Avo0Jefdusv+1A5WWly7ZTZZK+5IRbkh/gmoa3kl7zT4NQJbpt74aEf9tsPczfH1gXmHJoTnWQgj+xW8mO7vbCf7Le+E2Ttl7J5m7/27UkgNwb9ytce9KVsfI2rcTfWxhSm78Hqf/rw520+z/Fdopcep9Pf6eR30013bKT44i1/41n/vyzYye8MOAhnQX5uezkfR+Vc0/mmAyaXcv4cN2eWClDBu5JcMu1nsITZXoAqC5aCzPi0yV769U2uHrSTahNpBG1rF6Y9KaRbmR19SIFut7SRWQRDHpBipCdNT1mKQMk8C1SvD+OG5m7dlOfYjUkZjKc0eWO0lvP0F/mxCe2rfiahtX+RXvmgXFu6dNqD6puDsrz61rOxV1bHVuQmzdfmOMmy/5KXvORIej7V6vR37YXH6w+veMWnN/++66z/Xxbs5Leg24LIr9teDpXDSSO+ZBOcPMctIAUW0lBHh9PK5+jZL1iSz6BdgztHL3Dopp8eRBr6KwCV6UZ82V6hHzbSKZ9tNtivX0Ao87QX2QF5z/imTvkIL0KSr04fEYYUIhJjML7m09rNcUFzmroRIFl7HeyVVF/2ZtY1jupbXzbUrfrQ/rZmdENjNb4JutrmN6VBOeifb3rex3+huxgnP769/9eVJ+zkt6AHw5zFldOfNHGonC9MIpxyzkh/DThBJlWXHqdOR0CwBfoSCDm/+nOpAAN59slrpy/lZOwXZNrUN710y0/UX+NPTwpsF8jJEVYvOCI7pzdw++oTGFBWD/OlSLJJmFJjMY/mbS6Vm0+E1tigsTan8s0J+QH702Z7Xn/2TB15UIbIyzhaY/p0IqhS+o2LPp+AuW/ygS572VhBnh+y11+kdAeTP19Pfv+wk99OftfAUbwdc6V0u+B/bHP7wDE5LOcKq9MFzh75nXNkzqktPXUFIPuRn3oOT96JkS5ZQQOCDKad+qkM+tSfAJKH2tCd7WHaktbfapvMeLIRkF/P+6SIzltfLy7gox/96BH99Ydnej6JUdd/eiSNIHsLrM/2IsKRmlfrYmyh8TTWxj1TaI3ZsDb1Yc0gMoPkpeq0aW+0TRfylWB/tZ3jsn5z/NIJ9WzlG9nJ55z0fOsnT/fhhx8+Xrj5NOKLBIHsuc999PDKV35+I8TnXuf/lw07+Q1wDk7jGYkHxf66w8kvZ8/ZIqnKkFPS48iTEAoMECzZUxYsgqdAycHVzcAsCARMoDOJLJ21PINXf1PnXD77sywNxlT/yaaO+nmCQ1wIDJAZUkN63fqSR5bryTDyc/Jju7lYI+sYyBvvHA/ZnOOsk07Qs55BP+xaM30o27fWElr/kG7jm/5hbxHVJD9r5WLRGlm3xgLydLWZNrMVlI3VT2d5y4vw+PQkvojwppvu3C7uL9vy+wuPnfyugmM4+SE/Jz8E6IdMORZH53zT8XLsnBsKwgIOKoPgoCNopLWbtuXpFZQFAAhgSLb2U37KCmABJG0s0z4kr672U4dMwEqRXzJYx0YPkrElv7ZPlq4UCXgOJ0V88tpHLq1Va9/FhF16jUm+fudYk5evPuJji01r1z5N8osM6U3b2kZU0BilYZKm+fmMx8nXX8M48ZKdGxe7ESubEZ98a+I/2nLnwp8jvYgvH58+f5mxk98Ax+jhMBJEft725rA5Xc5cWl69QJmBVUBAgV093exNmzADpMDS5tkCWFqwpAuCpqBlc9ZN/RXn+hTs1UE2wiSw8iFd8tqf01P2DG6WpdrrfxKAVNn8IvZsa9MYpz2gN8mSDrRXkeyE9Wsd9XvRHtlX+nTsaSQFyvmJ/p32Hn/88cPHPvaxI5588snjbb8xGkO22dVXdvOTfIWub/sE9CS9SX7hnO9fRuzkN8AxOAoCRH5ugf19pF/14PQ5M4dbU3WQw+a0HJzTOrm4hev2zu0e+bQzbXHoAkQgFFxhygQG1OeUaW/s2Vr12DlnYy2H5NWVIii3b2CukY020pmfZDeJLVQ3y6X6MxdzAnMCMlC/2jkHerWdc2bTvsAkmfZ3kuHaHzvAJju1XckPIk6390888cTx5AfI7/Of//zhs5/97PGZ6Dzx6m+SX34CfsXFG16+mx9HdvLTx/1Nr/++cv/ztp38nsYkP8SHAC2Q/3+BM3O2nDeiyglzypX8lAHxcWZwe8PpybMzbbKlP84ukArYAkwqKMiUBce5NFIooBHNGqgRwWy32qW/jkEdRBTqejuLACepzbZSY58EeE5n5qeuvptX/dKzlsrGpLy2TRbosQPNWd7asyMfybTH5el02mIn+3PNjC/99vYc+bnldeLz0gc+/vGPH/7oj/7o8K1vfevwmc985riWxmIPtVnJTz/kPmrms/x3Et8zyU/Qv+Hw4IO/t7/w2MnvGnIW5Oe5H/Lzxtev4nK+HHg6cQ7OEQscARAEBgdHeP2RPyA/AZMjT7vKBRh7M2gLMmlBV8DVZ/WCRnBEFLNt7ZLVrvpszTbVk7MNysisFxc9tKezksO0iZSCejiXl66nyNqR60veHK2ZtHHVjzaNnQyaRzI6jVl7efbmHrfn5F1QtNe28dUPO/aW/tzXoL1++IY3390ReOb3yU9+8vDHf/zHh2984xvHUyHb+szH8hmpMbgzuf/++4/+Gvnlz9enngM+Z7ub+bHD61+//6TVTn4DkR/ncRXtWz8/ZJkj+6Sg/0R8Qn1kVVC5aiM8tzCf+MQnjs92EB9H5+ROSYIg24KkIMu5BVEBNQO3cnnQb33PYJ5jkmbnXJ5O5exMnRBBIL55Ow8ISZ8CNQKsTeRSP5FYhBaRkE0kj2h7O6pv/bE7SUl/jRvqrzRkt7J26djP9qL9keqnC0prNG2QNf/Zzn5C60KXP/ARc+kCQvbFL37x8N3vfvfwta997SjPR7SVNyawlu5M/CdbXtK5cM+T3vX+fY389t/z28nvGYj8OBHyk/orD44nGHLkMANCfcEtiDjxl7/85SM8y+HkSM/V3m/ccXRBlGNHfhMFSUE1g1MalAt4ZcEobTxT/5yufHIy6RrU6asr8M0h0gNlpK9f64GM5EEb84U5LuSG1KQIcJVJy7OtjwgX+gYwu8YFZM1HHqqb82qtykfE7fe82Cnbr0g2Ioe5duoiz9prB3xFvb74SL936GIoNScnPie/v/zLvzz6izb8IRv5BzvK/rc2P7/GdzvpXYQ77nj48MADT26+vf95205+AxFfp0AyV9SHHnroacfldAVDTk0OAlBAcOTf//3fPzqvkx8nRw4FrGd/ApiuQMrWtC0vgGaA0o+YCliY+Yl0Qb4AhWT0kmVfSl4/kF5EhoiaU+QneLVJR7rmK+sj21CfITIM1hTx6aPTX7e9oD1o11zX+cmTGWNy+ZAOGKP1h/Yd5O2ZvaajTX2VN8fIr4ta/tHcjb2LYeQ3T3+/93u/dyRAt8XaNQ7+ll15kPfSw6cuvlLIn6cfV/YfGN1yy/O38vkT4mXBTn4LkN969USGvvfzE+YckLMVCPLTKQUF5+e8HPfP//zPj8/7cm5pzo38BItAqT1M8iMvQNkVNNKCdQZ2ZZj1iEF9beXTK19aPd21rnqBKBWokR50C6pO+1CwSyfx0QuRorz+ShsLdOqzjgjOeMi1S087evVBxzpka51P+daq8STPfvtuP+xxe65utgNtrJH6dS+Nq7GYC/KzbtYyQreWPnf51Kc+dfjSl750zLOr3+kjTpRIT954jMVP7T/wwANHAoz4Al+efn3ZsZPfgpX45JGfv5Xsv7DkxJP4CgYyKUdFeH/xF39x+IM/+IMj0XHsruwcvJNgAcZGdguW+hAwM7Ck2iG1NbBBfpKfsjYzTV4bSB/0o37qyJM3HvOZ5Gdu8wRGLwhMKVIA5eYC6VWmY01qY23IERvIk01CokeOGOuvdSCf817zIT1t2DFG9usLJgnpR5tAn6z9PEd+rac1cwdg3Vw0pIiQbzz11FNH8uNH1pltvpUtfWd7yuj4K48Xv/jFR7/Nh3fyeyZ28lswyS+n8ezPQj344INHB47oOFvlgkPKUX2y4NT3u7/7u8c3uwhvEmC3v4JMsAkKdnJqKeinoC64pIIn8quuYC4/yyAfqk8nGXvSqT/1yBsDcjAXJxip53J01IdICOTNBZQb19SvfXqTSLQxPpC3NgV++6ANG9po29jrqzlIm9NaX5vIr31pfyf5Gcccv7L6uZftJzkdts2BXyC/fCIy9OkL/3His7btMZvzFprN1qB1aGyeAfbjBpBfgxcdd931+i1/8zP8/zJhJ78FOUggQ34+IPXcj/NxQo7GyQo6aRBAPldAfp/+9KePz3Rc0RGgK3y3b8hPgBV0AjdnZhvk2S84Bc8M0ikng5mvPmhT2/IFrbxAq37Vl5LRrw+EZz7dWtdPOpEDmflFSslWnbUPdRGgfLrSGfzthbT90N9qU372BXNus2xOZHO/s1/e2BoX6LP+Gxso061P+84v3PZ2AZF34vvCF75wJL7G0XzZ7Ta3udaHFMitlbw3wEiPD5/I7+Tfz33ujxxe85qvbn69/wdGO/ldxSS9eQJEfn7gwNWUAxYMOdsExxMwPmvxsaoPVTmyq3rk1y0O8nPVL+A4OYcumCFnZ3cG7UyhusBecnoTBVVEN/U6ZUD6ITkIxnU8yuT1DQI+gpAiB/m1XeXGlnyCLCizFxG1/u0Jub7oTZvyc97VrSloa92zC/qKxKXlK+u3sdCtnXr91a8LhlOeW1x+gfi8GPOJi7e/9NhrrlLrlt364Bv5SCTYGN3++lLB7W/kx5/3T11O2MlvYBJfUPa2139Y3X9ezulmMEx0dXdVR3yu5G5jECCyc4VHeAhQGSkKxoIuYs1ezq1PtmfAFkhhEoQ65chotgnJ0k8vW1NXedqvPGXJp41Ib2JtUx9r/7Ou+rlW6tmbBCiNgBDOOn9pp9TKMz/12M4mtOfk/AD0MftVbjzto3KEn30+0HNfvuI7UH/W5hMXxMh2bRqPfHOTgj4mATZGdcby2te+9vjyI/Ljz/fc846N/Pyn5feejYPLgp38BiK8rpRSuPvuu48fOnuTxqFyMJhBIc9hBaiTnau5qzjH9p2fKz3CU+e2xzMfASAYCzxOP21mFzj9DCBQDghjygTpGvxTf9qYOtmZmMEIdCKo8trPMv10IozVBtu1awx0oLpgnSZxAT170hq1TtYNATSu1da0Afqf+wBk7Xc2gUw5EtJn/VWnTE7WPsw58gH7jwR9//mVr3zl+KhkPjdd28iz13jqO/JbCdB6+/zl2vd/Jx+/447XHO6//0Obb99xNg4uC3byG5jk1wfOHhq/6lWvOn5Fz9mmY+fcOb86DpuzIkHO7MruzV1XdgSoznNAhJjDB8GSzZy5VH8CDOhFLuxJCxapemnBTV4+4qndlGeTDMxJv1JlduRn/9mrvfqwyma72U/jVpdOYwbkZLxkUJ6etQ9zf6yTPutn9qd9Nsjlq0uvi9G0OwmuvUlHmtyatQez3y589t/F0UfwiM/dwNQtH8wzf5v9rT5SvbHT7+9+r93V+OslHzhf7je/O/kNnCM/pz63DhyNI3OqHIwsZ8zZBVpOnhN7puPFR06O/AScW+CV/MjZyOY5x9YvcO5IBDEUIAVzgddYyKujRy7g0yELyYCdObfGGEHVNrugPh1pdfJz3KVzbFA7MvbJ1pNZ5KWuNYHWSaq8roMUtM0meX1NPWNd7U7ysy/QvpCF1R9CF0R+4ZGIv+P1IbO1WHWNY65V/lZ/0nwjVG/s+vdTV/5WPfLr2d9lx05+AzkH4gM/auCLec7VVTQH43jKOWDOxkkLnIJJgLnSO/357g8Buu3puU8vPWqbkxdYM9DqP7lALGi0LdjIz516CvTKUiSQPFn1wH54tvLM63fmKyMiYH8lG5A/104d/VA7deZp/aVsW7v2Zl0j0L5ytlb7jUX/2dNHNu2Bcml7Fcga9+wHXPQ8A7b3PoX63Oc+d/SB2X/62mdDai75gD4aA5x78UHfDx9063vO7y8rdvIbmOTnJYc3Za6aAgqxTUcTADPAoBPG6rDgVscpz5+8eb7jOQ+HdwJw+8PZZ1v9zb5m3zPA1BX0ArWrvbEV9OwVeI2p4IJOP6sO1L68Oum0WzlMwiolSw7azSBPr3z6remqX5muec51KC1vLaYdkJ/2yldWH6xpe7wSobS96bmbvH5nf9l1oXEhtP8uhv6EjV9Ufw7TjnnUX2OSJ4v0JvJRn73cdNPpv6+85ZYXbGT4o5uvn/6fj8uKnfwGJvl51veKV7zieNWcxDevrDlfAVGAFeAzz3GRjFOfP3vzWUMPvRGgoEgX2MpxS+u7/mfg0TFOQVewssNugQONqdMe2aqTHiCg8tqpk5KnW1k687WbOsproGc7XSnd9ENjTrcyPXO2BuYf+dGTWgsyeo1Fu7kG9qbxpFM/bLfGwbqz2x5A5Ede/409u97k2u9ecvCDxpDu1J9yeXNgf45n9YVZpmv8PtC/9VbP/a5sxPfWw0MP/enh5pvvORsHlwU7+Q0gP8/5PB/xv7b5LwAFTU4e6Uzn4nwRDmefTgtkBR0n91Cbw/vTN1/xI0B/wuT0N9vNQBBI+tDf7F/fjU1aPmg3bTWG+hD8kwAK1urlyZpXdclneaK6GdRS8pXQkknDtFm78tWtsuRstS5S+2ItrJk1pDPbmf9Mjbk8ZLM1bY3nHkS8yvKzj7kGCBbp+fzJyy+PQHzqsq5JbSemHWOo/3XP89F5geQHvvm7997Tre/pOz+fuuzf+e3kdxUcA/n5X9tcKTkQZ86Jzp24ZpDltBx1OqtAVe504ROYP/3TPz3e8nj+42G35z+1WcGGABG8BfZFaGz0IoiJxhYiP1Cvv/LarzbUk82ATS95+cY+MXXn3JTTIa9utVFdNozfujYPOvaitYqU7B3ZtCc/SY9MWh/JjK91tcbZBcSiXqpfY9IuO9OeC50Lnmd8PoB327v237jOoXr95ofrvp8jv3z4xS9+0fHW995733F45JG/3r/z28nvGrrl9f92eNbHyThWTjQdKgeTp8PBpqNOp+ewyoJU6tbHr3V4y+e218NvqE1OrpxMUBVkgjiHz/nBeJPNQI8oZmBmt7wgpJtstql/oGMcMPONLTKoftpZoX7aSKa/xp6N0jk+MmvqeWokAtmzJ62HvbI+0ybdSFM+WbblpWy152w1x8gupN96Sifstbe7/orjz/7sz457rh3dxj/tNIaQzN4aC+SjxtcY800pGR1t/NqLX3u+885XbUT4a5u/X/vpq8uInfwGkJ/vofyPbW55I5OcaCIHk1/JRsrZp9NKCwgBKwi+/vWvH6/+ToICwcmgNjBtQEEWAeb4E41vkrH+a6s8A34GKT0pGd3aSctrI/CNIZuRzSS+WSfVfq3LbnJIBnP86SWvfeMNq751si72Slo7Kd3aTJsrzKs9l7JLd44HWtPyjU3q8xYvNuy7T578QrNTPzvpape9aXeCPFI3nrnnEOkFMjrm4FeJTv/Px00bbt18fv/Obye/q/DMz/M+b8Z6cD0dS3nKcj4pIso514CYshzds78//MM/PN7+egAuMNz6znZrPhsCJgJcxxQiv9l/wVpAqp/59OtDWttk8vVfmd1ANssRIj1jgmys9rKZvrE0nvqRznElM49OgNpUz14XMeukj+TsTPuNp3xlY9Y2YtHn1GVjruOUBd/0+aAZ+bnl9eMF5Os4AhtTXlnaeCK3oGyMjbNUnXn723T+fc73LyN28htAfp73+YuOiIXz5EBrXhrxzKCajlo6g6Wyh99+6dltkLwfQxAkUw8KgjDloG/jNY4cnv1usxtDbUoL2HSm7UgFpg0p24Ge/qWRAtQWpu7UF8S1mW2hvupPeZ3LtDVt1A4in/ShOrLWqLnXf22lxqkfJKp9etLa1g975atzoevRhpccTvxO+dqzT0c6bSaHZI2H3tzr/DHiUw7kYPzuZnzFcPL3y33qg538Btz2WhB/DsThp4PlXNLpXNCJosDhrDn26uCBXAA4/Xn+40G4k4FToACaNmbbmS/A6AnKiBiUq6fbuORXuwVVttKB2jW3FRFK+Vm3tpu60Jqd62eOUwpz7ulGftJIKp3szIvAanuSX/WzHb3ZR/Xp1DZM0qvsja43+k59fubM8945n3TJGleyqZNtfSPi/NJ+Tx+tXErm4uiN73333Xu47baXHp73vJ+8eut7PhYuA3byG0B+/pzN7/bNk1Sk1wes5CFnKzBy4Jy4dBJMeXV+8OCv//qvj78A08evPn6eNiYKiBkM5AVE4zKe6iDSkV/tzrGlA/Rm4Euzo056UXnKks/2yeikN/Xrf8qMT7nxkTUuxGfPpLNO2jrVHrRRdqucveq1UdZu2mnspXS1mfsQqutZnzf6nu/+1V/91TFlU7vWfrar7US68urNlS9OkpvIZ4Hf8o13vOPthxe84PkbAb798PDD39i/89vJ7xq86fVXHX666pxzcSinK44kzcEKuOnAUo6abDpxeXpuc50GvvnNbx5ffDghSNUJsPRXe+rTkdITlMZtfIKLHrlUXW2mjWk/XTazC9pOTBuh+dQWIqZprzRbU3fq05n6jav6Um2s/9TLfjag+ubqVOfbSn9n7WKDBNO1Dq1F46pt86wf5XQh+/qTt5d+zMItr5ccTvn2vPrsTJvZnch+J1Vj4oP5Z6f+fDZ5efU+2H/Ri164nfredXjkkf0nrXbyG0B+/u+DPm5enei/NfmRex7kk5dvf/vbx9teJz+Bok6ApL/aK0gKanryO/md5qU+G1B9c3UiQ3xO2x4//PciP3sa+f3Jn/zJca/79ZZ05afN6iay/9+G/N5xeO1rv7WT305+1+BHH/2QQT9fxXkm8a23veULjhyYc878dN5JNqUCw5+8eRguIJ3+PCcqgNiSz0Y2Q7JJXlNXigxCY51jlNaPshRqUxnMd9qqrfK0RxcxIWRtlKd++Wm7vqqvn4nWe/ZR+9luyqRkjc/py/NV5Df/tlp949OGfJLbzFde97S8PfQSSz/+rNHLLSm7a1ukttrOFqRLT501mD6Yv+an+WqwRj/+4+86fslw550PHJ7//PcdbrjhtrNxcFmwk98A8vMhqP8S8Bz5wSqTn8GYs55z4LWczEnAG0DB4aTgGRFC7Keu2J6Bec7GzNdmyiKB7BR0tV3bRRYr1Eurz+ZaTmZtoDZQXfmpn43GPPuaqK209Q9rfXlyKdtOe4jPxcb3duasbq6FdsqtVfnq17pZb08953OSR4J+vcWfNNpf46BDdyK7xtE4z/WhbiW/Tn4XkZ8LkLrTDxzcfHjOc07/s9tlxk5+A37JxY8ZcJbIL+fhOFKy6WTyBV+OmrNe5LwTdASZz13+4R/+4fgwXFAKHEFzLiCyW3tY+2w81etj6rrN6xaKLNulkUyIwNRPuXIEM5F8Et/Mz/b1W1vlxqDN1If0krf+s8/Ks16dlG3kZH3BKXCuXSl9KViz1isb6U0dIGfX3/D6dhPB+hGDPnFhl860qZxd6dpHdsmbY7e95/xyJT/+rO7+++8/3Hjj/tNWsJPfgN/v83P1OVWEN4mPE1Wv7HZiOmqOG5IDJ05ewJALUA/GPfdz+9vJrx8+SPecvWzA7LM6KHBAPrnAox/BFOx05CMbOpXTq6wtlE9n6q51ofFO+1OnNuobv/GVX9ukN/PS6pWbv7yTtT81lCYvzTa9c6iP+tGm9m6j3e7aU6dKb/Sd6v2ghTlpm342yBojZHfN1weZ8a2+GgFO3wV60tP/6HbTdvK7afP5/S88dvK7Cic/t73ToSbI1HWVlefM0zlXZ53I4csXaPS9cfzqV796+Nu//dunf+3Zd2GIUHCmt9qamHWrzqybgS7gJsnMMc2ALD+hzUSBXZ00O8rylRvPlE1ks7r0JtKbafJpP3my5mhdgwsBeSn9+p+2Zj6wBeTI1DNb5IcEkZ8fMvCJi4tZNmsjb3yBjWydyxsbKNNfL8bPRn6nFx4v2i7yDxxe8IJf2Ehw/9venfyuwh99+1/aOAqHcevg+V+3EWST+CK/nJMjl4ccPAde89ORwbd+3/ve9w5+8FTQeF6EAN2WpVP72k470/Y6FuVkU9f4nV4FZXWRRSl5wQl0I5tVVrvqZ3tp9TOfvjLIR6Sz72yWj7TXOljtT9vmiOTc+gPy6zGAVH1t6dd22pVC618Z4fkPqzzb69bafiI/J0H2atceNMbGOevSLdUXyNO1d+ce0czb3sjvbW9769Xv/H7s8PDD397f9u7kdw3Iz9tejjKvoCFngsiv4MhRJ3LisNavjuw533e/+92n/94XnBYEjcDM5tr2HBrTHFt59dqySVbgVVd+BmTkUlq+9vIRlnx1a9/p11f9kFeXjeQznfXhnKx+q5v2m/tKfK0pzLagnI1sl28eyM6Jzz66eHlkYe/8La/HGS5is41+GlO2kzeGaX/WJbPm58hv9Vc6b3jDo4e7737u8ff89u/8dvK7DufIb3WmToDykV/OuzrrLCfLyavLmdlwavDc7zvf+c7x1Cd4pAXTdPyZz+60Vz+zr5kX9IJV4M/xytMrbX6dsoCcLJIpTwecRqT06rP8bFe/ZLNeWl+VpbOOfeWpUxuoz+rTAf0iuwhwEp+6Urr1wV42z+XZQHT+oyqPLNiwZ8jQ931eeNCpTWOoj+w0jsaQfLapDqzDvPVd/TV42/va1z50fK59zz1vOzz00J9v/r7/hcdOfleB/LztXZ1pEl63E/+/9u79+farru/4yQUIIJCA5EKIUC4h8eQGhOQk5yTxHE5OkglFKSIB6zji1No6HWvtjWlBpJ2qRdsZLdPp/fZbW6wEsYp2nOmfUv+Q3c9jf77PfN/5sE/AmtqxZ//wmrXWe73X7b3e79dnfT77s/dWTy/HnY5afjp65ZDzznqpX/j1qa8UOfUMyUNz5Mjx67c2ZJULnMoz8BtTwAvM3nGLAGff0ohEgEnJ6qv6qTd1g770rR1SFITzNruxtn0379ln+ofqkqlXTpZOsEbzoVdeygazrjkH5ebWPMgAIflU12MLZGfPgH0970N+LmKH2rbWZOlUD7VJbp7ytbVGdp0+C50GyeG9733PQnxv3r3+9bcvt76PHr/beyS/U/iGh5Mfp5m3vZP8Sif5fTcO+0ryyvrxKa/v+vrwAzH5IMRzI6c/JIgQt+MVtBPpFLwFGPQsKvJzCqy/dGa7iKRgk0LyqRcOERZZp0J19TP7qHy1vmqTnrrq09m2T09+2ghplXYCzAZSY2gjrVzd1HM767UWz/o8qrBnZD6s8iMGvtY2b3lrZ99aR7JtGmabylD7+ewvRIL56tmzZ/df3+Tnh/z/WsOR/Ab8sIGvt/mQY5KedBIgx3ol8tvmYXuqOKSvL0HoK1C+Ayp43PoiJ0Tl9OfWap7U6iOYS/MpP+cI+kR+veCrv+r0Ia2NdJufiFzKwySk2s066ZRNJJ99BH2F1rrVMffk1U291giT/ELrr//aZ5PZHjqZO/VJkVz2ddpzEfPjpc1LWh/2L3n9VZ/OlEuvRn7m6fQ3yW/6q7oPf/jD+1e5/JHRIf+/1nAkvw38v6nv9iLAEPGFnItD5dDTQQNHnQQ1HTjnnXX6EqQCyY8d+E4ochJgCEpw+RHMfvRUPwK2/uprIr1ZdvJz4gN9J09nEpO8OUkL/vIz8CKXdNVlm/RAfTr050mw8aqb+alTv9u+G1O+cbbtrI89pu0mssXsH8onT9+nup7nOZk78dkvdnVhIfNis293mMdsD41lvrM8x0w+0Tyh9hD55afzoj1Pf295yy2717zmjYu/H9/zO5LfAIPcd999e6f5f0V+TnhOft73m+TnltiLskjQabD+66++Jsi3c9CffqFb3tpLBVKEEZEUYOa4zacL6arLNrONepj6s5zeNj91Zr+z74ltv7Wzxmz2xyG/kJweO7pA+SMqe7MlP68pueXt5ebZvj6k5jvLh8aaaJ5Qe3gl8iNHfg8++MDu9tsf2N1xxyeWO503HIyBawVH8tugDz3cLuRAORMH6jkKcCZOesghS8vn0OkccnApJxZEXo/wQ6dud5UFmlsqJw3B5BUYJ7jZdiJZY846Qa/PiK/ApGd8eSnCkKqvHOo7Uim/JZzaVd9JL73G2vY/T4TVzXlM/drXL2ivrv5rmy0m4UWC1UlbU9C2Orps58MNP0ZhT+wNdKK2bz75Ve/xhfH1Ux9Bv80zm85xJsi27WujH2uO/Kb/hgjwnns+trv33l/a3Xjj8VWXI/mdoP/t9QdGTnxuFSbZcZ5JgNuTX84Yqpv59JSTzXwBKmg8+xNYThOeI4G8E0U/fS8oGmNijrOt00bwQjoFl3wBCZHGDNJJKiCfnL509hGmjL65zH6qE8SC9FBf5Q/JJsgmkkUkxs5GlVsHWbZqnulLkaV98WGGRxROeS4m81mqRxPIzy2vOuPXV+NC659jQPuxzW9ltdMPe7Fbvirtwr1evFefffjhH9mdPfuVI/kdye8UPvAA/3PgB02R3yS7rqjlOVrON51w5itPOaetbgZoehzUKxI99xNMThVOfwLPqQL50fHp4vzAYo4xx5l1Akc/2hX4pTBJpKDd5s23tDHkIyzY5lvnbFO79NJlg9mGvHZTt7pD/VdXHqwT5tjQXOW3pCLNntnfs1cXKBcgJ3AEZ4/6FN1pDzH6FLj+t301h0BmbtVD85gySK967c2f3abfvpz8/Jy9v7F8YXf27BcX8nvzwTi4VnAkvwHE5+TnRVD/49Gtwrx1AE5F7oTC8aYjcsLprDln5ZCzFnD1Q45U+78Ht7iCSWAhK20Fm099BV9fhWuM+ilfcMunox+nvvoz5px3cwLy8lPe3CdpNF7lWT+xrVOe+eYjf7V+tvozJS+fnhSyQ/URhbR6NgD1U58Mybno+BaORw/2hS3tgX3q5Odk6Bd6PAu0n9C86rM5zzHneKVX09lCf52at+THb8+dWx/hPPHEld273vXUcqdzbX/qeyS/gcjPP7j5Hw+3vq8G+U2HTc5RZ/BWJ+/q3deinB4EleDqpCYA3VYJQg/bnT66hdXPdj7QuOD0siW/Obfm1dygMqjfglwf1ZdGPslAf9u68tWnC7N+m079UvLmsh2DPLuoj/wQRvXZQX368myG1Njc6yvsbi/YUYr4+rAj8pNGSOZg3DmH8o1ZORzSOaQH5vjK5Lfmz59/fHfbbW8/GAPXEo7kN9Btb39i1HO/6TjAsQ6RX065zavnxNORC9zKgawg8Wmv50aITlC57RWAni11i+Vk6ATopKjeWM1njjflgAArb+ubG9RH849EZv2hPL0QATWX+qOnrvrZx5TNfth822b2N2W1SyadulL726lPvfVPu1Rm997bA3n7wI49QkCALlLITz3ykxon8qvP2b90iylPH+Y+TX1jgDGMFalPvwWEiPzuuOPW/TPuQ3FwreBIfgOcAfkxyvvf//69o3CkrQNxqgKG4+WMOeRMJzhnjlrwVZYCeUBoyM3zI+QnuASc1K2vvNdePP9zEnHKEKTbPsH4M2jKp9epkmzOQT1UtubaVBZwyZMlD+r03fhApq6+YbaZdVt5Y8BWp/ycRzqNX9n+0kmmfl4YzFHZXrAxW/dNDnsQ8dF38XFBcrGyF5732R99OM3X/7RBY6hLVjnd2WbmK9dGqp31zNPfxOq7T+7e+c4PLP5+bf+a85H8BroSeub3gQ98YE9wEOlNB+JcTiGcbjrjxNZJc9Ccu7bSUL2A9bzIp4VelhVU4GSB4Ao2ZUEmMBFl3zKYY9evNtKCHYyjXhBr03ySB+XQ3CtvCSZ5dUDemNqW0mkMOunXvj7J0quO/cvDbFe+VB/askFQto/mUhmm7RCcV1rY1/NVJOgxhAuPfWA3qA8XKfvmxOeZIBI0/pb8GqO0+TVu+ak7Meu38sbju5P4Vt918vuh3T33/OXdDTd40flwLFwLOJLfgFMfAkR+Dz744Eunvuk8lTkWB9s64dYZt3L6BfRWLhVAlQWRgHP76zThOaBTX22cOARnt1l+DMG3DTwndDLpNrixCvACkay5qAv6Rxrkc75B3SSVbVqbLQGRp9PYs031yZKnl10qN8faTFTX2KCt9bFLpzb7mC1bd7p0XFi8cO7RAtIji/i0qZ0+pOrshU/pvaxuH9ibL+k3PSlk88rq2gNz2OqXn3UTZK3bmC/32/Wu5cKFH138+5/sbrzxloNxcK3gSH4DPfN761vfun/O16kvB5ro9MfRtk6oHCqXFrzbdltHV3a76+E68nOCQHLzhCYvCAUlcnTqQ3xejtZOGzqzb/kZhMmkBaK8+dVupuTaT1KB1gQRT3Wd0Bp7m4falp/y8pUP1TcfYx0aj541sAfyA/lO79kJUelL2TM739Bwq8uWTtRdbFyEJgHSZzv1vebiAyknwU5h+jVGdp97IB9meZs/VJcc9A/Wa1y+eurDXbg/eyS/BUfyG3Dq84sXt99++0sOy3EmIj+gw9G2DjgdM8xyAZwcctqpg9AEng89EJtb3OojKoHXp4xSt2jIz3dKBWCEWd9zjPqYa1BOb7ZJr7lP8kumXrm69GDWz7qpfyhPr3x1ZGHbZkt+tZO3PvZCfBFXba1TvpOgE5tTtNeNnP4iO+SmrldcZn/sLI/8vAfokQX9TmDmZc76D/mF+c30ENItba+mbPbz7eTXhfuTu7NnP7/c9h7f8zuS3wmQX19v46hOdznOtzvQ+mkvp3sl5KTlQQAUjFMPKgtIZCaIkBjyc0uVc+sTBJ9ARIwIEGF61oQ0vSrjWRUCLMi1bz6CtbHNqbHphIJ1roFsQr/S2YYMJrnUd+3UbVFftd32xebJZ51+y29l9OXNgb36wEgeQYB+21t2dJvrU1229/iBjbUD9tQe4UH9sac8fac+Fy12i4TmxTJk04mtDrQ3E+0JdPKUrw/j8VtvLeS/nvmdO/cDi48/svj7aw7GwbWCI/lt8NrXvnb/msuW/LZwQhBYOeF00EMOmww45pRvddQb3ynC6QHcdilPfSjgJgEKTh+SCEBB7IMQzwu1RRjmCzNgyBs74gjkrVE50qnNJKGr5esn/VkXks8xIFLc5kNtKtOZBAnGtU6Eh6giq8ivU751spuvFiIvpzgnPbZlY3BRivDsCVnPAeXtlUcVveYSsW7Jrz2sHOjArGufkkmnrHz61mw84/aqljyffvTRR3a33fa9C/kdjoFrBUfy28Afl/vZnxxnkh/HKRUsHCzHy+kg55XPIadjgjZb5yXXLscVyD7EcHpDXt1agTblBaHgnOQnOAWkQNQeCQpk+o0tjwzkm3NkMdcAxqs+glFuXeSdykL68pOkZv+VGyeQa6dPqH1pmOXGbR5k2Td7WW8wBjvXjh36gKP/TwZ2Y9NsS5a92Z4c2BsxOvn5VJjMWvTNj7bPiNuH5te6W096YeqGqVN7YBdry2fz45XkH13I721H8juS3ync9vper096I7+cZzrQJD8Ol9NtHbH8lG1Bru3UUS4ofWLowwsB6JQhaAUxXXnBh+gKQMHn1ldecApUBIhE3cYJ3oJuEmFB01zmHK2TfJa3wSlvvoJuElXEon2y6snK13fjVFefsy2Zcqg+3VJ9ZKvW25rJkCRCkhrTowUfcDhpyzvxsRd7SoFMeZIf0mPvToUuVNrLG8fc+AyYl7GyOyhnw+wEycmgeUP50tqlaxxrm/6b75475z2/+xZ/P77ndyS/EyA/P2bqF28jv4l5CgRBxkEncs5tnkPOdMpDMo7baUeg9cwPySFAJ8CITwAKvE4pglPwCdTqBKVbMK/NuKUTrM3NuBGHNRecyUuDugn15ace6Eu/sJVJKwfl+pvjJpvtt31UTgbadLEohfpCDqAN2/mVFjbyyIAdIzq2Y39yJzrPVJXBRQmc9tgdlOm56GRjtnXBjGgnkc31buc/6+RrsyU/9fTSZY8I99R/19vfxx//xO7ee392d8MN33MwDq4VHMlvwGsut9xyy+7hhx/eB8XqMIc/6QUONh0yZ93mc8pANq/Ygb602zZlhOdWTMAhs05/PWtyuuhEUrBKyemX6kdQfuELX9gHev0Ltk5Ang0JUsFDTqe5kRVg27VVB61BXh9bbOWVW3P9Syeyafp0Zz/K6uactWGrEAmq0yZCkrKvT3YRHZt1IUFqvtHRqytO0D6EknqW6tmeeid0hIcQkZ7nhermnI3DznM923UFOsnlS8lqF5SrS5cdIr/1tMeHIz+vuvzT46suR/I7BfK7+eab9+THUedVcyKHmsE6kUOWpzNBtiW/6eSd+rRHcALTKyxITtnJbZ74BKhTCdCTCkDB2wlQG7puoQUt2QzI9VnQ+nPn1nU1MjI/aG2VJwreWQb9VZaH8sZr3bWdY858baTbsjR9c+y0F/mBOnrWah+RnVOf2122dJGYdkSI0k5+nf7Ke6EZ0XlOiATp09XPtJExO2mSZ8Psm15IJm092xMfWe3La2Os6bPrxXvF+f17fkfyO5LfwCQ/Trolv/WquT7viyS2jimdTjnzUxaUtc/hEYCx5dUhOAElwJwqCiyQF3xOHgKvAAQyAdztmAB3+tPOzzE5yRi/NUpbn/EjP4HavM0zWWtu3tkhAtrWk+uz8uy/NsnSl9ZH/UnrY9ZDfcmnn50jP3n1SN+67ZkLQqe+ntexH5sjPRcNF4t5wu72ln21s0fsbz/UuUgZ03jTFmxrbLLtBTA9aB2tpXVYg3avRH7y2re39nXdW/vsQ49P7r7/+39+ue1908E4uFZwJL+BedsbGYDbwfm6ACA/DpbDccScMgc8hPQnqtOffiM/QFre2XOr5VbK6cRzKScV8Emu4FUnWDuFKCM4QIYCWgALZO28BK3vSL61Gh8JmYsgLVCtz3zIleWbewHanOkkk4fIbauTDZIfKhf424BPnr7xYNZVr23kZ01dwBAX4mMTFwYXDISHwA6RXBedTobkbMqWCM9z2B5NGLM5Gdcc2RvIWg/5IXu0lkPr2ZYbZ2K7t13kHnvsqd1ddz20u+66a/svLI/kN4D8br311j3RddWELfGBwOFgW4fcBuh0xnRmOuUFB6IgUxZIAs1zP6eR3vtDcIhOHWITpIIQtqcTOp0eBau2Tn/6McYMDsQQYUV+BWbyuR7lTmtTZ0I9TJm2bJW9wpRNnak3Zcn1OW1JPvOgHgFH8GReBPcc1AWCndiNDXt2yoYRn3onO2l2p4f4kN6W8IyfXcxD2bj2mIwu+dSfaXlIb1tXfgv9R/Ltb3t8fNVlxZH8Bny17c4779wTH6eJAHOaCY6VU+bYlQu2WZdTJpt1tRPAgiO92gkqt7998igYld3G9qoLONmBfO8EmofnfQK1W2JE6PQo6AW4YGxdxjePCEu5NJiTuRXY9KXkyWpfOaRrXubXaazyNi0P2Uy+29jk+s2O6ShL2UJKx55arzq2/PKXv7w/PXuGx67siczUuXB0AWE/xNezPuVOffaiEx8Yf2ujWWaX5jsx22XLadtt3Uxb96w3zvb0t+JIfnAkvwG/4vzOd77zJeI7vVKuaWQIh8hPKsjC1iGl6c0ycFZ9Ihd5MjpQAAeB5hYLGc5bNQEJ8gJWPTIUkAgR0Tnt+dTS7bBbX59ams9cl/EFXWRXXh3MgJxrab61h+RktSHLNtmJbEt6IXumK438aqvf6me/Ujajb/xO1tp6XOCbHOyB0NjVhSLS84wPECHSc3J24ZCP/PoQqjHYWt+tUzpBli2mHWc6kR23fUy05mwl3zj2i9+eEqC7GLe9Hzre9h7J7xTI76677vquyS9HzNkKtjCdcOu027ZdpaXVSWdbfRZgAk6QClpBiQTnLZkyEkSAAlpwIsCeB7qN9gMIXup1cjG2dUduMMnPvCI/eTJza55bkE+QWeu0FUw7SQVwUDfLybLDbDv7T6f8JD/zlzrdIX+nPrZAZHRcLORdKOg42SG6iG+SH/tHftqaXyfAbDBtMWWQHeXbZ+lEe1EbqL/QOrNPdtDeevmtveW36yMdH3j8reMHHkfyO4Xb3ne/+90vI7/5vO87kd/WIcvnxNJk2uakgGQQEJ3aytcWBFanEYGJ2BCck4lgjPCSASIUpPSRQLfAAt6pz8N+wSwQO91FelCAStOZ5VkvzSZbsrKmGZzJ08sO23aVwfylsz0oZyvj04P0ameO1keOzNz2uxC4aPS4wImPXXt+ynbs1clP2vO+7Nrp2hhSNm7/rkZW1c95T91Zx65wSA9aJwKWD9rwKf56Sn7H9/zCkfwGbrrppt299977kqPAeqtw+opLJyQkkOOFbRk4Jfkkhq2OoKxPOmTSnJ9TI7xOI4INlAUgsuvkF+kJTpAXzIJaMJuPANVGMLvt8/zPGNYGk/hKZ36mh/TM2TgQcVUO1ni1euVsI29uyaeOtH7YNXLYlrOnOVofMvTprq/7ITMnPW3YJztN8lPf44UJtqVvH5z+2BWB2isXqvbP2O27FMgitEPkppw9p172nX3Vd+uWB7r8iu+uWH36/PH3/PY4kt8AY/heb6e+Q+Q3T0bTqXPG8hwRKufUdKqT58iRavVbCCZEJgg7oQi2SX6CUSAL0hDxdUpU1k6f+tFnP31Fp3kUcDMAJ9hgK0s3EtzapvVCdpF2uxiZlVef7qwnl5+nnOTZGOa82Li5mTsbWLOXvSf5SREeW3S6ZmO2Y2f2Y1dtsnUEyJ5OfO0LmKO5RGqtKSQ3t2xqjtk+P5OvHzrS1j77q1wd3ciPL0eA589/YnfPPT9z/HrbkfxO4R2/D33oQy+R3iS/9Yp5dfKbTjiRzsznnJwY2ehbf8nTB4Eu8ASlgBKQAqyTn8CL/GASH3LrJKOdfpQFeqc/zwA9+5M3h0l+BVvBWHBKt5j1UPuCVhq2JDbJrXTaic6hW96po9/mabzmMedk74DdPO/rdSG20j8beP6JxKRsjAQ7OdPrIgPsqw37auOiJGVrRKqP1p8N5t4Gc+vCk49t7V3b2Zd1k800OWgX8YW1/MTuzjvv2R1/2OBIfnv4UYN3vOMdL73jF+lFfDnOPB3lvBM5HifcIqeV5vD61B+5dhGDvughKYEEgnYGJZmALCgLRmUpRJzaSAWtPo1Dr9MfuTVZp3nJF4DbfAG5LUc+s0556ltTtjKHSWjZLpCFSDE97bPlHNdY0ElqogsX2/mVZmvvouE2FcEhMPZBYmyGyMjTRZael7rAkNsT5NhJ0f5kZ5+o0zHf1p0vyLdOdebHD/gDNFdya6tdaM3TntmlvPp8bF7AfeJ7663HV12O5HcC5OeT3khukp/ylgA5ZY6WM+d0MB2Vg+awBStHr29OXtsCXJlu5Od5nkASXAVYpDfTboNBu0l+gtOL0gLdWJGlb4/4FNM8ChJ584w4Zr6gnGUw39a31Q/k2aX1tvatDSfZbcv0sumcC9IIydKJUNjPc85IjW2RHjuxt1Og8iQ/ZBbxOTFqR796BNjJXJ49fZKsjfmyS3Mu37rkycyP7e0BHzNX81aXzegCefZMVl/l1b0y+R3/t/dIfgt8u+Puu+9+mbPkMJFeiPy2DrnNT6eV56wFpj5APgcuGKYTCzAkJnW724kkAozsug1Tpl9ASp1KtAWBTi7IkSVdJxTBai59ui1vzpNc5AvIrYx+5erI55orp5e9Slt3JHcI0z7NLzRm48+yi01rYj/ElO1cENiGXdgX+blA0GNjNmQnYDM2dPLTXptsXlkeSXqNyCMFfWz3dZanj1iHeZqvuSuTb21kTdlc3bY/bdTz13w4P37ssUu77/u+xxefP/6M/ZH8FnjH7/7773/p1mM6TEBWUvUcczrldOLpgKU5deQpNRbnTS/nDYLQiU6AdjsmRXyTAAWbE0bP+ugLQicR9U4jgltbuvSU6UFf7TIv5GeN5jZJ5WpQzxbWFtFIJ9RVP/UK7Nbb+pHcvB2W77Z3G+DNsXz9ljeWfGSirbU7+XWxsH62Ygt2neRH3omu53/zpN1Fhl0jQP0g1M9//vO7L33pS/t8pDrXEawFsoG1ZCdzn/WtnTy7WifZtA3Z1pfXHzZwAf/U7uzZv7/4/PEPjI7kt8A7fg899NBLBLfFPAUCp8sxp1NORGrSnFHb1QFPyQ/o6CMHBkEqcASTYOxZFNIDwQgC0MlPQHYqKWjT1a5bO3qCOfLzrpugNadJfgVfc4y0tmVpgSgfkulr1tde31sbAnKIILbkpz6bgvYzX//KjSOfXFt28KoLW7FRNs4ukV8XFySY3enTZWPoZI0A5YEtnaR9qOLrc8Yi14893BJgawrKrSX7bNH62Bbo1Z/67D8v2JHf+fPH/+2FI/mdAPl98IMf3DtHBNetLyCFbgnpcC4OWMByuG2+gMyROam29Vk/OXiBAPKCBTEhNkQoAAWjQOskoizYen5XUDqFCDh60Mkv0hPIgl3fnmEJytZcMJmbAGsNkUmYZCYtH2pT3ayvT7LsJGUHqH7asvpp19nXttxYtTWWtVmr0x5SYj828NyT3dgyW0nZCRn6xJm9nfYQINt28iNPBuzrttfrNMiv9wmNpc8tAUojeXXGs2Zr2K45eySzppXQTn9lKFnkl7/5Lb9z5xDgZxby+7XF528+GAvXCo7kd4JJfqujvJz8QldRDpYjTkRg6qAgnFfhoFxw1rb2ggHZeR6HnASOQBRcAlTAFXTKoA7pIcLIUDt6iFTg0SkIEYDvtQp6c2h91mYeZM2vdUjL0wP56tKVlk9/qweVw5RP3cryUx/Sm21mvr2wB9aHZNjBe34IDDH5nm/k5+KSvexBREWm3j6wqTx705dn7/qzb0jPr+f0wwnsrg/Eikx7hadTZntqXPZv/tkE8rlSsi6q1qeNsnVKX05++d7Hd3ff/bnltvcNB2PhWsGR/E5wiPxgOs6Uf7fkBxySE+pbW6kyZ1WvTVd/qOwUIIgQlOASPFKBK0ic4sgQYCggkV8nkwgQnPYElwD0Iwde+RB4AqX1WZvxraMAjFAKwkkw6RSc6aQ3288+Zv22PPuFSLa65NUlnzrl2xt67J6d2cMFwCnNCdtzU0TGbmzGLojJfgCiQobdArM1wqQP8khOX2zrww7/mmcPO22zPegXOo1rb2/sHYJkx3xk2gvyq+268ispRIrTh9fy+d073vHe3XXXXX8wFq4VHMnvBD3zy1kiuashp5xOWJDI56AgCKdTgjKnVR/ZbSHYnPo8nBeggk1wIrnIrHzkp74AFnDakAtmZc+iBJ0ARnyC0zjmY13mZm2tI4IJrWnKIhkoQGd9mIQ0ZdJtm8gO5EOykO5sC/U394g+QiDTho3ZqddXEA+7uGAAuyEqJzS63ZYiK/XITjvw3BCRIjq30P0ArTJCpI/UIs+gL+PSsTf2iJ75mmtrM+fWEvIz+zX3T6q8Jb/8+vR/e4+vuhzJbwHy89U2zjGvktIJdeQcK6fkhJP4tgRITxvglDkmx1Yf+XV7VR6cRnz/1vMppzkkJmAm4ckjvE54ER0IrEhRcAlS/TuF9IOmM4DMa0vs5h/mmoBeaVDeElSygjn51ClPJ5gLlE8nWfrSxgbzDuTNufW1VrZgFwTmokAPKXWaY89uU+2HPJvaF2TndtnFya2tC0kpOR19ID79RH76mMRHDwHbG/r0+EQ2MO9sa34zb9351iEfrQw9s17J7+1H8juS34qrnfxyrBwomeCRCiROOBHxcWBOmhOCdtoUyOnThUgvAhQIgsPzKb/CIkgETCc6QRXoBmRHLxLUTh9Iz5z07zYLoSoLsuYfocw1yEcsQKegTD/ZVi/5bFO7ZLWH8tLsNNuXn0jWGiI+828dUv3pdwKxOdFpr15fZMiJHdmZTREW+yUP7NiFBYkiRWXt6Nc20nOadIFCdPQ7IdoL8zDP1gTK7UG2a738aeuX/A2qq37N+zT/8u7d7760u/761x6MhWsFR/I7wSS/HCXCOnWcUyeL0DhYDgoFXXkOWpuIj0zQSWsnOBFSpBcEoQASKMjL8z9k6DUNMkCEkV/BJvCQn9sp+oJRcOnfuNAzrAIpsoiYmldrKfBmAJa2HvmJxtrKZx8QEaVbuymb+qF+zFG6tT/QSyafLsy5NZZUme0RFZuyU8/oel4HyIq9kRkidMpjd6l22mtDD7Sh74JkT1zQnL5dnOyhufGRSLq1zTmbm3nywfx1618gTz7Jz+nv8cd/ZHfffb+4+PxbDsbCq4kb3nhm99Ynz+ze/MCZ3XWvO7O75fEzuzs/vRDPvYf1/zRxJL8TdNubM0V203HK04n85Dkp55yBl7OmJ+WQObA8J5ani2RCBCj4AEkJIoTXKaHnTFInD2TX7bBUWYA5hQCC1FdjzyAJza25t6aZml/59AtGKN/arkZeta9MrzkpS7dtp36ybM5m2U+5Oql+6W91zSHUv/y2f3uhzWxfH+0TYkOQnewQXMSH8NJrLz0vtI+eDSJAFzF6xjXfbNGcjNvcyNXnf9Mn2ay50yM/9WWvaz2yyLzq8qfznt+Nbzmzu/0TC+k9dmb3hvec2b3tiYUML6xQ/5qbz+y+9+JKirecO7O7Y9G9/eMr7vjkmd3rv+/b+3y1cCS/E2zJL0R45XOynA86/RVAOR55+jnxRHraJhNQAmuSX0HTia5ne04XgsaJDgE6GQooJwopcqQvqARPgWPc5ltq7AIszDk3RzqTZGCuoz4DeXWVy9Od+tVFhIeIU7kAby6TjOYaymsjnfPeplA/tTNGYyeD5iLVfu6XFJChPWvvSu2FE6ELmT0Ce4gk9aN/65sXy8bMFtP3gI/xNYgAs9Mkv/X3/KSf2T3wwFcWn/+//57fddef2b3lQyuxOe3d8pEzu++5+5T8bl7q3vbUKQm+dSHB77206D16Zvf2K8uJ8f5v7/PVwpH8TvAnIT+yHDXkeECXA88Amg49nXwbTKHAcWrohOGEFwG6vXWKcAvlpOeEKEWY+i1w5jybA0QAza268tpK6ZjjJA969S8vDa1vlvfpHsu8Fjz51NJmtGO7V5P86Eq3854psLl+KmvX2Mr12zzItW+/ai+N8OY+tof2Dfl5JcYe2UN12urf+rbkZ8zW/UrkB+qzk7qXkx88v3vf+z6zu/761x+MhVcbbzq7nuy+5wMrqSm/9fxahxRv/vBye3zTctL7oTO7N75/IcuHl3QhyJsfOZLfnwoiP86Rs+Rcs8y5OBXIc64pLzCUk5MVeDPYcmrIyQVAAVTAFFQFU3WdLqRIrltexNhzpoJJQDTGnMMhGRiPTF0yefqV53qqM1aBJ80epbCOuZDXpeVEdhHY7eW6sB1bn51smkc6zbf5zHlJkwHd2WbWlwdjmI/x5vzNwb6yKXlzqX371Xig3J7ZK88FXbSc4hFibbIhmLu2UvIuCJFfvieNACM+kI/86OWP5849vrv99ru+43t+N7xhJapDdX8cvO72hczed2Z3/WsWMrtvvaW96c617vrXrST3pkX++ncvurett7qvu3VJ37XoLW23/f1J4CRqrDPSNx7Jb4/vhvyA83BAziWf40EnwoIj3ZwYZpAUXFCwFyiT5JSTzbrKtZk6BUyBZIxtkIbGPVSWlyrLb3Un1BkrOxizsSM0czj/xOXdT77wyO6//vJdu//5z2/dfe1X7tr91GceWeSrTZpn65Gf5FM/cx7ZofJ2/qFyKb3Zjrw6Y2S/xpS31xFJdXOcORdp65jk58MRxOdC1UWtfWuNta/f7Glc4zeP/I+c3bWF5jr9mc76k1bf+T2/m955Znf3L6yEcaj+u8Z1Sx83rHkEeOObVln1CPD65eS3Ly9j7cdTX3qi92rA+O/52wsZL7fbb37zQn7/60h+r0h+U5bDc0RBntNB+VL1nHAGQsGgXDDlsAVeOtLIT74AkZbXjzbaRxqVCwCorD40lrS+km9Bb7YpX5vmWMBZe2uTmhtoc/Hi2ucX/+qDu//xG3fsvvzX7j+Zx2oTdfqLFLLTaftvP602PrmyfPXJtMtOpVOvftOnE5HXj3w+YZ3Zdtu2PqXm1p45qXt04ZTu2R8ybC+heYB86wIy4/Gt6ZdzPofIb/u9dOltt932HcnPCeyBf7mczD6y3Io+tD67+z/Bmz+44KS91Ce/ZC/VP3gipzdxIkvvTwr9ue2+7zeW/IUFR/JbEflNx+IoOVhOpj5HR4AFtzTCk+aIOTL9nHgGRySa006nn0FREKgDxFAwNq72nQ7I5ZM1j8YOxqjPOdeCOLm0Oc15BLLaNea0Q3Op33MXntn9zI89svutr9y1++s/8fDu8Sef210+6csYrZ1+828c8vKl5eu/MtS2PJ3ZH0x5828vyTxGYHN1ZPmItWkX6jNbwTzZySM8t7rzdjfd5lN/8unomyxSaw6gbF7Zml5zjfRWXflnd+95z8d211//uoOxEF5/15ndI988s7vnl87sPvAPFvzDP+NY1nDPL5/ZPfybyy3v4wuO5LfiauQHkR8UDBwrkikVLJP8OGFBlyPDlGm7Jb90OfxMJ8hybtCHvpqLsSfqe/YnLd+cQuOA+WxllWfwzjptjGs+c/zW9+RTl3d/8yc/tHvxV+/c/d2f+uDuqR9YiO5k7DknulubGKsTlGeciCldkK8s1X4r26aBrvm2r/LGjajokOUf8s2vPppn0C77VEaAEDGW0gn1Ra5d8nwvXzWP/I5cvfmYl3Wkk19fuPCZ3f33/6PF51/5PT8nv7O/vj5/e+3b/v/A6+5YSHAh8zedX05+bzmS3x7I74EHHjghu48sTuJ9KC+Erie+U/J7fHEugYFwXPlXh4OVAJERvXN7vcuXt0EmdfuJDLRZCTPy80HApUsCzrcw6J4G/RoMykhMkHL402eN6/jKj+3roAAuSPUJ9V9AFWjk5nblChJa6829tLmt7dcfXC2Q1yA97X9dy+mp6NIl5LecWp64uPupz3xw929/4c8teO/u3y34K3/xI7sLT5rD2rdx6Gc7sHZ9P/OMX1h5fvfCC37ef/21FPVPPeUU5oKz2lZ78lNyWtcGq97pSXC1gdtFdnRaPb14ISYwL3bRll/wlUh9neva97qGtc8I8OmnV9tmv2efPf0wa+0fQZ6uf9Vfsdp1rWvuPiB6Ofk5+Z3b73lrNy/7v+r4Zscje1y48MLi67+6+Pwrv+py00IU7/kbh+v+LOPOHz155nfzkfz2OD35eY7nROUvJS/t8y8nP6RyZXGqp5cAeXpJTx9ErwTkdunyArcd/jh7uZ273IlA6vTgvTvfI/VSq/YrQV28yLGv7OWXL3vvy59fOw2sxLQS4XNL+vy+/uLFZ/fjGZej03lqOVE98YTUn3Sb5zq3cOmSIF7br5inSnmnqHX8y5fX9wNPyQHWOunTT69/ou5Ty099yp/4fHI5hf2FJVj9PSad9dY8WIu1Xbz03O7ZK8/ufvD5y7vnn7u4+/jzP7B79hlr93zTT0hpzz7ms9pOMF++7BspvtL3wjKef6r7sf1L3k5/SMjaLy19a7tiJfV1bDZsXa1xva1e6+R9xc2+suG6r+pX8lr3TVt2X33k9Ns9H/3oarvw9NP+JCryQ2D84Pn9GNJnnvFp/Prn6sjtyhUnyz+/6H7spL1XX9Z90Uf7vtrFfwL7NZf1kcdKfk557gY8I3120VmJ/ZT8fL/84j69cOHHv6v3/Hzw4BPfQ3V/luEDlutuXE5/x1ddViC/hx66b3EMZPOfF4f7rSX9xuJE//qE/Fw1P7zUf2Jx0hf39Veu/M6SfnVxuPV3+Z544iNL/scX2TcX/LfFwX93ce6vLPl+JeXxJe9XVH5vwYsLvrWU/97ipOf2AXTp0mNL+Yv7+ueee3G51VL/s0u78yftzy9j/upJ+28s+J1lvB9bHPzRpf6ji77TxL9a2vz2Mrb5fX2Z1yeWefmBUicD8/j3i843l/6/uej8l6VPvx23njYuX/YT7l9b8Nt7nWee+Y/7IFqJx6+gvLCve+65byx1v7Ok/2IhoE/vv6Hwuc/96O6zn/07y4nsD5Z5aP97y/j/eFnbY/sgXNdm7d9a8PXdlWf+YPfRy19aiPD8AsRjbV9Y2v7+gm8sfVv7z+3XjJz088wzX9n94A/+4e6Hf/hbu09+8g+XsT+/++mf/on9p6dPPsm2X93Pa7XNb+/n+9GPInynMb+S85+WftV/c8HX9uu9fHk9rT399Mf39nj66a8veHGR/4fFti5g2vvAw7t4Ly46L+73/eLFry72fHSpdzr0AwmfW/r+7wteXGB/fm3Re3IB8ruwtPu5E/nXl/RbC35xwfoVwytXnljqv7iUf3/BuvYrV35+mYOf30J+Tyx6X1nk+c3vLrK/tLfJevp7eJnjr+/nZd/N8dKlTy/17krW110uXfo3yzy/seA3l7a/u/j6P1t8/vi/vX/0R3+0+99D3ccVBxxwmQAAAABJRU5ErkJggg==;" vertex="1" parent="1">
          <mxGeometry x="280" y="30" width="140.88" height="140" as="geometry" />
        </mxCell>
        <mxCell id="Hs2CcvfQEq0QWHd-Z1g5-6" value="" style="shape=image;verticalLabelPosition=bottom;labelBackgroundColor=default;verticalAlign=top;aspect=fixed;imageAspect=0;image=data:image/png,iVBORw0KGgoAAAANSUhEUgAAAT0AAAE9CAMAAABORUWvAAAAAXNSR0IArs4c6QAAAARnQU1BAACxjwv8YQUAAALiUExURQAAAAMDAwEBAQUFBQcHBwICAggICAsLCw4ODhAQEAwMDA8PDxISEhEREQ0NDQoKCgQEBAYGBhMTExkZGSAgICQkJCUlJSsrKyoqKikpKSwsLCgoKCcnJyMjIyYmJh4eHhsbGxoaGhcXFy8vLzQ0NC4uLi0tLTIyMjAwMDMzMx0dHRUVFRYWFhwcHCIiIhgYGBQUFB8fHwkJCSEhITk5OUBAQEFBQT09PTo6Ojs7O0hISFxcXGZmZmhoaF9fX1RUVE5OTlZWVlpaWlFRUUpKSkdHR0ZGRkNDQ1BQUFVVVVJSUk1NTURERDw8PDc3NzU1NVlZWWtra3V1dXh4eGlpaU9PT0JCQktLS2FhYW1tbVtbW1NTU1hYWHJycoSEhHp6el1dXUxMTGdnZzY2NmVlZWRkZFdXV4WFhXNzc0lJSXFxcTExMWJiYj4+Pjg4OGBgYD8/P319fUVFRV5eXoODg4KCgm9vb2pqanx8fG5ubnR0dGxsbHZ2dmNjY3BwcHt7e3l5eXd3d5aWlpOTk4aGhqKior29vZSUlJCQkIiIiKmpqaGhoX5+fn9/f42NjYqKipWVlYGBgYmJiZ+fn46OjouLi4eHh7a2trq6upGRkaysrKSkpMLCwsXFxbW1tZmZmbKyspycnJiYmMbGxrS0tKioqJubm4+Pj6CgoMrKyszMzKampoyMjMTExOXl5dnZ2ZqamvX19e/v77Gxsebm5tHR0dDQ0KOjo87OzsPDw8jIyJ6enuPj49PT09/f34CAgNTU1MvLy/Pz85KSkp2dndbW1qurq9zc3Ovr68/Pz7Ozs+zs7KWlpbm5ud7e3s3NzdXV1cHBwbCwsLe3t+jo6PLy8u3t7aqqqtfX16+vr66urqenp62trb+/v7y8vL6+vpeXl7i4uMDAwMfHx9LS0tra2tvb293d3eLi4ru7u8nJydjY2OTk5Orq6ufn5/j4+P7+/v///+np6fDw8OHh4QAAAPocplUAAAD2dFJOU///////////////////////////////////////////////////////////////////////////////////////////////////////////////////////////////////////////////////////////////////////////////////////////////////////////////////////////////////////////////////////////////////////////////////////////////////////////////////////////////////////AEo/IKkAAAAJcEhZcwAAFxEAABcRAcom8z8AACXPSURBVHhe7Z3LjetKsGzbARnCiSygAwToFIe0gnMNtzM0ocHh8eDGisii1PucC9zRwwOysyV+qkoCtDqyMqv4+/r/xh5fD720qLeLfu3/YuL1eDyxiZcWfssezzD8JfkvKzCyaZi56e9tIPxl979YaU6EtMXiXlOoP0j+8vvLhu7e7IbFj2Xl0AaoJv7Arw0DXRzTlNgQ1Dc9b1FrwM9nfezXsAfoTEl8pmld12mlxGXQcg2b7LltffLXIijB+XpM64wt6+KlbVnYEE7zHPbLL1ZikrJEat62bTa0ed4EcJmXbdcGOCVHtYyL+wP1BU2Nn2/PNLtJIhMuvS0zUKLBdd43SpZtlk+nrtSab+lsoaA0T9jmRSlJOSqkhA/3nYVNshPIdZEOSQHFep0QX2uComZ4KA16aEwrNiQzgVwE1FDFjErp0NojuHTu+/zL47VPOEls6trWSd2d6GGipQqVLBLeanddBG9d9YnH11PdYGvx0dm5w4OYV/ZThCdjZCF6+PJzmlexE18pT2wlP8Vnlo1N4CQ91AYywioKhI1IYQhQzPQWRW2o60OoeC/pTWvxJdoSTOni6PkIqLyCTyXyZLaeT/IVggkV6iQlWRx+aotuSG9VgkesEBwwGRsMCRK8cFl5LuI0SglR8iNwPNLz9bTbb3HXbQ428QozUOKs3mIpt2Vfziz/JnLQY1p8LQnacRVFiRKkwiTIMnd4Njsu6Oj+FE4EzcMPlaK60GsqPo8XLD1FjQ0BWnV2WhvCqzU9ohZPCJY0oUfcqG/rZnZceMglpT9Q3br72MQGVHGEHLF3npiz6ktPOOK4uOuyPuy0hnazQ332XuKGNakFCaF4q8eTeru6roSTbo+uDDCiBA042afp1+gKxcoVqhZWCAN8W5QvW3xdY4ZeEhIGHuCZnqmxaYzKjRnARYH4ueiJtpAy34z46gtbWebZ121Xj6dhGAkfsFIsjc2KJOR4uKrEhjoZpBFAtFSLqFPM6ws7mSkp4poP4pKopDcXEkaYJGWuIKLTws6L8pTekOKoxD3f2pGeVIbjMYyFCjDsm8iJGIyLwosZZo02LD33ejJBZUgcetNU39jIBEkq+5pI36ynAUjFcmJmVjAGGNuxMy5jhMYbqQqo/FeqQ3sd6clJQYjAnKDUqAx8EmR0B9B13s/rWEkO2ZVbK94q4Cra0vNR2C9s6GejPcb5cDK+mPa9Ryihbj728/CkgPYkNfrDBBi+gRb9Or7yXEnJHAAmiHlLXabkaSi56bZvKoA3KYtMXSIa5Sv4aL+Mj18uhBpgoLaBD3ikx+K37EplVL5sO4cyxGllKUVW0izfNT2Jr76zj0V70tIIGXR+7u1EUPQE7VC6t8z7cTBdr5pld5pH5+gMRn+m13CKtOgRcwuf6bENPmV7+7HLR+dNzJQuK8Tu17W7oYwMR9um1097ztTAZ3I+zAM1/ZEf21vlr8pJ7NKr4sa8na/r2oSXlmQ0OLzhNRzpWnw+qvgkf3MgsDH7pLjKWGPfOOoN0uM6pEV5sfNA/JdVrGPCR8iQEV4BVumxdbWTDAve8ZLWpFHEd52cjjEfG3jdFO6q69nvRXzQggEr7duZF3V4PuPifL00yjBd/JhgslGQIMKY1/y60ksCzCSdOFiKVHH4jHSPgJvJFQmR7pDBx7Z7ggB66iw9AmGqqpWJXegFn0NHEKpYnaEkJYQqID2ZnjOpn+Cp2aZhB0qV50Z6Ctu9xhqSioVmeGLBaBcawmEVUcoJK2bDYhayePdzO7eQlvr4in70Cl7RYwRR8LRFHW+yGKHj7zntpw/2alsjkHlhOh6SEqoW6xKH72Nhh6yQkSk4CYmKgKHx7Qw7tDftrzNz9xrlKhv0h3D7L+nvuXTTHuwMznSIG9rHe7VhsmojKtS5zf7npUQPesqfNTwhVOvzfMmD3XxrD0vAMBmICQRCtDtCLvb1WC03qp/7n3/OzWMM5Iirm91DWmWwYrG2sQHPXV34eF/rYgcbOr4qPf6Q+FVLzoMso8dcVpGuL25hxmN6Fl8JMMvAAytHbcGlt/o9SLJr7dHQ5mmr+tYeFnaOCGEnCZojRRCRoBhHMLHiw+TP6XjtDOj8AeM0PVB7zq++uIElKgReuMW0N+io2lsabpzMCqjfex3A9Wcgz8dl+K0PrNV3NzDgDc9l6MqElODBA37WHvxWDdaO18vXGlh71N30bI+Hxm9Irws+yAz1+bAs05woTzCsPKr5A9R8fH+LHvmetAc5FoZodl9ID3RtxAe9QFT3zyFtXDOOiv96qAYPNzj+fG9Uz9+n8QLbzYWOF+ff+lubGPACyPRqXs89X3QIuRvf/Ppziehzpf9j6urYHUasPOBxPDxf3MKAkrVGEyKG+AIuV7hYfIYHofX456Xx2jQdSpYnJqwYcYAOesDrxE5m7ekP7YCvwPkorcxBoGpFcv7+s+Oqx+vcZRp9QDX0mGPOv6KRDTryXLr/irz0efR+ohLCOPb0WK8/B+Wv79frOoDnT7KK39YX9rGSHhJi8pNAizNaU3q5iVoQgp/T9npplDFf0Jvt1Q64qmeGuRe4YWLHXx1MMw/L0FigSwuKp/W81NVt39+C5zkEBnGsFXI0wPWXednIjEF8fJTb1ISKq2/Rn/0WFQqRej5RE71/lC/7U4HHDEy7KeVhwAk98hG2MBIXoUGAbuGtJ73d8c8fDTYEjUmBnOw9S4r1bc3M8DDR0tKg4sm1j/q8lhFojz/0fnSFwk0h1ykAuaHx64EELi9NDlTID36WF/tS266E7/ze8W2fM2rHZvaqqfSG9oxn0Ct+5C9imkvG9fpCe9N1rpwfzgkaSE/RZm/b65meVMexIKCNpVRHFse8AAGDPfd7Gqjtz4evismJfBwdX/mefF0zs+BgY2g274BNPZrEl3q9H0SN9diYK+XP9DgxUtJr67pgwZyslIFPi5xn4Rasp1P0zn31UE70VLNuotkYnshEf6TIMXjFdzPNx5Y2RG+BnicTVs4vsPRmS68pP+ODUKGLBCNH6CXwOjNez/m5nMzyCSb3dHhMkh69Xl+ztMRwcCp+iM/Q6N1UKXp47iKC1qpnVdb0eo0NFOIh57yhwc/zBfZf+7HQSnuL6JErq4jDj8/10LijviarbnbTk+jisPFfvVRGPuxez/TmaRY9sCLVL06O7Hiq7TAUY2TQY8U2k3ump03ooTycW577nA8yaBpSJnqN0xWbuaFAlijNgzQTdJHxqvzL/R6X8Ial+r1FuTPfkC9qafgsTmqEppfZZZm2RcZI9Wd6B1eHu6mKQq+99iQljgLFoj2pj1Mu0B53hFTtpGxFvDinBVUKXzyX7/CyoUFLIDjJLBJzxyd+emszU3jgfK5c4HIwAx2Jqu+L5zal5x8tDvLPdVvtt3ChzwMeK88gmN70VH4yHRyWNGb6x6G9tmYVKfHlfnCDXsHjMAdR1zhFaz8mjdbSvugdjUe5Nmsv54/JTNP8EBzUtK81bbZjnTSuNT0tFV72UwO1zvRKe5NnirVHP1f88F0q4cVaqfLkO3xRBNbpkBTre5pa8OkNt/GGnzs+yGrXXr0cyzRz8mNcWY32a4ZeY4KhI2jesmkL9anjM1kM/S1K+DafMb8QeVW4X93DBqhCSJak2VsOGapSx5gdOerOVeG47MrpA+oJL8LGr/j8NiQ7q9XnQiV8DHqlxOd07Qqzi9un3XJefacJhmTgEXrmhOYAJHyeJ1Ap+d703M9l3baokzj8WI9rw3Ubay9mYMGXYCFkyknEBnr47fO5XOr4SKtdrQJ1fHHdX3OwHfpjRcLiQnYgtp7bykWSLnISyKn07YX3tpufWDHaACoeLJO3nsfKMUl25brCOJ8nOcsvwGERFqyW0KPzC77ncSlfPpRYs8tpQOtx7l3PAfphbwbwwk/luaSBTCOb6DRtr43rmw2Pw72P6bjsur8AP0x4iBrG9sWN+aREcpb1OlZnfPAVVTq+k5u2/tqH0ck9fBBXJDmlQN2cM77jnJWzEEKsPoXh4zdu/G1Ch7zU7QkMZ9aalBguylBmbiVifuhvl/gUmX/twzL4ECKB9KloGKejHee6KOpml4Wirocf/pQ/+2vCEXqsnD7HvjYSZu6LIXDJoHcuG/rl9mm39mSBx15cd1XSrD0KtFyVMPtEql/pva3wRXpK7LRlX52O1zLtTvlSzyFx8IHuF1+Z6RmaT8TQhsPu9Jxf+7Qcc8gyhbBucl2Gb3wqH25v0VbwmRq6kz2U4c2Ij24PfpzEh/raXnbwnwYX2MERnwWdCDIrta8+jS9oBXfeuR0fB4Trs79mMMZj2SXCCtVDYVc932k1qlaFCsLcSrj1Gcx/G+CGWX020VuuXVmeUmTGcfR/SpmP4zjP3Zdw/BI0Afd8uK5AWnvIEJCHcr79zCSpTA1J+sxv+Y29MZOBD1uEDEuPjfk6nohP5kZ0fRrugi/u2x7fD+1ps+jRAUp858KBcCZZAKsmwhf1yX3JnNurD4+M9rQtnyVsTDm7WYMN9Xz7ynFJ7ULYXZ/5KfjmC5qbxQcbNpOxWIGPxybx7Vw6tOSCGFUvG867Gx/O29uquxMZPNcnQJqf3XU9FXaZavGhIfw6M32kzaev4Wjvurf2hu/aTU3wsV+LfNWP2qCels76DiXOdH2/8DzFzN/QIT7qqMuRXXo+zkYzXnNeuNMIdwHft7ZX7JaV3qBifAkcjhn24F0hVzlf4gqtHo9MF3Bb+sTd7mYsehc9TxcQOWQa6ZLzOYExQcFV1iL1bdzX3wfjmlt6PeO7nTf4nk+fSHpyzyAcGlgasAWdXrlhS31NV7OuynXtyBEeeluP7aGcj1tXcc4B6uNmBaCz6/oT/pK2ZvFZgKAofHbWx2Pf6f2Y51vnhfuScvIzDzJBfTxasr1BLuJjx/RkXj0WZcW+wQ1T93iw+sWVmVL77m/SAjCz8lQUXZ+oeWTB6skzDphu0bacmWuNlErjusbXPGmJ3gxLC+8P8bnveyyit30TdsubqVrmeT/o+TjQ0V1+ECHRAwUstA+qvDbu8kDK7FMNrFN1fTx0jZ7v13WFDIdUlgy9xI1CJ3deNyUtrwN6yI9iTqfnmadKnH+PkEd7zpLxQ5w39KD1eM6zhmwvxAc40+MB0BIej2BLrOls0LP4oj5KAopeTgneNB3fh5I/cHpB0ifH5Wmn3Qe7soQDoTE+/iIxFMktqp/z67VwwNyXpHLC35qH17W/XYaMfg6ZcTYG/R5/0EOTqlDpyl3RfP0B5/ep0eQnJvLgv/YHKE1PbxJi47P4LEdWnF66fV+Iz66MKCeLj+fXtZ8kjcRwVh6v7rBr8dHFAVVJ8vJ6cWy3KFMq8dHz7euv9MCCY3J30aIHJKIsvFShuOHDvKbHDCDi25a5/Vl99lLTIyKIHvAoZRd4JDPz9zdHxtnLDTh50O4vvaistCcqypUND0X6YRvw0+b17SPj7CuM6AMa7UKv+bG1IT1BtO5sKg5V45Kt+/d5uy5XyGjJLdd3X/nc06BkOkXPZZ6Dh2K4SWbUIT7TUyFniKtMveQCvca+C5F6R3K26vqoCMIRN6w/chjWy7IcGx+q72pnBhd7+623rD640cnJNg928W7HDSqVH2qkW9/U0cTAwEBmdgXQ9OzOtojPPR9shY/1yliNpl2tzm40MSMD6If0Ij6rb/5+jaRF8VkVDx5g0vmOD9AY7GSBZlOd8QUeImSw66lAF0NxQnuN6YWCcVlxH29IGhEqQ24TSQsdH8BVKv9Fe80eK/lhkZ5eBe9Te+XDAKQNSrtenp73DgTd7/XVHhoCkOGFmflRUlvFT7wUN145PEQ/qCbq9uat8U1JhWIIT6+hPRd7c3AzL7nu61g9oHOBHLf3JIuQRGnW2i29x5hkNr7Akj2X68rxDdJlxrum17fbs+Py+pQe6VzdLQ0PNTloKeq+Nro8DzZUtmzLfCxNtWdpRXrWnpXn0tyBik1ihPEZ43bP8oXeDr2+jmt65hd2vAimzKKw8xe9+XX5RNyUKWg0nqKCg+FFe4gx2mOaVPhEVJRCKjuLoq7qMehxjzmCbk/1KQ3GLL0SHtrzIzfo6owJslnJXw+mqW7tYW3pAcXS4yUb/KQ0gDmyMg7OHgB9ToYGa96WPJd5nbsmfEIAtOG49QcqxKTEjt6PhFA4hRKe2+ucHrkoAXxy3a4JH9L7UJ7Beal9Y5RrctVV5cfOWeZLYYNeEH6mR8rS0aAnXPW2z6rQ62Dk+IWg5QQWxKe3p0itvNCblbXU9/WywCsDG9RMLgS/3PFx9sUwUTu/9/SAWrrj85GNhuapurLAGwhdwJyU+j0fu8Vv6QOZpTI9UFLdlt6Hv36sskx3iG8OkeG9UNtel+Kw8UFvXZa95ZENuj1whdebH/BkpHWhR8x1Pwc9jTYoCD4E2Zce7IyvyGnDb8cTWCE53xEInsgxQTcgocdMQcv5USOKRXGDH7SyEiF5rbe07QX0vqxE2cJ4Y+uoPZDA5a27sAs/mVsw3YLyYGV8y609KVMZTW96NhN7A7Sphdv48iAHCPBNorewb8fVMHee59wbrZlJPbf0vLjREXHZ9K4CR0nP4lvOaxFDk2SagMfENqRn6Wk5yL3XZdqkOjMtg15pz1ec+iyqbd5a0gPcgKTXm2Fqxr5PFCVKZG5gPa8ZbDxCgnxl2zpOsgx4P9lRLitB8so5FzaPOurQBs9bo4jLXhpeYZ/eLYDe8PSiIJYC5Xumx0Li45guEGeLb1p7eu6n9oLpZvhTe8w/47vOUh5PaW8G57zR9XH6bcOoEUTYgDb+eKU8C5CBD+lpD+1p+VxnntbOgSFxrC9tY6YS+wHOq9jHjvCJ1A/tidtCKu2Mpd0ky9BeUcvrA1iKZAhOtKw+FooaZinxedFbe4OZudViVNBML2YDCLngW89vaw+nJebO89KS3s2oiPnlnVq7wPRizpBFj5iL+BbyvVkJc7szWejDit7glHUts/4iXihpGfz0qUX01PvBkSmCltr723H/tRrmSAG3sAu9BGBpUfjo97odFrodN6RucrU3ikSrppbLhMxXXAUnQWPrqD00NSANbH7VbowMhXOmxCp6Ez20BzsK1O2RsTSj99/Sq9fHFvTUEo81QNnifC8oibsd6emXm2Apza+PvypSowl6Rcv41O9Bz+IrenOzfk8/X0wwYI3F/b73SfUIu3ZcrRR+54v7O8R1Q69bv0cOAhvMkIrY+4+Xbc0DXqK7QY8z19ILdqTHOaOB8zevQHsvn9zmAae148IrZ49C1HsbnttMe6b3A2Ct7p0UiJ5vHmd8Jih6dZEzuxwKJ2q0Gmvop/9Ex3u82I1BmLs8FDphVBCZuSWVTeMNbiXXTXuCQhdmgAXs808lLNxmWnxEDVhiSBCZX7vF6IJJ2lPX18tz+emgw4qYoY0dvU2IoGHHzQRL6F2i53GuoHJjB2mv1dxyuj1rL6jyesOTiReECBpRmXGKWjw3B9oUc7e9m/b+ChoD2r1SHYMw0Zvc7cVztce4bcNzRS/HKTkg2Ut7ZHvu94pfIYNaSc90fM7yzJNMDRP5oUj1e6hxBZ+6Rfq9XlEDHxzaG3Ir4dmsM8eLdePGStq3MepdNybm4SZpaintLa2OqZkO+ilYA182bTglCYl0JUTxXNqrcM9ATRyh56jRjB79v7QnHIOZX4MdurTcmPyMEMHJ8Iy7B6+O2dB9rLOz5U5noN30yga8nwYtjlpIYPZaL5XA8Jgruy6enIylFz1LCYF9kPPrJsim5CXHXUp7sFMCs67ch4CP+18wbdyCr9VFkvrRaO+2mxn2sSPtKZyG3aC3rPvGR0VPhdw/U9JrpT1YDHqBNYTnvTe/cZ7ZMLTH1RmOOKbHWSx69Zkk4Crb0DPAwSz2GTn+g57SFOgRNIIQeksnek73RKIIyQA23sNU/aVBrnI+h4cw1NBj5aG6Ym9+jwcdowDWF3cwR1MDMKef7N4EVSvt1bx80Vuh58lmTI3WbVuWrdGNCcTFYgo72Q3sTS4mR+V+I1bfyrSAHHXiJg4MeAVVfYC8lkmCRp7r/v7WHsj0/tnhxejmnNsJt09hkaOGnjb58JcGarOiRiN6UAm+MHpj+8FPtRqoyXNxWc9SiZgSmNmPYuezevOIoV4TVKH3s99j8Tc7mdK9JfTQnlx3npUe+0Rc1wunur1ew1wHARsABrcf8GzMsGzQA6Dprds8ZahRTaK9TtN7OGHhKwaysPsgSB3TTxIc0tNCg45l1zBXA4v0enpLe82GGvrN9HpFSMQSMPT+WNmgZ+Fh6zo9FDE0UJN6i57GHtzNphU9y87k/mUFTm209CTBcFtm4kVvFT2f3lKvZV7b0Uu81TvX8mlxS+4WnioVcuO3wMPZj2OS88I+d7jh4Uzd7kMFveLjZQH8Qc5oNbKQ+4LO4ntOxy563E+EbpMmvoNcq5s62HMHoA9i2Rr7pudxGr5rCfIc8eeswMEX5BuU0sxbq4cc3PT062stZKZ2o7w7NdpIehbfk9t6S2yGh/SU0piehhpt+N30jOhtP/hRwzS8tji4oTGHFLfxSMncygZtEpSB1+uYEBNMRgRHViNpYcEarKqw52J0fOv09dyPRenxm54PueWxTG1MaIKvIAXcD9nR0930SA5ZfE3HsYres46lq6EclzMxGnV7P2KuPDM2pFdMmZgi37tzZa2/lmtfNbhwE1rSMUKvU7f3oT1Ma0HLy2Ze3LH1+eB4t3aJGIzTtmtPEuPP6ZM+7bbbzaoFxNoxvaio2Gkn8JSpsOnjaSmQD++v2YGEz0OPsQjPU1O310h76bcSe6E0VAcQOjiSY9PBICWKpCzHNT/hClRqGWmQ7XUKGv+tPZulZ191saujPdS4nhfXROLQSFP8FkWNdk9vNpVBh40SX/Rm300BM8pGZ89dXueqOKJQjDT5OBOjGrzV1/YwUcHz/PtDr0yb7IpYFaoWbnbl6cm58tOS+2PQmJuKiF63W1WDBz6w85a1B7f8DaRa0aAih4LGrqDh2VKaSYObHPeI4/bxXjPj59vg9IGvLPtaRHwQ27+30EutvmWbFx7sgjWhp58Zxd2kgDTCrgv1ZtMVnAckSNyz+lTCwokZ+YwWK883wHH1nX20R2DF+cqAdBsFUWb4SXscuuBqK+gx1wx4V4qlIm4jcBj5ngHVElC3QY9SNvNHPwey9XWJns9i5jOUcL/WTofTsoz2AAOEf+PLhsGZMIvH/H3NjNMKn1YaavR7OEQyFpPz0qzC42OtLWJFjIbH98n5aFToxXvyHea7mX63gIChzETgAbSytAJgBDidf05um16f4MUBy27SG9oLvIHNPLITEz2NLwBoe67X95H7PVZb1c+dTj0bhqr8+yO+wS4v6MZqhsVRg4dZfe9K9vzBek3zcNxGDNFe6Bkd7zc8LAgzPwU7M1yu1+bHXVcT6Pa836iIZSg7lAcOtr05UmfQGRysn/N5bR5ouMofaHa+8jDgGVmYhYX32BY9fJGqgU62XQcXH7gBH5X2loYRVwYXUxjAsvJGLPIDkQmGno9KVgu1nrpdEh7Tbx8Y3tBS4EIrL6ZS24ODGqHnZirg5L52+YosTAzHHMYfDCkNPzWjKMp7PPbX4dt7+4M09xkt9Y2dTL/+1h4cQiObLr39Vg0dn1V1vEhYjNjtna90DBrp94IhK7YGyUQNVZQF9Hq96WW53tleL4NZmEDHwGTayp/x+Z4XFW+p3V6v2VcfpKkKVz+TpJ/6HElDpdhABSS1IyTTzBS8SgJwOv5cd8JCu+ej4yBXpt+fLMQgxMHdnCGxdrcnern7VCUsy+vPmWll2qrswYl8TbUXJoHGEoNM4RO/nMLioKHVc/7+c0h6bKq66LUcaeC5tpsYPItdFmrBgVt6vtj+h4eo+Vg4lYSPZmf/vI3eTEggEe15i41aK7CoVkJDfkK2Hv98b9whA2zR3tRxZhQb2hOHElxBZOMuQHlDe8vrnxfXHgSetTeNY5HtzEkwKUkomVnh86pGIwZnkS7f/1wcTaNWb2uPc6d6dnwFBm68/WdoXscIteM9/2Fa/q6Fnq96aWmlvZyNEnylvVqBSUW3id6x+r7Lbv5BryPBj45POCDGW9HEa+/hvbitG+zf33WJEJ+B8bPp5B42Or7QM49Bhb3w5NQpHwb6eh7f39zNC3yu0jv0+nZ8n/QAdy+zIlURPNF7eJyG9mjOh/RaCLk9e76i50Pb1htc2AabLD1iEhYVrSfnEbjSrVn3umvcTzOXjDYMI+u3ELXBQob2Zo9yw01FbDx9566uUVfobu2xDBX3atojVsgkPhdvGuW62xsNTa+v9iroQiNmWjJt+RZp9lvg8To8yqXYCN0q9Jp2fINeCarolfZUUbtqE3qbijgqlJZq86s9KJhXsYILfLxV8LS9Xn9es2pyBhWtlRp2u0To00QIAwWv0IKaSkiaVYLoZAq1M/QmJq2qgbzbt2WpL2tnb3rYYGfH9K4XaI+5hPn1DT14qsZ1DNQ6aw98CMlqutVnmAEEKzVZn9P2UrrH7vBpfXDZW55IEIv2Aq7kZoOdh7twqph700ur1M3WXtd876YHOwEZ/KAXKWZ50/N1Gv4ArdHeb8z9wCQLztiok92e67apm9tOLctEBXyDkCENemgPRMiOagZqL+5HZXNraa/b1X2f9qm9Nzv6NoPjrXi7guxLMVf0Ulc8RRR6Xbs993twAAbowGIxlrHD/JRSu+eujEXaE1Qa8pkv9XvHIpXW9zUzo3KybCCWlAmanBfai9Cm4/v7ta9V4Yam1/NguEwQBC86soWUfbm6PWpcO+hZe/yp6aDXk1/R+2Bk8ZXnml4qmDBYobfl/CleFu1yHC1PAsJgg/ZixocFKNCqQCZVpt8LUNdoue1n66n5yC2k9NaepwSgVzU0kc6mQ/me+j23o1rePW3HWVeF9zMk9Kk9K8qXt1h7edAhhn9P+/V61dyy6TKYk/Yad3woCxvk4IRBBwm63iUPee7rdUIP6MEHvbNr0H1rDxIBaFQpqDvsjaL5fF3XxsCEV/DNx+GOr6EFHvQMz2ZScl2pbxr03O+pVPROJcfhHHwaqR1Nz5kPvJGxWIMmZXif9Fz6WPfrvA7m5mXw08fWfT8AWt/Yx/TbrSkwhEgAUsiZFz/oybhO6LpOj3SLoBpuwtfsDlSOkdCzkw6/NcmsXczJjVTkrUaz6F07h8PZM99p26S9fvkyYKI9kfhBTxucuqJVcfKCYRlhwyNdStRw4aaFSvjqKxuZfr7hFT1YGh8E3yf+2Iph6PEUNQw9zvuybBf02nV8JbNbe4EXA18NOEKWl+hd18v0wlUjjZlQ0jBjMbFBDzraZpHSm96opGI5RO+aKZJpOR/btKHG+s5GRtDAeZmmcwDxdoxH4YBVNSYV02jjvJQcV5HENx/rfIpnfWUjAwA9nxWG3kIv4hM8Iq4qQIUqeW2Cp5EZssPky9u67NfecKALMf8ZEtr7UJ89lxlSzM2omQ/BO4m6fEpglbKsCRvdzGTMK9lL8GmfCkdda5KS1Krj285TABluGDl103yeDSdIEZzRBIThDfFpi3vthV72TRbxHRpu8JHU0fcx+K0vbWP5+dBLbDCgNz4e8V9NVGh42mQ2lBm9oscU37KrpF3S8qZXKIIvlJyzUOMm1BRVDS3U8yWJySc11D3Pfj1fCJT2CpP/WBA2poQNmLqhWn4tx3Fc55g/0Me+nrNCccPbYtDxfWjvxseLG7M6HLsUem4mVnJUhV2rz2+Jr2ZIe3V+Qabfb/F5z+BiJMwp1c5opSixHern8nQNNVe5e76lvrOPmYx+f6JGaPiP+T1cl3kqN4nwwnfZdnmv8D2engb0kONSV1jf2sbC5i/t2W2Djxs4UOxqmUlym9HzODgHVw0sz1V5oIdrnQiW4ooem0Y3nFc933uqQFaB1viOg4sl5d3+tHz3api0GNjQnqWFuFhohfhWbtlQdAs2NbM6v41bzfvigy91hhZfI+nppwbYoGcwEl7geabAT7z+ix0SnBQo8F11kP40Aw5uCdTLQgPRmJ6FBz9KoefHDrtOtcXPW4odx85412FDAw7h65Yxhxg/X2+zifaET3v4rcVH3ej13EwFk/q+mmxBnRIjSUuzuCvxxPeMqKQnetqm3/MD6CQ+aN4Is0R9nFFFhRai1+/sefO6PRcoo98TPAnPj++z2DC3qPU0zTzRGZJUacDR74yMaG8YUFQAHNEDHIGDpYnSgpfr1Y5HDhc+zkXrdyqaSZT2vF3soIdpjw0Isk2rtMOqQbDS8bWjx12mjCR9n2CZBhjNxptgytPA0lhNTJmU2n2kiuS6/aaYIQG6iI897XtN9AgubxfEKkhDyiJWB+F+YQMMgHPu7PhZZOgAbS5LUTToJCUlcC3nffIczvrSNjby3SE/WagEnsWmBmDKPl2gC2BIefT4Jddt9hRTGQBANtBhAxVWUiM2m6VTQCYP/ClrD3za1uC3X8eH0D7glU+aXOmPejTm6WamrgjAgx77oUf+17LjM7sP9YWfw2+6NRUJEzLzCmBOE629wqeOr9114hCAww/PNT7MeOAU7RU9wAYqp4/KjO+5zg07PijYDLC2w8/UDImTbKM9AzRUrdxgIm0WYrlut0Nr/H5ovUOuCaI6b4UdQYM+L/SiP5nlJ6Mr5DzcfhkfPx9kBS+wBkEtvIuHmhnkPvk5XoCWEe/ar+MreEN9gxrm7Sr5SS87LlOttLdyX75+GR8/vmBZfaDL31jEQgvnNcEybdJGWzyXsx09wzM+2LH7gaxqXBJaha+2Mcde5Ch807Y1G6vdiCK9oPJKf6NKu873TOtTe7YHWbX7QtFr5rkgGvhKe3AreDfIIhXxkUj7zzTdzif8dXs+E6r6W3tw4yVkqWIv6IYCBzEZ+Fwv8Yne/3PtfX39D0NCOEsoEUTmAAAAAElFTkSuQmCC;" vertex="1" parent="1">
          <mxGeometry x="280" y="220" width="140" height="140" as="geometry" />
        </mxCell>
        <mxCell id="Hs2CcvfQEq0QWHd-Z1g5-7" value="" style="endArrow=classic;html=1;rounded=0;entryX=0;entryY=0.5;entryDx=0;entryDy=0;strokeWidth=5;" edge="1" parent="1" target="Hs2CcvfQEq0QWHd-Z1g5-6">
          <mxGeometry width="50" height="50" relative="1" as="geometry">
            <mxPoint x="210" y="180" as="sourcePoint" />
            <mxPoint x="260" y="320" as="targetPoint" />
            <Array as="points">
              <mxPoint x="210" y="290" />
            </Array>
          </mxGeometry>
        </mxCell>
        <mxCell id="Hs2CcvfQEq0QWHd-Z1g5-8" value="CT" style="text;html=1;strokeColor=none;fillColor=none;align=center;verticalAlign=middle;whiteSpace=wrap;rounded=0;fontSize=31;fontColor=#FFFFFF;" vertex="1" parent="1">
          <mxGeometry x="320" y="85" width="60" height="30" as="geometry" />
        </mxCell>
        <mxCell id="Hs2CcvfQEq0QWHd-Z1g5-9" value="MRI" style="text;html=1;strokeColor=none;fillColor=none;align=center;verticalAlign=middle;whiteSpace=wrap;rounded=0;fontSize=31;fontColor=#FFFFFF;" vertex="1" parent="1">
          <mxGeometry x="320" y="275" width="60" height="30" as="geometry" />
        </mxCell>
        <mxCell id="Hs2CcvfQEq0QWHd-Z1g5-10" value="&lt;font style=&quot;font-size: 20px;&quot;&gt;Radiologist&lt;br&gt;review&lt;br&gt;&lt;/font&gt;" style="whiteSpace=wrap;html=1;aspect=fixed;strokeWidth=5;" vertex="1" parent="1">
          <mxGeometry x="580" y="220" width="140" height="140" as="geometry" />
        </mxCell>
        <mxCell id="Hs2CcvfQEq0QWHd-Z1g5-14" value="Tumor&lt;br&gt;classification" style="text;html=1;strokeColor=none;fillColor=none;align=center;verticalAlign=middle;whiteSpace=wrap;rounded=0;fontSize=20;" vertex="1" parent="1">
          <mxGeometry x="1020" y="160" width="190" height="50" as="geometry" />
        </mxCell>
        <mxCell id="Hs2CcvfQEq0QWHd-Z1g5-19" value="&lt;font style=&quot;font-size: 40px;&quot;&gt;AI&lt;br&gt;&lt;/font&gt;" style="whiteSpace=wrap;html=1;aspect=fixed;strokeWidth=5;fillColor=none;strokeColor=#C81919;fontColor=default;" vertex="1" parent="1">
          <mxGeometry x="580" y="30" width="140" height="140" as="geometry" />
        </mxCell>
        <mxCell id="Hs2CcvfQEq0QWHd-Z1g5-11" value="" style="endArrow=classic;html=1;rounded=0;exitX=1;exitY=0.5;exitDx=0;exitDy=0;strokeWidth=5;" edge="1" parent="1" source="Hs2CcvfQEq0QWHd-Z1g5-10">
          <mxGeometry width="50" height="50" relative="1" as="geometry">
            <mxPoint x="920" y="185" as="sourcePoint" />
            <mxPoint x="1040" y="185" as="targetPoint" />
            <Array as="points">
              <mxPoint x="880" y="290" />
              <mxPoint x="880" y="185" />
            </Array>
          </mxGeometry>
        </mxCell>
        <mxCell id="Hs2CcvfQEq0QWHd-Z1g5-22" value="" style="endArrow=classic;html=1;rounded=0;entryX=0.002;entryY=0.288;entryDx=0;entryDy=0;strokeWidth=5;entryPerimeter=0;exitX=1;exitY=0.75;exitDx=0;exitDy=0;" edge="1" parent="1" source="Hs2CcvfQEq0QWHd-Z1g5-5" target="Hs2CcvfQEq0QWHd-Z1g5-10">
          <mxGeometry width="50" height="50" relative="1" as="geometry">
            <mxPoint x="450" y="130" as="sourcePoint" />
            <mxPoint x="500" y="100" as="targetPoint" />
            <Array as="points">
              <mxPoint x="490" y="135" />
              <mxPoint x="490" y="260" />
            </Array>
          </mxGeometry>
        </mxCell>
        <mxCell id="Hs2CcvfQEq0QWHd-Z1g5-30" value="" style="endArrow=classic;html=1;rounded=0;entryX=0;entryY=0.5;entryDx=0;entryDy=0;exitX=1;exitY=0.5;exitDx=0;exitDy=0;strokeWidth=5;" edge="1" parent="1" source="Hs2CcvfQEq0QWHd-Z1g5-6" target="Hs2CcvfQEq0QWHd-Z1g5-10">
          <mxGeometry width="50" height="50" relative="1" as="geometry">
            <mxPoint x="440" y="400" as="sourcePoint" />
            <mxPoint x="530" y="320" as="targetPoint" />
          </mxGeometry>
        </mxCell>
        <mxCell id="Hs2CcvfQEq0QWHd-Z1g5-34" value="" style="endArrow=classic;html=1;rounded=0;entryX=0;entryY=0.5;entryDx=0;entryDy=0;exitX=1;exitY=0.5;exitDx=0;exitDy=0;strokeColor=#C81919;strokeWidth=5;" edge="1" parent="1" source="Hs2CcvfQEq0QWHd-Z1g5-5" target="Hs2CcvfQEq0QWHd-Z1g5-19">
          <mxGeometry width="50" height="50" relative="1" as="geometry">
            <mxPoint x="450" y="110" as="sourcePoint" />
            <mxPoint x="500" y="60" as="targetPoint" />
          </mxGeometry>
        </mxCell>
        <mxCell id="Hs2CcvfQEq0QWHd-Z1g5-36" value="+" style="text;html=1;strokeColor=none;fillColor=none;align=center;verticalAlign=middle;whiteSpace=wrap;rounded=0;fontSize=31;fontColor=#C81919;" vertex="1" parent="1">
          <mxGeometry x="620" y="180" width="60" height="30" as="geometry" />
        </mxCell>
      </root>
    </mxGraphModel>
  </diagram>
</mxfile>
